<svg xmlns="http://www.w3.org/2000/svg" viewBox="0 0 100 100">
                        <path d="
                            M255.2,95.13c-.16-.15-.32-.31-.46-.49-.34-.43-.65-.95-1.02-1.34-.32-.34-.45-.73-.72-1.09-.39-.53-.59-.82-.61-1.51-.02-.88.25-2.02.82-2.7.37-.43.86-.76,1.26-1.17.22-.22.4-.47.62-.69.18-.18.41-.31.61-.47.26-.21.48-.32.82-.36.28-.04.56.02.82.12.55.19,1.03.52,1.51.83.33.21.78.47.94.84.14.33.15.7.25,1.04.14.46,0,.94-.03,1.4-.02.27-.08.51-.13.77-.02.1-.05.28-.15.34-.12.06-.23-.07-.31-.14-.17-.14-.34-.25-.49-.4-.14-.13-.32-.22-.46-.35-.15-.13-.36-.43-.26-.63.09-.18.1-.38.05-.58-.04-.19-.28-.54-.49-.6-.25-.06-.59.2-.72.39-.24.33-.05.85-.01,1.22.02.2.03.4.04.6,0,.11.02.21.05.32.06.25.22.51.35.72.16.25.25.53.35.8.18.49.37,1.04.84,1.32.43.26,1.01.44,1.47.58,1.24.37,2.59.52,3.92.46,1.08-.05,2-.24,3.05-.54.89-.25,1.87-.69,2.69-1.12.53-.28,1.02-.64,1.5-1.01.68-.51,1.27-1.16,1.93-1.69.84-.67,1.66-1.67,2.2-2.6.27-.47.48-.98.73-1.48.27-.56.43-1.16.67-1.74.2-.5.48-1,.67-1.49.48-1.3.58-2.4.58-3.8s.04-2.85-.15-4.26c-.1-.74-.35-1.32-.56-2.02-.2-.66-.33-1.33-.58-1.98-.46-1.21-1.09-2.29-1.67-3.43-.63-1.23-1.6-2.2-2.35-3.36-.51-.78-1.12-1.46-1.57-2.29-.52-.93-1.13-1.83-1.68-2.72-.27-.45-.55-.97-.88-1.39-1.3-1.67-2.79-3.14-4.26-4.65-1.67-1.73-3.41-3.49-5.23-5.08-.96-.84-2.03-1.57-2.89-2.5-.44-.48-.77-1.07-1.16-1.59-.37-.5-.79-.99-1.12-1.53-.65-1.07-1.09-2.37-1.52-3.54-.46-1.24-.63-2.6-.69-3.92-.06-1.23.01-2.61.19-3.81.09-.58.42-1.11.71-1.6.46-.76.88-1.48,1.46-2.16.72-.84,1.48-1.65,2.31-2.39,1.17-1.06,2.36-1.78,3.78-2.45.78-.37,1.36-.62,2.24-.57.43.02.83.08,1.26.08.82,0,1.73.07,2.55-.05.8-.12,1.48-.46,2.32-.33,1.07.16,1.92.83,2.83,1.36.97.57,1.66,1.4,2.34,2.27,1.33,1.68,3.07,3.18,3.55,5.28.27,1.18.41,2.46.27,3.69-.1.9-.95,2.1-1.67,2.67-.99.79-2.02.8-3.25.8-.62,0-1.12.16-1.74-.08-.51-.19-.94-.64-1.3-1.07-.74-.88-1.73-1.98-1.74-3.17-.01-1.15,1.05-2.22,1.89-2.9.35-.28.8-.52,1.28-.38.22.06.62.2.74.41.16.29.02.25-.18.42-.36.32-.89.95-.3,1.34.66.44.93-.55,1.04-.98.27-1.07.55-2.38-.21-3.31-.34-.42-.6-.92-.99-1.29-.46-.43-1.01-.75-1.56-.99-.54-.24-1.02-.56-1.58-.74-.56-.18-1.14-.11-1.76-.14-.64-.03-1.18-.2-1.82.05-.53.21-1.13.57-1.58.93-.4.32-.71.72-1.07,1.09-.39.4-.72.86-.93,1.38-.12.29-.2.61-.29.91-.34,1.14-.46,2.5-.21,3.67.35,1.65,1.18,3.19,1.89,4.7.29.6.58,1.13.94,1.68.32.5.51,1.04.89,1.5.46.57.99,1.05,1.49,1.6,1.7,1.88,3.16,3.96,4.8,5.86.77.89,1.86,1.5,2.7,2.32.38.38.66.78,1,1.19.22.26.42.54.6.83.18.28.36.52.56.77.13.16.26.3.39.45.36.41.69.82,1.07,1.22.41.43.84.65,1.32.95.95.59,1.9,1.13,2.85,1.71,2.16,1.31,3.09,4.18,3.81,6.46.21.67.49,1.32.7,1.98.09.29.16.62.22.91.13.6.33,1.13.45,1.72.12.63.27,1.25.38,1.88.09.5.01.97.01,1.47,0,.26.04.5.04.76,0,.44-.08.94-.14,1.37-.08.56-.14,1.1-.27,1.64-.24,1.03-.55,2.03-.81,3.05-.35,1.42-.54,2.8-.92,4.22-.23.87-.68,1.69-.91,2.55-.17.64-.38,1.12-.73,1.71-.61,1.03-1.32,2.01-2.17,2.87-.39.4-.76.83-1.19,1.18-.43.34-.91.62-1.26,1.04-.25.29-.52.54-.78.82-.43.47-.77,1.03-1.18,1.52-.47.56-.99,1.06-1.66,1.38-1.11.53-2.31.82-3.4,1.32-1.18.54-2.6.52-3.84.77-1.54.31-2.85.1-4.3-.19-.63-.13-1.23-.12-1.83-.28-.68-.18-1.31-.23-1.97-.43-1.17-.35-2.3-.54-3.23-1.41-.2-.19-.42-.37-.62-.56ZM260.58,74.51s-.03,0-.05.01c-.15.04-.28.12-.41.19-.55.29-.92.85-1.4,1.22-.51.4-1.03.84-1.49,1.31-.31.32-.57.75-.96.98-.33.2-.81.27-1.22.25-.53-.03-1.09-.07-1.63-.02-.62.05-1.7.31-2-.51-.08-.21-.07-.55-.08-.78-.05-1.45.02-2.9.06-4.36.04-1.39-.03-2.76-.03-4.15,0-1.06.19-2.03.29-3.05.09-.93.33-1.79.28-2.75-.03-.53.02-1.05-.03-1.57-.09-.9-.36-1.77-.54-2.66-.07-.35-.19-.73-.25-1.09-.12-.72-.23-1.42-.36-2.14-.16-.9-.31-1.8-.44-2.71-.14-.92-.08-1.89-.17-2.83-.08-.75-.23-1.49-.29-2.25-.06-.77-.02-1.54-.02-2.31,0-1.63.02-3.26.02-4.89,0-1.01.06-1.97.11-2.97.03-.51.03-1.03,0-1.54-.01-.25-.04-.51-.06-.76-.03-.44-.03-.88-.06-1.32-.03-.41.04-.95-.37-1.18-.45-.25-1,.07-1.4.28-.67.36-1.39.62-1.93,1.19-.62.64-1.17,1.29-1.8,1.91-.35.35-.53.6-1.06.54-.45-.05-.89-.05-1.34-.04-.48.02-.74.11-1,.52-.22.33-.5.76-.21,1.12.31.37.84.56,1.19.89.35.32.46.75.44,1.21-.01.3-.03.58-.03.88,0,.46.07.9.03,1.36-.04.54-.09,1.07-.09,1.61s-.05,1.08,0,1.6c.09.92.36,1.75.54,2.65.11.56.31,1.08.43,1.64.11.51.09,1.09.11,1.63.04.82-.07,1.63-.21,2.44-.14.76-.17,1.42-.01,2.19.07.36.18.72.29,1.06.15.44.35.91.45,1.34.12.53.26,1.11.31,1.64.07.72-.06,1.47-.09,2.18-.11,2.33,0,4.64.03,6.97.01,1.1.18,2.21.29,3.28.05.5.03,1,.03,1.51,0,.73.07,1.5.22,2.22.12.56.25,1.13.31,1.7.06.58-.04,1.16-.01,1.73.02.33,0,.66,0,1,0,.72-.31,1.35-.77,1.88-.59.68-1.36,1.34-.32,2.06.64.45,1.22.57,2.01.53.16,0,.32.05.48-.04.31-.15.51-.4.77-.61.34-.28.73-.51,1.1-.75.78-.5,1.7-.93,2.62-.98.91-.05,1.94,0,2.8.2.45.11.88.31,1.32.45.47.15.89.17,1.4.21.52.05,1.15.03,1.66.17.62.17,1.24.39,1.87.54.13.03.25.11.38.15.12.04.23.07.34.12.24.11.46.27.73.33.15.04.23.03.28-.13.04-.11.04-.24.04-.36-.01-.3.02-.6-.03-.89-.07-.44-.25-.83-.38-1.26-.26-.87-.25-1.82-.25-2.78,0-.82.17-1.61.2-2.42.02-.51.03-1.01.03-1.52,0-.28.02-.55-.04-.83-.04-.18-.1-.44-.3-.51-.09-.04-.19-.02-.28,0ZM241.49,84.03c-.14-.41-.15-.82-.21-1.26-.14-.93-.17-1.89-.26-2.81-.09-.91.1-1.78.05-2.68-.02-.4-.04-.77,0-1.18.02-.2.03-.38-.08-.56-.14-.23-.36-.52-.65-.5-.43.03-.79.2-1.1.5-.35.33-.71.67-1.06.99-.37.35-.77.72-1.02,1.16-.22.37-.41.87-.69,1.18-.3.33-.72.55-1.07.84-.29.24-.56.54-.9.7-.88.41-2.04.56-2.99.43-.35-.05-.71-.08-1.05-.12-.35-.05-.78.03-1.08-.17-.78-.52-.63-2.09-.67-2.88-.03-.58.06-1.14.08-1.71.06-1.31-.06-2.64-.06-3.96,0-.94.03-1.93-.06-2.87-.02-.18-.04-.36-.05-.53-.02-.28-.05-.57-.06-.84-.01-.3.02-.6,0-.9-.04-.85-.07-1.7-.17-2.55-.1-.9-.17-1.82-.17-2.75,0-.99-.07-1.96-.17-2.92-.08-.87-.49-1.65-.53-2.52-.02-.47-.02-.97.03-1.43.05-.48.02-.99.11-1.46.09-.43.1-.88.22-1.32.12-.48.25-.9.35-1.37.42-2.08.74-4.37.65-6.5-.04-.97-.12-1.93-.07-2.91.04-.75.12-1.64-.12-2.37-.1-.3-.35-.63-.53-.9-.37-.54-1.21-1.54-1.87-.84-.2.21-.3.47-.52.68-.25.25-.51.49-.8.69-.4.29-.89.41-1.33.64-.21.11-.38.3-.58.41-.25.13-.59.18-.87.25-.44.11-.87.27-1.32.29-.42.02-1.01-.09-1.36.06l-.97-.06c-.78.57.12,1.55.44,2.11.41.73.86,1.35,1.14,2.17.57,1.71.32,3.55.42,5.37.21,4,.42,8.02.66,12.01.01.24.04.47.06.7.02.48.09.93.11,1.4.04.88.21,1.79.25,2.66.02.51.04,1.01.12,1.5.07.48-.03.96.02,1.45.05.46.06.93.06,1.4,0,1.1-.05,2.21,0,3.31.05,1.04.06,2.07.06,3.11,0,.69-.15,1.43,0,2.12.08.36.31.71.35,1.08.04.43.1.88.11,1.32,0,.41-.1.84-.17,1.23-.14.72-.58,1.41-1.04,1.98-.16.2-.34.39-.49.57-.25.3-.71.5-.43.95.12.19.2.36.28.56.07.18.2.31.32.47.15.19.35.32.59.26.21-.05.38-.18.59-.26.36-.15.7-.3,1.04-.48.76-.41,1.65-.68,2.5-.81.89-.14,1.82-.35,2.72-.4.92-.05,1.82-.21,2.74-.12.9.09,1.8.2,2.72.2.47,0,.91-.04,1.35-.11.42-.07.76-.23,1.18-.33.77-.19,1.55-.26,2.33-.37.35-.05.79-.01,1.12.13.27.11.51.24.79.33.28.09.47.17.78.17.3,0,.63,0,.67-.35.04-.39-.28-.84-.42-1.19-.01-.03-.02-.06-.03-.09ZM219.24,63.65c-.06,1.48-.06,3.09-.41,4.5-.31,1.23-.49,2.5-.85,3.73-.21.74-.54,1.4-.79,2.09-.22.6-.42,1.24-.72,1.82-.59,1.14-1.35,2.19-2.26,3.09-.45.45-.94.83-1.46,1.24-.83.66-1.44,1.58-2.45,1.99-.99.4-2.07.42-3.12.42-.11,0-.23,0-.34,0-.89.03-1.79.17-2.68.03-.56-.09-1.05-.23-1.56-.53-1.47-.87-2.9-1.66-4.27-2.69-1.07-.8-1.85-1.84-2.73-2.83-.88-.98-1.69-2.11-2.27-3.28-.62-1.26-1.04-2.52-1.43-3.8-.2-.67-.5-1.34-.63-2.02-.12-.6-.01-1.24-.13-1.83-.12-.58-.29-1.15-.44-1.75-.14-.57-.15-1.16-.35-1.71-.21-.58-.39-1.14-.45-1.75-.2-1.83-.02-3.72.08-5.55.03-.62.02-1.19.22-1.75.2-.56.39-1.12.58-1.67.38-1.12.97-2.11,1.14-3.28.18-1.18.87-2.02,1.55-3.01.62-.9,1.33-1.69,2.09-2.48.79-.83,1.55-1.43,2.52-2.04.48-.3,1-.5,1.52-.68.26-.09.55-.16.84-.22.54-.11,1.25-.28,1.79-.27,1.12.01,2.23.42,3.23.91,1,.49,2.05,1.01,3.02,1.59.94.56,1.77,1.29,2.17,2.32.27.7.7,1.35,1.22,1.89.24.25.5.47.8.64.34.19.73.26,1.07.45.34.19.57.44.79.76.24.34.47.73.64,1.11.21.45.49.87.67,1.33.16.41.23.86.45,1.26.23.41.56.78.82,1.19.31.49.52,1.05.84,1.55.35.56.41,1.01.5,1.64.19,1.23.35,2.53.53,3.77.18,1.23.32,2.57.27,3.84ZM210.95,63.7c-.06-1.35-.06-2.64-.34-3.97-.28-1.32-.67-2.62-.79-3.97-.05-.6-.13-1.15-.25-1.74-.09-.43-.15-.88-.26-1.29-.11-.41-.33-.83-.63-1.14-.36-.38-.61-.87-.86-1.33-.25-.46-.48-.94-.66-1.43-.17-.45-.47-.85-.6-1.31-.07-.25-.1-.45-.29-.66-.15-.16-.33-.29-.48-.46-.31-.36-.66-.6-.97-.97-.23-.27-.48-.5-.69-.8-.37-.53-.81-1.01-1.35-1.37-.5-.34-.9-.14-1.43,0-.51.14-.85.45-1.23.83-.33.33-.58.66-.77,1.09-.35.77-.65,1.54-.74,2.39-.22,2.32-.29,4.66-.31,6.98,0,.73-.03,1.46-.03,2.19,0,.46-.05.93,0,1.38.06.45.18.89.22,1.35.09,1.03.5,1.99.54,3.03.04,1,.32,1.96.51,2.94.1.5.27,1,.34,1.48.14.98.19,1.92.44,2.89.38,1.49.97,2.93,1.6,4.33.71,1.57,1.89,2.96,3.28,3.9.84.57,1.29.64,2.24.27.7-.27,1.46-.76,1.93-1.34.31-.38.4-.9.59-1.34.37-.88.36-1.79.45-2.71.02-.24.05-.47.06-.71.03-.55.05-1.08.03-1.63-.04-1.06.22-2.08.26-3.13.05-1.25.23-2.48.16-3.74ZM194.71,83.07c-.28.32-.61.56-.94.83-.73.58-1.37.77-2.31.69-.46-.04-.95-.03-1.4-.06-.53-.03-.92-.08-1.4-.23-.45-.14-.85-.23-1.29-.48-.4-.22-.79-.47-1.16-.73-.67-.48-1.26-1.05-1.93-1.53-.27-.19-.56-.39-.79-.63-.52-.55-.84-1.25-1.28-1.86-.59-.82-1.22-1.66-1.72-2.53-.52-.9-.79-1.85-1.24-2.78-.43-.87-.47-1.79-.74-2.68-.28-.92-.76-1.76-1.07-2.65-.32-.9-.87-1.57-1.41-2.35-.59-.84-1.31-1.61-1.86-2.48-.2-.32-.36-.65-.61-.93-.16-.18-.25-.45-.54-.4-.15.03-.32.12-.46.17-.65.26-.73.8-.86,1.42-.1.49-.2.95-.23,1.46-.06,1.04-.03,2.07-.03,3.11,0,1.17-.13,2.39.03,3.55.07.5.13,1.04.19,1.52.46,3.34.63,6.76.7,10.13.02.74.04,1.45.04,2.19v1.43c0,1.06.32,1.83.76,2.77.39.81.65,1.6.93,2.42.15.43.37.85.57,1.26.19.37.71,1.06.34,1.44-.63.65-1.3.23-1.89-.2-.34-.25-.67-.49-1.03-.72-.37-.24-.81-.31-1.2-.54-.47-.28-.94-.49-1.43-.74-.41-.21-.77-.5-1.19-.67-.37-.15-.68-.4-1.04-.57-.24-.11-.51-.07-.76-.14-.19-.05-.4-.14-.61-.16-.67-.09-1.38.02-2.04.05-.42.02-.9.31-1.07-.25-.04-.11-.03-.23,0-.34.06-.25.23-.49.39-.66.6-.67,1.38-1.23,1.78-2.06.21-.45.11-.93.11-1.4,0-.49,0-.98.03-1.46.09-1.83-.14-3.68-.14-5.51,0-1.06.03-2.11-.06-3.16-.11-1.37-.1-2.74-.17-4.12-.06-1.11-.17-2.23-.17-3.34,0-2.02-.29-3.96-.29-5.99,0-1.07-.03-2.14-.03-3.2,0-.49,0-.98-.03-1.45-.01-.29-.01-.58-.03-.86-.03-.64-.03-1.27-.05-1.91-.02-.72-.06-1.44-.06-2.16,0-1.75.02-3.49.02-5.24,0-1.16.02-2.37-.09-3.51-.09-.95-.15-1.92-.2-2.88-.01-.22-.04-.45-.11-.66-.07-.2-.19-.39-.25-.6-.03-.11-.07-.22-.13-.33-.06-.11-.14-.23-.23-.33-.2-.25-.36-.46-.63-.63-.27-.16-.56-.28-.8-.49-.31-.28-.57-.61-.82-.94-.17-.23-.33-.46-.4-.74-.02-.08-.03-.14-.04-.23,0-.08-.03-.16-.02-.24.01-.06.07-.11.12-.15.06-.04.08-.02.16,0,.06.02.13.02.19.03.06.02.12.03.19.04.07,0,.15.02.21.03.06,0,.11,0,.17.02.05.02.08.04.14.05.13.02.26.02.39.01.6-.04,1.13-.3,1.7-.46.08-.02.14-.06.21-.09.13-.06.3-.12.44-.04.13.07.24.19.35.28.16.13.32.2.51.27.12.05.27.05.4.04.13,0,.26,0,.4-.04.37-.09.75-.16,1.12-.26.57-.15,1.13-.31,1.69-.5.81-.29,1.65-.58,2.48-.7,1.28-.19,2.61-.52,3.91-.39.7.07,1.48.21,2.14.39.97.26,1.93.51,2.85.91.41.18.74.45,1.11.7.28.18.61.3.85.54.26.25.48.55.73.82.33.36.57.73.79,1.17.19.38.39.74.48,1.14.1.44.15.9.34,1.31.19.41.32.87.54,1.28.22.43.48.82.69,1.26.2.42.26.76.26,1.26,0,.35.11.68.11,1.03,0,.33-.12.65-.15.98-.11,1.08-.11,2.24-.44,3.28-.34,1.07-.72,2.25-1.24,3.24-.23.44-.42.88-.71,1.3-.32.47-.69.93-.96,1.43-.25.47-.51.97-.85,1.38-.25.3-.44.65-.73.91-.19.17-.36.39-.55.57-.1.09-.31.19-.31.35,0,.15.26.31.35.42.16.21.35.36.53.55.22.24.37.59.53.88.5.89.73,1.9,1.03,2.87.4,1.32.82,2.65,1.16,3.98.27,1.06.83,2.05,1.23,3.06.19.49.33,1.01.5,1.51.39,1.14.55,2.34,1.04,3.46.36.82.77,1.61,1.16,2.43.26.55.64,1.03,1.06,1.46.36.37.71.75,1.07,1.1.26.26.84.62,1.22.53.45-.12.69-.61.97-.93.3-.34.79-1.05.29-1.44-.06-.05-.15-.15-.23-.17-.11-.03-.25.06-.35.11-.12.07-.23.24-.25.38-.01.12.04.24.08.35.04.12.04.21.02.34,0,.05-.02.11-.06.15-.07.09-.2.15-.32.17-.13.02-.25-.05-.37-.09-.18-.06-.27-.08-.42-.21-.13-.12-.3-.18-.42-.32-.27-.32-.09-.9.05-1.26.24-.63.63-1.19,1.19-1.57.29-.2.53-.18.88-.23.44-.06.87-.2,1.31-.09.43.1.84.3,1.12.64.28.34.55.7.77,1.09.25.45.18.92.21,1.4.06.88-.13,1.73-.71,2.39ZM177.71,47.13c-.21-.98-.3-2.05-.34-3.06-.05-1.13-.09-2.14-.66-3.14-.22-.39-.59-.6-.95-.83-.34-.22-.67-.42-1.02-.63-.35-.21-.78-.31-1.18-.36-.35-.05-1.24-.15-1.5.21-.1.13-.09.44-.08.65,0,.04,0,.08,0,.12.02.5-.08,1-.06,1.5.03.91.07,1.83.07,2.74,0,1.63-.01,3.27.06,4.9.08,1.91-.03,3.84.06,5.74.01.31,0,.63,0,.94,0,.4-.09.83,0,1.23.16.6.69.27,1.1.11.93-.38,1.67-1.08,2.4-1.74.72-.65,1.29-1.55,1.61-2.45.16-.45.34-.86.4-1.34.06-.51.06-1.02.08-1.53.05-.99.21-2.08,0-3.05ZM148.04,85.38c-.05.13-.09.27-.09.41-.01.31.33.33.57.28.14-.03.27-.03.4-.08.15-.05.33-.07.49-.09.34-.06.68-.12,1.03-.16.69-.1,1.38-.17,2.07-.22,1.34-.11,2.68-.16,4.03-.22.92-.04,1.83-.03,2.75-.03.46,0,.88.02,1.33-.06.44-.08.85-.1,1.31-.1.15,0,.3.01.45.01.07,0,.14,0,.21-.01.07-.01.14-.05.21-.05.05,0,.09,0,.14,0,.06,0,.18,0,.22-.04-.02-.08-.04-.16-.07-.23-.13-.29-.4-.42-.63-.62-.23-.19-.57-.33-.84-.47-.42-.22-.73-.37-1.07-.73-.27-.28-.52-.57-.77-.86-.53-.61-.99-1.25-1.36-1.95-.86-1.62-.85-3.47-1.12-5.25-.14-.94-.26-1.9-.41-2.83-.14-.9-.14-1.79-.24-2.7-.1-.95-.15-1.96-.11-2.93.02-.46.08-.94.08-1.42,0-.51.06-.99,0-1.49-.06-.62-.07-1.23-.08-1.85,0-.37,0-.74,0-1.11,0-.9-.07-1.78-.03-2.67.05-.98-.1-1.93-.13-2.88-.02-.46-.03-.93-.03-1.39,0-.28-.05-.53-.07-.8-.06-.72-.06-1.5-.06-2.22,0-.41-.09-.81-.09-1.21,0-.39.04-.78.04-1.18,0-.89.07-1.78.15-2.66.21-2.11.88-4.07,1.07-6.2.09-1.01.05-2,.05-3.02,0-1.08.05-2.16.05-3.23,0-1,.07-1.99.22-2.94.07-.49.14-.97.16-1.47.02-.46.03-.91.18-1.35.04-.13.07-.16.21-.17.28-.02.57.01.85,0,.33-.02.65-.03.97-.02.97.05,2.01-.08,3.01-.13,1.06-.05,2.11.07,3.17.07.54,0,1.08,0,1.62-.03.72-.03,1.4.15,2.1.19.9.04,1.59.37,2.38.77.87.44,1.62.91,2.35,1.56.3.26.51.59.77.88.35.39.48.83.7,1.31.24.5.64.79,1.01,1.17.15.16.27.34.4.51.1.12.19.29.34.36.23.11.11-.43.09-.52-.06-.4-.2-.78-.26-1.18-.13-.88-.11-1.8-.29-2.67-.17-.84-.22-1.68-.35-2.54-.16-1-.41-2.05-.56-3.04-.07-.47-.11-.95-.13-1.42,0-.14-.04-.25-.05-.38-.02-.16-.02-.52-.1-.6s-.29-.02-.42-.02c-.13,0-.25,0-.38.02-.24.04-.49.09-.73.1-.58.03-1.1.06-1.66.11-1,.09-1.98.18-3,.21-1.09.04-2.18.19-3.28.19-1.02,0-2-.07-3.02-.08-1.03-.01-2.04.04-3.07.05-1.05.01-2.13-.04-3.18-.03-.53,0-1.08.02-1.6.05-.52.03-.94.12-1.44.19-.94.14-1.9.27-2.83.37-.48.05-.93.16-1.42.19-.89.04-1.79.16-2.68.04-.81-.11-1.75-.14-2.52-.38-.57-.18-1.17-.24-1.75-.38-.49-.12-.81-.38-1.35-.41-.35-.02-.7-.12-1.04-.14-.69-.04-1.43-.17-2.11-.13-.41.02-.84.02-1.26-.03-.36-.04-.74-.12-1.09-.22-.39-.11-.7-.31-1.1-.38-.52-.1-.98-.38-1.46-.56-.24-.09-.48-.19-.71-.29-.09-.04-.27-.12-.36-.02-.06.07,0,.27,0,.36,0,.23.06.44.07.66.01.27,0,.53,0,.8,0,.54.06,1.07.09,1.6.03.58-.1,1.1-.14,1.66-.04.5-.04,1-.11,1.49-.1.68-.18,1.35-.21,2.05-.02.57-.08,1.17-.14,1.74-.04.36-.14.71-.17,1.08-.01.12-.02.25-.03.38,0,.11-.02.24-.02.35-.03.37.64-.12.72-.19.33-.27.6-.6.93-.88.7-.58,1.07-1.37,1.58-2.1.55-.78,1.48-1.45,2.39-1.68.46-.12.96-.2,1.42-.27.49-.08.95-.25,1.44-.39.63-.19,1.37-.17,2.05-.23.51-.04,1.03-.03,1.55-.03,1.25.01,2.57.25,3.77.46.2.04.39.08.57.16.15.07.37.01.49.16.14.17.11.51.13.72.03.31-.06.62-.02.94.17,1.24.17,2.47.17,3.74,0,.52,0,1.03.06,1.54.08.79-.02,1.66-.02,2.47,0,.99-.04,1.97-.03,2.96,0,2.03-.11,3.97-.11,5.99,0,1.92.22,3.83.11,5.77-.15,2.75-.4,5.5-.41,8.25-.01,2.55.31,5.08.05,7.62-.09.93-.04,1.9-.04,2.85,0,1.94-.08,3.92.11,5.82.19,1.93.15,3.85.06,5.77-.04.96-.26,1.87-.63,2.75-.04.1-.09.21-.12.31-.04.12-.07.22-.13.33-.05.1-.1.18-.14.29-.02.06-.05.13-.07.2ZM125.1,48.41c.22.38.34.81.5,1.21.37.93.98,1.73,1.38,2.64.3.67.58,1.34.83,2.03.21.6.44,1.22.61,1.84.08.31,0,.62-.07.93-.07.33-.09.63-.2.95-.23.64-.6,1.22-.97,1.79-.28.44-.44.97-.66,1.45-.26.58-.51,1.21-.87,1.74-.7,1.04-1.08,2.19-1.59,3.32-.52,1.17-.95,2.39-1.57,3.5-.63,1.12-1.04,2.36-1.69,3.45-.24.41-.55.77-.79,1.19-.24.4-.39.65-.8.88-.36.2-.78.21-1.17.31-.17.04-.37.05-.51.14-.25.16-.29.45-.37.71-.09.25-.13.49-.19.75-.09.4-.07.62.35.65.48.03.95.11,1.43.07.6-.06,1.09-.38,1.7-.4.7-.02,1.38.15,2.08.15.86,0,1.68.19,2.52.31.3.04.5.18.74.36.24.18.5.27.77.39.48.21.6-.04.86-.4.13-.18.3-.34.45-.5.12-.12.34-.2.3-.41-.03-.11-.28-.32-.37-.41-.26-.26-.6-.43-.86-.69-.2-.19-.51-.39-.66-.61-.37-.55-.04-1.61.16-2.17.29-.83.69-1.62.97-2.47.58-1.73,1.79-3.18,2.6-4.81.36-.73.66-1.5,1.01-2.26.16-.35.39-.65.58-.98.08-.14.52-1.03.75-.86.08.06.11.23.14.32.28.67.23,1.39.43,2.09.23.83.5,1.76.89,2.53.81,1.58,1.13,3.33,1.57,5.03.21.8.61,1.5.89,2.27.09.26.14.53.2.8.12.47.36.91.48,1.38.13.52.02,1.06-.04,1.59-.06.5-.07,1.02-.18,1.49-.09.38-.15.77-.22,1.14-.07.35.04.75.22,1.05.18.3.55.54.89.33.15-.09.26-.24.42-.32.15-.08.26-.21.4-.31.72-.54,1.52-.84,2.29-1.29.87-.51,1.81-.84,2.69-1.28.42-.21.72-.27,1.18-.33.28-.03.56-.11.84-.14.24-.02.48-.02.72-.04.12-.01.24-.02.36-.03.2-.01.42-.05.46-.28.06-.28.1-.71-.13-.93-.24-.23-.51-.42-.74-.65-.24-.23-.45-.48-.67-.73-.25-.3-.41-.66-.62-.97-.27-.39-.49-.78-.69-1.21-.4-.86-.66-1.75-1.07-2.62-.39-.84-.65-1.77-1.06-2.6-.19-.37-.33-.76-.62-1.07-.53-.57-.96-1.17-1.34-1.85-.42-.77-.95-1.47-1.39-2.23-.4-.69-.8-1.42-.96-2.18-.18-.9-.12-1.88-.47-2.74-.16-.4-.39-.78-.51-1.18-.12-.41-.27-.84-.45-1.23-.14-.32-.36-.65-.39-1-.02-.21.13-.51.21-.7.1-.24.2-.46.28-.71.18-.52.44-1.01.69-1.49.27-.51.52-1.08.72-1.62.3-.81.69-1.59,1.08-2.37.42-.85.68-1.79,1.01-2.67.29-.79.65-1.55.94-2.33.31-.84.61-1.67.9-2.53.26-.78.57-1.6,1-2.31.11-.17.32-.33.49-.45.32-.22.76-.37,1.14-.45.21-.05.42-.04.62-.1.14-.04.35-.07.45-.18.1-.11.16-.44.18-.58.03-.19.03-.37.02-.56,0-.12.04-.34-.08-.42-.11-.07-.29,0-.42-.02-.14-.01-.27,0-.41,0-.58.05-1.15.09-1.73.12-.45.02-.9.07-1.36.05-.43-.02-.79-.12-1.22-.15-.42-.02-.83-.12-1.25-.12-.24,0-.5.02-.73-.07-.1-.04-.16-.12-.26-.18-.11-.07-.23-.09-.34-.15-.15-.09-.31-.21-.46-.31-.17-.12-.31-.29-.46-.42-.12-.1-.23-.21-.35-.31-.1-.09-.22-.25-.37-.21-.06.02-.13.14-.16.19-.09.15-.19.29-.27.44-.19.36-.33.8-.06,1.15.15.19.31.36.46.54.13.15.31.28.42.44.33.46.18,1.06.15,1.58-.03.62-.08,1.25-.28,1.85-.26.8-.44,1.62-.74,2.38-.32.82-.64,1.61-.89,2.45-.23.79-.53,1.53-.85,2.28-.18.41-.38.81-.52,1.23-.08.23-.31.99-.61.84-.13-.06-.3-.57-.36-.76-.17-.64-.47-1.25-.7-1.87-.27-.71-.48-1.44-.81-2.12-.4-.83-.74-1.66-1.12-2.5-.36-.79-.65-1.6-1.1-2.34-.43-.7-.84-1.38-1.21-2.1-.4-.77-.34-1.37.04-2.15.16-.34.43-.48.65-.77.24-.31-.08-.64-.26-.91-.22-.32-.46-.53-.74-.81-.31-.3-.53-.3-.91-.06-.5.32-.91.73-1.35,1.13-.41.37-.81.74-1.2,1.13-.26.26-.53.42-.82.63-.39.28-.77.53-1.24.67-.36.11-.65.23-.96.46-.74.56-1.68.72-2.58.81-.22.02-.37-.02-.44.22-.06.19.05.38.12.54.14.32.27.64.61.79.38.17.88,0,1.2.34.18.18.29.5.44.71.16.24.33.48.47.73.2.36.47.63.67.98.48.81,1.02,1.59,1.5,2.4.25.43.45.88.68,1.31.29.55.59,1.09.94,1.61.26.39.5.79.74,1.19ZM118.71,62.44c-.18,1.31-.12,2.67-.31,3.96-.19,1.26-.45,2.58-.84,3.81-.19.6-.49,1.12-.77,1.67-.25.5-.39,1.03-.63,1.53-.5,1.06-1.14,2.03-1.79,3.04-.33.5-.62,1.03-1.08,1.43-.45.39-.9.75-1.32,1.15-1.11,1.04-2.27,1.66-3.62,2.35-1.28.66-2.57.43-3.96.43-.92,0-1.88.1-2.77-.18-.85-.27-1.59-.74-2.37-1.16-.49-.26-.98-.62-1.37-1.02-1.08-1.1-2.12-2.29-2.96-3.59-.53-.82-1.11-1.55-1.49-2.47-.28-.68-.6-1.36-.9-2.05-.49-1.13-.67-2.24-1.12-3.35-1.19-2.92-.87-6-.71-9.07.08-1.53.29-3.07.63-4.53.16-.68.13-1.41.26-2.11.16-.82.37-1.63.64-2.41.24-.71.35-1.45.63-2.16.26-.65.55-1.29.85-1.93.75-1.63,1.83-3.02,2.88-4.47.73-1.01,1.33-2.1,2.25-2.94.88-.81,1.9-1.41,3.03-1.81.63-.22,1.38-.21,2.05-.15.64.06,1.27.22,1.91.12.95-.16,1.71,0,2.55.44.42.23.78.51,1.17.81.94.71,1.8,1.36,2.61,2.23.35.38.65.81.99,1.22.38.47.8.87,1.21,1.3.76.81,1.29,1.88,1.91,2.8.45.67.94,1.23,1.29,1.96.6,1.26,1.18,2.62,1.37,3.99.19,1.41-.11,2.84-.04,4.26.03.67.04,1.34.11,2.02.16,1.63-.08,3.25-.3,4.87ZM110.91,60.3c.01-.75-.12-1.48-.12-2.25,0-1.62.08-3.17-.16-4.8-.1-.65-.24-1.3-.37-1.94-.06-.32-.06-.63-.11-.95-.22-1.45-.55-2.76-1.18-4.11-.56-1.2-1.17-2.5-2.02-3.51-.64-.76-1.16-1.93-2.32-1.93-1.43,0-2.34,1.12-2.89,2.38-.26.59-.43,1.22-.53,1.77-.11.57-.13,1.18-.27,1.75-.32,1.34-.81,2.62-.95,3.99-.14,1.26-.26,2.56-.38,3.81-.09.9-.23,1.77-.37,2.66-.14.87-.17,1.87-.08,2.74.09.84.03,1.67.11,2.51.05.64.08,1.29.11,1.94.02.52.08,1.04.08,1.56,0,1.7.29,3.27.87,4.88.29.81.91,1.37,1.41,2.06.25.34.56.59.8.92.28.37.44.82.62,1.24.34.76.81,1.63,1.63,1.98.33.14.64.18.99.19.71.03,1.25.15,1.75-.11.45-.23.89-.81,1.03-1.52.11-.56.21-1.12.39-1.67.29-.91.69-1.74.81-2.7.07-.56.21-1.1.36-1.65.17-.65.37-1.31.5-1.97.12-.61.1-1.27.14-1.91.03-.56-.05-1.12-.07-1.68-.02-.62.17-1.2.19-1.82.03-.62.03-1.27.04-1.87ZM89.13,69.13c-.02,1.78-.42,3.41-.89,5.12-.44,1.58-.61,3.35-1.41,4.8-.31.57-.54,1.19-.83,1.77-.2.41-.34.87-.62,1.24-.27.37-.62.68-.9,1.04-.61.81-1.16,1.6-1.96,2.25-.34.28-.46.59-.71.93-.32.43-.75.81-1.12,1.2-.42.44-.92.76-1.36,1.15-.4.36-.78.66-1.26.88-.49.23-.94.47-1.46.64-.3.09-.59.22-.89.31-.74.22-1.47.47-2.21.7-2,.64-4.07.57-6.04,1.19-1.82.56-3.7.04-5.6.17-1,.07-1.92.4-2.85.64-.95.25-1.94.3-2.91.5-1.04.21-2.12.28-3.18.2-.57-.04-1.11-.15-1.66-.26-.46-.09-.79-.32-1.19-.56-.34-.21-.65-.48-.96-.73-.28-.23-.59-.4-.89-.59-.19-.12-.36-.26-.54-.41-.38-.3-.78-.79-.94-1.25-.27-.77-.07-1.83.06-2.62.13-.79.47-1.48,1.08-2.05.73-.69,1.49-.88,2.44-.62.36.1.77.14,1.1.33.28.16.59.47.77.74.15.22-.06.46-.13.67-.05.14-.1.29-.15.43-.1.31-.11.86-.3,1.13-.05.06-.07.1-.18.08-.25-.05-.67-.23-.93-.02-.2.16-.21.51-.14.74.27.81.97,1.2,1.61,1.67.45.33.88.68,1.45.72.65.06,1.34,0,1.98-.15.67-.16,1.04-.46,1.61-.83.33-.21.6-.51.82-.83.2-.3.31-.63.43-.97.74-2.12.59-4.42.92-6.62.13-.91.17-1.86.17-2.8s.21-1.79.4-2.68c.19-.87.18-1.81.41-2.67.14-.53.37-1.04.45-1.58.09-.57-.09-1.07-.11-1.65-.08-1.86-.13-3.72-.24-5.58-.13-2.08-.83-4.17-.74-6.34.04-.93.06-1.87.08-2.8.06-2.81.08-5.63.03-8.44-.01-.73-.06-1.44-.06-2.18v-4.34c0-.32.03-.63.03-.94,0-1.07,0-2.13-.05-3.21-.07-1.26-.15-2.52-.15-3.78,0-1.91.17-3.96-.44-5.71-.29-.83-.76-1.43-1.39-2.06-.3-.3-.65-.57-.92-.91-.13-.17-.2-.35-.3-.53-.07-.14-.09-.34,0-.49.06-.08.22-.08.34-.08.63.01,1.24-.09,1.88,0,.8.11,1.53.15,2.34.11.96-.05,1.89.01,2.86-.03.52-.03,1.02-.11,1.55-.04.4.06.8-.01,1.19.07.39.08.79.15,1.19.24,1.82.39,3.47,1.08,5.36,1.15,1.78.07,3.78-.47,5.48-.12.74.15,1.62.6,2.33.87.72.27,1.48.71,2.17,1.09,1.42.79,2.83,2.2,3.83,3.48.55.71.94,1.48,1.16,2.32.28,1.07.16,2.16.27,3.26.19,1.85.21,3.7-.15,5.49-.36,1.79-1.06,3.49-1.71,5.2-.54,1.4-1.5,2.59-2.54,3.64-.44.45-.94.79-1.39,1.23-.43.43-.79.94-1.28,1.31-.3.23-.63.43-.92.68-.21.19-.51.47-.62.74-.14.34.4.8.62.98.58.47,1.24.73,1.87,1.11,1.41.86,2.38,2.26,3.28,3.58.53.77,1.35,1.25,1.87,2,.47.67.94,1.51,1.15,2.28.47,1.75.65,3.57.63,5.39ZM67.89,33.51c.04.79.03,1.61,0,2.4-.04.86.05,1.72.07,2.58.05,2.22.23,4.44.13,6.67-.08,1.76-.03,3.52-.03,5.28,0,.57,0,1.14,0,1.7,0,.23-.07.51.1.69.17.19.46.15.67.14,1.07-.04,2.33-.47,3.34-.94.67-.31.99-.99,1.47-1.51.53-.57,1.06-1.13,1.48-1.76.73-1.1,1.36-2.15,1.86-3.38.2-.49.44-.99.51-1.5.1-.74.27-1.49.39-2.23.29-1.69.16-3.52.39-5.21.07-.54.07-1.13.07-1.67,0-.62-.16-1.05-.36-1.64-.4-1.2-.49-2.29-1.51-3.17-.42-.37-.98-.75-1.47-1-.39-.2-.85-.19-1.28-.23-.43-.04-.79-.15-1.19-.31-.28-.11-.6-.09-.88-.21-.55-.23-.96-.27-1.56-.29-.18,0-.38-.02-.57-.03-.35-.01-1.03-.07-1.28.25-.1.13-.13.33-.16.46-.09.4-.09.84-.13,1.25-.12,1.19-.13,2.44-.07,3.65ZM79.66,68.81c-.02-.72-.04-1.45-.06-2.16-.02-.64-.41-1.2-.58-1.81-.15-.52-.3-1.13-.57-1.61-.19-.34-.53-.54-.83-.79-.34-.28-.56-.68-.88-.97-.48-.43-.89-.95-1.43-1.32-.43-.29-.72-.8-1.17-1.05-.46-.26-1.11-.21-1.63-.21-.57,0-1.06.1-1.6.13-.29.02-.55.02-.84.07-.27.04-.59.11-.9.22-.37.12-.76.23-1.11.39-.08.04-.15.08-.23.12-.32.2-.17.65-.2.95-.04.41-.02.82-.03,1.23-.03.81.06,1.62.06,2.44,0,2.24.11,4.51-.11,6.74-.23,2.27-.12,4.66-.23,6.95-.09,1.95.02,3.99.11,5.95.03.67.02,1.3.1,1.97.07.6.19.99.83.99.55,0,1.11-.19,1.62-.37.89-.31,1.83-.66,2.64-1.15.88-.53,1.64-1.21,2.37-1.94.58-.58.97-1.28,1.3-2.01.4-.9.86-1.75,1.31-2.63.43-.85.71-1.89,1.04-2.8.35-.96.58-1.96.77-2.92.29-1.45.3-2.93.26-4.4ZM45.5,48.99c.03.15.09.3.19.43.16.21.5.08.52.42.02.32,0,.64-.02.96-.05.82.07,1.64.02,2.46-.05,1.02-.08,2.02-.09,3.05,0,.47.06.93.09,1.4.06,1.16-.14,2.32-.2,3.48-.05,1.01-.03,2.03-.09,3.06-.02.41-.04.9-.31,1.23-.11.14-.31.26-.39.42-.05.11.02.32.07.42.04.09.12.18.22.22.19.08.42-.02.61-.08.46-.14.78-.17,1.28-.17.87,0,1.79-.07,2.65.03.46.05.87.25,1.31.31.45.06.98.05,1.43.06.44,0,.88-.08,1.29-.17.18-.04.36,0,.53-.02.18-.02.34-.07.52-.11.07-.02.17-.05.21-.11.03-.05.05-.09.05-.15,0-.06.04-.19,0-.53-.02-.23-.07-.45-.09-.68-.02-.28-.02-.55.01-.83.02-.16.07-.27.06-.43,0-.12,0-.21,0-.33,0-.07,0-.18-.07-.22-.2-.1-.54.31-.67.43-.4.37-.56.86-1.11,1.07-.53.2-1.14.05-1.68.02-.28-.02-.5-.06-.76-.12-.49-.12-.99-.2-1.46-.4-.12-.29-.02-.73-.03-1.05-.02-.35-.05-.7-.03-1.06.02-.39.09-.78.09-1.17,0-.94-.02-1.88-.03-2.82,0-.28-.09-.7.2-.89.3-.2.54,0,.78.17.26.18.45.4.61.67.08.12.18.23.26.36.05.08.15.38.22.43.14.1.52-.02.63-.14.24-.29.11-.94.08-1.28-.04-.42-.03-.85-.05-1.27,0-.24.01-.49,0-.73,0-.16.07-.35-.08-.47-.09-.07-.21-.09-.32-.13-.11-.04-.22-.08-.34-.03-.12.05-.19.24-.29.32-.33.27-1.36.68-1.65.12-.08-.17,0-.48,0-.68-.04-.83.03-1.63.03-2.46,0-.52.02-1.04-.06-1.55-.04-.27-.27-.85-.04-1.09.1-.1.46-.05.61-.05.23,0,.44-.02.66-.03.77-.04,1.69.51,2.12,1.16.08.12.1.26.15.39.05.14.15.26.21.4.06.14.06.32.23.37.1.03.18-.01.27-.03.06-.01.13,0,.19-.04.1-.06.11-.18.1-.29,0-.22-.05-.44-.05-.66,0-.33-.02-.64,0-.97.02-.3.06-.58.09-.88.03-.34.22-.7-.05-.89-.33-.23-.82-.17-1.2-.17-.5,0-1.01-.1-1.51-.06-.47.04-.93.22-1.4.23-.63,0-1.28-.08-1.91-.04-.58.03-1.16.07-1.74.04-.19,0-.86-.15-.9.17-.02.15,0,.31-.02.46-.01.17,0,.35.03.51ZM34.03,48.66c.04.15.18.27.3.36.22.17.36.35.5.59.25.43.2.98.2,1.48,0,1.05.03,2.09.03,3.16,0,1.11-.05,2.23-.16,3.32-.1,1-.08,2.01-.28,2.95-.2.96-.2,2.03-.35,3-.06.43-.01.87-.09,1.3-.03.16-.06.31-.17.44-.1.11-.23.19-.32.31-.11.14-.23.24-.37.35-.15.12-.26.39-.02.5.14.06.39-.07.53-.11.39-.11.81-.14,1.2-.2.38-.06.83-.03,1.19.11.54.21,1.41.65,1.71-.14.06-.16-.04-.23-.16-.34-.17-.16-.33-.23-.4-.45-.09-.3-.12-.57-.1-.88.02-.33.05-.65.12-.98.13-.58.16-1.15.22-1.74.11-1.11.32-2.17.32-3.29,0-.56.14-.63.7-.63.24,0,.48,0,.73,0,.38,0,1.03-.21,1.33.1.2.21.18.68.18.94.01.75-.16,1.5-.15,2.25,0,.84-.08,1.68-.1,2.52,0,.3-.06.59-.08.89-.01.25.06.51-.05.73-.09.19-.34.37-.49.53-.14.14-.38.25-.39.47,0,.08.02.23.04.32.03.14.07.14.21.16.24.04.51.1.76.07.52-.05,1.06-.03,1.6-.07.61-.05,1.2-.03,1.81-.03.2,0,.5,0,.66-.1.16-.1.16-.28.2-.44.04-.15.08-.28-.07-.39-.1-.08-.21-.12-.31-.2-.1-.08-.17-.14-.29-.2-.27-.14-.42-.34-.63-.54-.09-.08-.13-.13-.16-.24-.04-.17-.02-.33,0-.5.06-1.27-.06-2.51.06-3.77.05-.57.07-1.15.13-1.71.05-.53.32-.97.35-1.49.05-.93.04-1.86.03-2.79,0-1.14.11-2.28.05-3.41-.02-.3-.04-.61-.04-.91,0-.24-.03-.45.1-.65.07-.11.17-.19.26-.28.07-.07.15-.11.22-.18.08-.09.12-.18.17-.28.04-.07.14-.16.09-.25-.08-.14-.28-.04-.39-.02-.18.03-.36.09-.54.13-.14.03-.28.06-.42.08-.29.04-.59,0-.88.03-.28.02-.57.07-.85.01-.33-.07-.65-.15-.99-.21-.11-.02-.22-.07-.33-.08-.16-.01-.17.09-.25.2-.04.06-.12.13-.08.21.02.04.12.09.16.11.1.06.21.11.3.19.21.19.39.32.47.6.07.25.13.46.13.72,0,.26,0,.52.01.78,0,.2.06.38.07.58.02.56-.03,1.13-.04,1.7-.02.72-.09,1.44-.09,2.15,0,.12-.03.21-.04.32-.01.14.03.19-.12.23-.2.04-.42-.1-.6-.16-.36-.11-.77-.17-1.14-.19-.28-.01-1.07.13-1.17-.24-.13-.48-.03-.98-.06-1.47-.05-.94-.03-1.87-.03-2.83,0-.54-.05-.87.29-1.28.19-.24.37-.5.59-.72.2-.19.63-.3.72-.57.03-.1.12-.36.04-.45-.09-.11-.46-.01-.58.03-.09.03-.18.08-.27.11-.26.11-.53.09-.8.13-.33.05-.66.08-1,.06-.45-.03-.87-.22-1.3-.31-.32-.06-.68-.28-1.01-.25-.22.02-.59.39-.65.6-.02.05-.01.11,0,.15ZM29.66,65.81c.03-.09.04-.18,0-.24-.06-.1-.2-.12-.31-.14-.06-.01-.18-.05-.24-.06-.33-.08-.66-.36-.67-.71-.01-.33-.07-.65-.05-.99.02-.39.05-.79.05-1.18,0-.65-.4-1.16-.42-1.81-.01-.32-.02-.64-.02-.97,0-.45-.03-.94.07-1.38.11-.45.22-.9.38-1.34.11-.29.22-.59.26-.9.04-.33.02-.67.09-1,.05-.27.07-.56.1-.84.03-.31.07-.61.09-.91.03-.67.18-1.33.18-2,0-.43-.12-.72.41-.83.35-.07.76-.03,1.1.07.3.09.63.07.89.24.12.08.19.21.28.33.09.13.21.19.34.28.05.04.11.04.17.05.14.02.37.09.49-.02.07-.06.04-.14.03-.22-.01-.11-.02-.23-.01-.34,0-.1-.01-.2,0-.3.03-.34.05-.68.12-1.01.05-.26.1-.5.15-.76.07-.33.04-.5-.31-.53-.22-.02-.44.02-.65.05-.38.06-.73.23-1.09.34-.35.1-.69.13-1.05.18-.33.04-.66-.03-.99.02-.32.05-.66.1-.99.13-.17.02-.33.01-.5.02-.21,0-.39.08-.59.09-.83.07-1.68-.02-2.51-.06-.4-.02-.81.04-1.2,0-.32-.03-.6-.15-.93-.17-.16,0-.42-.1-.57-.01-.23.13-.09.59-.08.81.02.27.03.53.05.8.02.19-.26,1.63-.05,1.69.1.03.23.03.33,0,.21-.07.45-.29.63-.42.23-.16.38-.33.63-.46.26-.13.49-.23.77-.28.3-.06.67-.01.98-.01.32,0,.74-.08,1.03.07.23.12.29.49.27.72-.01.2,0,.39-.02.59-.01.22-.01.44-.01.67,0,.67.03,1.35,0,2.02-.07,1.37.07,2.73,0,4.11-.03.5-.03.98-.08,1.47-.02.16-.01.33-.04.49-.06.39-.08.78-.1,1.18-.03.64-.28,1.16-.28,1.81,0,.59.05,1.08-.33,1.58-.14.18-.28.35-.43.51-.09.09-.06.14-.04.25.01.09.03.17.03.27,0,.12.05.17.09.27.11.03.33-.12.42-.18.14-.08.3-.16.46-.2.1-.02.2-.05.3-.07.19-.05.37-.15.56-.18.18-.03.34-.06.52-.08.44-.03.88-.01,1.31-.01.17,0,.34.03.5.03.13,0,.22.04.3-.1.04-.07.09-.13.12-.2.02-.06.06-.13.08-.21Z
                            " class="cls-1" />
                    </svg>