 <svg xmlns="http://www.w3.org/2000/svg">
                        <path 
                            d="M89.26,6.62c2.67,0,5.35.1,8.02.3,2.95.22,6.37.35,9.15,1.61.57.26,1.4.64,1.64,1.27.06.16.36,1.31-1.2,2.26-.51.31-1.02.35-1.62,1.29-.6.94-1.76,2.14-2.55,2.71-.83.61-2.03,2.35-3.2,2.16-2.1-.33-.24-3.78.3-4.8.36-.68.72-1.31.96-1.7.14-.24.05-.57-.21-.65-2.8-.81-8.97-1.95-15.79-1.95-3.99,0-10.8.79-14.49,1.95-6.69,2.1-15.51,7.63-18.48,19.59-.56,2.27-.77,4.71-.77,7.2,0,9.37,3.76,19.73,12.94,27.26,11.39,9.33,22.41,7.96,38.91,13.51.14.05.13.26-.02.29-.4.07-1.54.03-2.06.03-2.48,0-6.15-.1-13.5-.82-16.83-1.65-33.02-9.49-40.01-20.6-3.45-5.48-5.58-13.07-5.58-19.64,0-7.19,2.39-14.32,6.51-19.18,5.54-6.54,14.51-9.66,22.64-10.92,5.3-.82,12.17-1.18,18.42-1.18ZM125.41,49.09c-1.35,0-2.96-.15-4.15.61s-2.29,2.18-3.1,3.36l-.09.13-.12-.1c-2.8-2.3-4.59-3.51-6.02-3.51-.65,0-1.65.2-1.67,1.04-.02,1.25,1.41,2.03,2.18,2.81,1.06,1.07,2.02,2.35,2.64,3.73.58,1.28.93,2.41.93,4.46,0,.93-.06,1.86-.2,2.78-.21,1.43-.88,3.53-.24,4.94.53,1.18,2.05,1.74,3.29,1.68,2.44-.13,2.9-2.45,3.1-4.5.22-2.11.07-6.09,1.02-7.79.52-.92,1.01-2.08,1.86-2.75,1.01-.8,2.4-.86,3.61-.56,1.31.33,2.51,1,3.89,1,1.54,0,2.06-1.14,2.2-2.4.15-1.37-.64-2.33-1.8-2.95-2.31-1.24-3.76-1.96-7.3-1.96-.01,0-.03,0-.04,0ZM162.71,70.7c.13-.06.24-.14.33-.25.52-.63-.17-1.61-.45-2.21-1.33-2.8-2.76-5.22-3.61-7.66-.79-2.26-1.01-6.67-1.93-8.88-.31-.75-.71-1.5-1.33-2.05-.51-.45-1.23-.75-1.86-.97-1.84-.65-3.83-.52-5.61.26-4.61,2.02-9.13,7.07-11.73,10.92-1.64,2.42-2.97,4.86-2.97,6.78,0,1.53.66,2.79,2.71,3.52.51.19,1.42.38,4.03.38,4.74,0,7.03-.72,8.14-1.77,1.53-1.42,3.47-3.94,4.09-6.56.04-.19.24-.49.3-.21.65,3.02,1.62,6.98,5.11,8.38.96.38,2,.48,3.02.45.49-.01,1.24.1,1.75-.13ZM147.62,61.49c-.61,1.8-1.67,3.44-2.99,4.81-.49.5-.97.8-1.69.82-.93.02-2.11-.1-2.63-.98-.16-.27-.27-.61-.23-.97.15-1.67,1.37-4.1,3.66-6.19,2.09-1.91,4.57-2.97,5.62-3.45.15-.07.26-.01.15.28,0,0-1,3.1-1.88,5.69ZM194.61,57.69c-.07-1.66.6-2.96.6-5.17,0-.5-.04-1.05-.12-1.63-.38-2.45-.93-3.92-2.91-4.11-1.12,0-2.08,1.82-2.59,3.52-.34,1.15-1.21,3.09-1.17,7.66.01,1.66.15,3.39.51,5.76.8,5.25,4.3,6.97,7.43,6.98,2.07,0,3.89-.95,4.5-2.44.39-.95.55-1.73.55-2.34,0-1.1-.48-1.64-1.07-1.76-1.14-.23-5.54-2.76-5.7-6.46ZM193.07,43.5s.02,0,.03,0c2.04,0,3.99-1.09,4.26-2.06.12-.38.17-.82.17-1.28,0-1.72-.72-3.77-1.22-4.76-.6-1.2-1.57-2.11-2.76-2.11-.04,0-.08,0-.12,0v-.15s0,.15,0,.15c-.9.04-1.89.92-2.65,2.08-.76,1.16-1.3,2.59-1.37,3.64-.02.26-.03.51-.03.76.02,1.82.49,3.18,2.59,3.61.36.07.74.11,1.11.11ZM217.32,48.64c-3.28.48-3.6,2.19-4.47,3.65l-.11.07c-.06,0-.13,0-.21,0-.17,0-.28,0-.51,0-1.25.01-3.22.2-4.04,3.07-.93,3.3-1.49,7.2-1.61,8.93-.07,1-.17,1.93-.17,2.42,0,.41.43.54.62.54,1.21,0,2.43-.48,3.7-3.29.7-1.57,2.39-4.79,3.42-5.69.38-.32.88-.54,1.46-.54,1.05,0,2.02.79,2.48,2.84.46,2.06,1.22,5.75,2.44,8.49,1.37,3.1,3.71,4.25,5.24,4.25.49,0,.91-.13,1.18-.34.64-.5,1.23-1.88,1.23-4.37,0-1.96-.21-4.15-1.13-7.59-1.99-7.43-4.92-12.47-8.88-12.47-.21,0-.41.01-.62.04ZM263.31,53.54c-.56,0-1.13.08-1.66.22-1.79.5-2.23.92-3.87.92-.19,0-.4,0-.62-.02h-.1s-.03-.1-.03-.1c-.9-2.5-3.49-5.27-7.24-6.05-1.18-.24-2.62-.51-4.19-.51-2.45,0-5.27.42-7.91,3.04-1.99,1.97-3.29,5-3.29,8.25,0,3.25,1.09,6.46,3.42,8.31,2.89,2.3,6.38,3.78,8.82,3.78,1.54-.01,2.6-.57,2.91-1.86.06-.24.09-.49.08-.75,0-1.81-1.38-3.91-3.8-4.02-.05,0-.1,0-.15,0-.75,0-1.49.24-2.06.48-.56.24-.92.48-.93.48l-.08.06-.08-.06s-2.78-2.25-2.86-4.42c-.02-.43-.02-.89.16-1.33l.04-.1h.11c2.44.25,6.81.27,10.93.27s8.16-.26,10.01-.7c2.39-.57,3.44-.91,4.28-1.41.83-.51,1.07-1.06,1.08-2.12,0-.14,0-.28-.01-.43-.07-1.33-1.43-1.92-2.99-1.93ZM240.84,55.73c-.25,0-.15-.37-.09-.48.49-.77,2.11-3.6,4.98-3.6,2.19,0,4.03,2.85,4.68,3.78.09.13,0,.3-.15.3,0,0-8.48,0-9.43,0ZM104.22,68.5c-1.1.78-3.11,1.47-5.28,1.53-2.35-.07-4.61-.33-6.1-1.55-3.5-2.87-3.82-5.86-3.81-7.7,0-1.68-.05-3.65.95-6.22.87-2.23,3.98-6.07,8.84-6.07,1.4.05,3.34.39,4.24,1.11,1.85,1.51,3.98,6.15,4.35,8.36,1.04,6.26-.82,8.89-3.18,10.54ZM93.43,57.44c.11.35.89,1.46,2.12.71,1.1-.67.8-2.07.07-2.72-.37-.33-1.38-.71-1.77-.25-.78.92-.53,1.91-.42,2.26ZM94.98,61.62c-1.55.07-1.98,1.55-1.62,2.33.35.78,2.12,1.98,3.04.99.92-.99.64-3.41-1.41-3.32ZM101.57,62.52c-1.33.17-1.77,1.61-1.48,2.26.57,1.27,2.05,1.55,2.9.21.84-1.34-.14-2.63-1.41-2.47ZM101.88,54.89c-2.5.19-1.45,2.08-.99,2.54.57.57,2.33.86,2.68-.92.21-1.06-.78-1.7-1.7-1.62ZM98.71,71.76c-3.84-.04-7.88-1.23-10.29-4.34-2.91-3.75-1.74-9.44-.44-13.61,1.45-4.64,5.47-6.85,10.1-7.44,1.93-.24,4.24.09,6.02,1.4,2.35,1.74,4.88,6.02,5.34,11.25.95,10.7-4.89,12.79-10.73,12.73ZM107.93,58.17c-.67-2.99-2.42-7.42-4.32-8.97-1.08-.88-2.74-1.47-4.45-1.41-4.51,0-7.76,2.99-8.81,5.1-1.59,3.2-1.77,5.57-1.79,8.19-.02,2.79.69,5.28,3.69,7.75,1.55,1.27,4.03,1.96,6.61,1.95,1.98.02,4.5-.59,6.15-1.95,2.25-1.86,4.1-5.35,2.91-10.65ZM193.01,96.48c-3.25-2.73-7.66-4.95-7.66-4.95.58-.11,1.17-.33,1.37-.42.2-.09,1.73-1.06,2.13-2.18.4-1.12.26-2.54-.02-3.27-.28-.73-1.36-2.89-1.6-3.38-.38-.76-.59-2.24-.71-2.71-.12-.47-.21-2.35-.28-2.24-.07.12-1.09,1.86-1.62,3.19-.42,1.06-1.06,1.57-1.32,1.66-.26.09-.92.09-.92.09-1.81-3.81-1.46-7.82-1.48-8.03-.02-.21.02-.28.02-.28,1.37-1.86,1.18-4.99.28-7.04-.89-2.05-3.67-3.44-4.07-3.58-.4-.14-.45-.31-.45-.31-.06-.49-.6-5.93-.58-8.71.02-3.62.34-7.62.46-9.16.21-2.73,1.3-8.69,1.72-10.53.21-.93,1.16-4.68,2.29-8.08,1.09-3.3,2.34-6.27,2.45-6.59.21-.64,2.66-5.79,2.92-6.24.26-.45-.16-1.46-.28-1.55-.12-.09-.99-.89-1.22-1.18-.24-.28-.97-.51-1.44-.57-1.3-.14-2.99,1.58-5.6,7.13-1.38,2.93-3.23,9.13-4.35,15.12-1,5.36-1.32,10.61-1.4,12.05-.08,1.52-.07,5.92.28,10.03.36,4.16,1.05,8.02,1.11,8.22.12.4.05.68.05.68-3.25,1.72-2.38,7.04-2.02,10.08.35,3.04,3.09,10.1,3.23,10.38.14.28.12.45.12.45-2.07,2.73.71,6.22,1.01,6.52.3.31.12.52.12.52-.8.09-3.27,1.52-3.39,1.63-.12.12-.35.24-.21.46.15.23.42.03.42.03.38-.29.97-.68,1.47-.93.95-.48,1.81-.75,1.81-.75v.75s-3.12,1.94-3.33,2.06c-.21.12-.14.25-.14.25.1.14.27,0,.27,0,.16-.12,1.04-.7,1.82-1.12.71-.38,1.39-.74,1.39-.74v.35c-.54.12-3.33,1.9-3.46,2-.13.11-.36.17-.28.31.07.14.28,0,.28,0,0,0,1.81-1.06,2.5-1.44.68-.38.99-.45.99-.45-.14,3.25.85,6.38,1.18,7.35.33.97,1.23,1.44,1.6,1.45.41,0,.83-.09.98-.22.05-.05.14-.03.14-.03-.05,1.63.37,6.41,1,7.37.64.97,2.07,1.29,2.07,1.29,0,0,.95.26,1.55,0,.17-.07.2-.66-.23-.92-.43-.26-.91-1.4-1.5-2.46-.59-1.06-.82-3.65-.85-4.19-.02-.54.04-12.11.04-12.11l1.66.02c2.27,1.97,5.72,4.08,5.72,4.08,0,0,.28.19.37.12.09-.07-.05-.2-.05-.2-.55-.32-2.03-1.3-2.99-2-1.47-1.08-2.53-1.99-2.53-1.99,0,0,.68,0,.69-.03.22.1,2.84,1.99,4.72,3.43,1.03.8,1.82,1.49,1.89,1.54.22.17.31.11.31.11,0,0,.07-.13-.03-.2-.2-.36-2.19-1.83-3.7-2.93-.95-.7-1.79-1.28-1.79-1.28,2.21.85,6.83,4.28,6.83,4.28,0,0,.26.26.35.16.09-.09-.05-.21-.05-.21ZM179.1,91.6s.17.11.12.18c-.15.19-.76.32-.76.32v-.21s.65-.29.65-.29ZM176.41,86.99c-.3-.31-.4-1.18.21-1.51,0,0,.42-.05.88.16-.15.08-.74.46-.37,1.16,0,0,.65-.17.67-.98.19.14.38.34.53.63.4.75-.84.99-.97.99-.12,0-.58-.04-.97-.45ZM179.61,101.14s-.14.02-.21-.19c-.07-.21-1.02-2.64-1.15-4.07-.14-1.5-.09-3.67.14-4.21.07-.16,1.19-.53,1.19-.53,0,0,.13.36.13.55s-.1,8.45-.1,8.45ZM184.06,85.6s.14-.34.45-.66c0,.09.09.76.73.92,0,0,.47-.75-.35-1.2,0,0-.01,0-.02,0,.2-.12.44-.21.72-.22.73-.02.54.89.54.89,0,0-.23,1.06-1.2,1.06-.87,0-.87-.8-.87-.8Z"
                            class="cls-1" />
</svg>