<svg xmlns="http://www.w3.org/2000/svg">
                        <path d="
                            M160,108.01c.07.04.14.06.2.11s.08.18.02.22c-.65.09-1.29.23-1.94.23-1.11-.11-2.11.07-3.21.05-1.13-.02-2.26-.01-3.4-.03-.54,0-1.09-.05-1.63-.04-.59,0-1.17.05-1.76.1-.68.05-.98-.16-1.66-.09-.29.03-.59.05-.88.09-.31.04-.62.03-.91-.09-.43-.17-1.26.03-1.7-.02-.62-.07-1.25-.18-1.87-.21-.14-.13-.32-.2-.49-.19-.02-.12.12-.2.22-.22.54-.11.96-.2,1.49-.11s1.13.09,1.67-.02c.3-.06.61-.1.92-.1.81-.01,1.62-.11,2.42-.24,1.14-.19,2.28-.26,3.43-.2.26.01.53.06.79.11.47.09.95.05,1.42,0,.41-.05.78-.02,1.14-.27.85-.58,2.64-.73,3.42.04.1.1.22.2.35.21.1,0,.19-.04.29-.04.18,0,.33.18.5.26.31.15.71-.03.97.22.06.06.11.14.18.2.01.01.02.02.04.03ZM133.6,107.69c.24-.08.48-.13.72-.17-.2.03-.55-.11-.78-.11s-.47.09-.69.08c-.56-.03-1.03-.38-1.6-.1-.12.06-.23.14-.36.16-.09.01-.18-.01-.27-.03-.53-.07-1.09.29-1.57.06-.13-.06-.23-.16-.35-.24-.45-.31-1.08-.33-1.55-.06-.14.08-.28.19-.45.19-.16,0-.31-.1-.46-.16-.56-.21-1.25.21-1.77-.1-.15-.09-.31-.25-.48-.19-.07.02-.13.08-.2.09-.12.01-.21-.1-.3-.19-.33-.31-.66-.14-1,0-.4.16-.82.14-1.29.11-.57-.03-1.14-.04-1.69-.12-.66-.1-1.31-.18-1.98-.16-.39,0-.78,0-1.17.01-1.12.04-2.23-.07-3.35-.12-.52-.03-1.03-.07-1.55-.11-.69-.05-1.39-.11-2.08-.16-.63-.05-1.26-.07-1.89-.14-1.13-.12-2.23,0-3.32.25-.28.07-.57.14-.86.16-1.44.11-2.88.13-4.32.05-.49-.03-.97.03-1.45.09-.87.12-1.74.11-2.61.01-.44-.05-.87-.08-1.29.07-.25.09-.51.08-.77.03-.19-.04-.38-.08-.57-.12-.68-.14-1.37-.25-2.07-.22-.75.03-1.49-.05-2.22-.18-.45-.08-.89-.16-1.34-.21-.58-.06-1.16-.08-1.74-.12-.79-.05-1.58-.09-2.37-.15-.86-.06-1.71-.03-2.55.22-.14.04-.28.07-.42.1-.7.15-1.4.3-2.11.22-.49-.05-.97-.03-1.45,0-.61.04-1.23.07-1.84.12-.24.02-.48.06-.72.13-.39.11-.76.27-1.03.58v.75c.48.55,1.09.74,1.76.75.08,0,.16,0,.24,0,.82.07,1.65.11,2.45.34.17.05.35.05.53.03.46-.06.93-.13,1.35-.2.21-.14.38-.26.6-.41.06.11.11.21.15.29.46-.03.87-.06,1.27-.09.6-.05,1.19-.1,1.79-.15.53-.04,1.06-.08,1.6-.13.24-.02.48-.06.72-.11.41-.08.82-.16,1.23-.27.45-.11.89-.12,1.35.02.36-.44.85-.64,1.38-.77.14-.04.29-.06.42-.11.28-.13.56-.11.85-.04.87.21,1.75.32,2.65.25.14-.01.29,0,.48,0,.18.09.35.18.53.27,1,.48,2.05.78,3.17.8.11,0,.23.01.34.03,1.12.16,2.25.23,3.39.2.92-.03,1.85-.02,2.77,0,.97.03,1.94.1,2.91.14.78.04,1.55,0,2.33-.06,1.24-.11,2.49-.1,3.74-.04.39.02.78.04,1.16.07.26.02.52.06.77.05.76-.03,1.52-.09,2.28-.14.34-.02.68-.04,1.02-.08.84-.09,1.67-.19,2.5-.3.54-.08,1.07-.05,1.59.07.99.21,1.88.27,2.88.22.33-.02.68-.03.98.12.11.05.21.13.32.18.27.11.5.05.76,0,.28-.06.45-.04.76-.01.37.03.72-.17,1.09-.17.25,0,.39.11.61.19.47.18.93.07,1.39-.07.42-.13.77-.44,1.23-.31.16.04.31.13.47.16.45.09.68-.29,1.07-.36.09-.02.18-.06.29-.09.06-.11.12-.22.18-.34-.1-.07-.17-.12-.25-.18.03-.03.04-.07.07-.07ZM252.82,103.59c.25-.48.41-.98.47-1.52.09-.85.16-1.71.25-2.56.07-.71.15-1.41.23-2.12.1-.88.21-1.77.28-2.65.06-.71.08-1.42.1-2.13.03-.9.04-1.77,0-2.66-.04-.81.21-1.61.18-2.43-.03-.87-.14-1.73-.13-2.6.02-1.03.39-1.99.12-2.65-.06-.15-.15-.28-.21-.43-.2-.46-.53-4.22-1.52-1.75-.16.39-.21.83-.46,1.17-.31.43-.1,1.02.11,1.51.47,1.04.73,1.47.54,2.48-.03.18.09.35.11.53.04.4-.43.68-.47,1.08-.04.36.24.65.28.99s-.08.61-.19.92c-.5,1.34-.89,2.7-1.03,4.13-.09.95-.04,1.88.21,2.79.1.35.12.7.11,1.06-.01.44-.03.87-.02,1.31.01,1.52.03,3.04.06,4.56.01.45-.08.86-.32,1.24-.3.48-.56.98-.84,1.48-.07.12-.17.24-.1.41h.75c.59-.68,1.11-1.36,1.5-2.13ZM253.38,25.31c.11-.32.2-.65.3-.97.13-.45.19-.92.18-1.39-.02-.47-.04-.94-.04-1.41,0-.58-.02-1.16,0-1.75.01-.57.06-1.13.08-1.7.01-.41.06-.8.16-1.2.05-.2.07-.42.06-.62-.06-1.03-.32-2.01-.83-2.91-.15-.27-.27-.55-.33-.85-.06-.35-.27-.62-.56-.81-.12-.08-.24-.16-.38-.22-.88-.38-1.77-.69-2.76-.63-.6.04-1.2.04-1.79-.08-.16-.03-.32-.02-.48-.03-.7-.02-1.19.32-1.56.89.05.24.09.46.14.66.08.03.12.06.17.07.42.08.79.26,1.14.52.14.1.31.17.48.21.56.14,1.13.27,1.7.39.86.19,1.61.57,2.22,1.21.24.25.41.53.52.86.2.6.32,1.22.36,1.85.06.84.13,1.68.2,2.51.03.34.08.67.1,1.01.05.81.04,1.62.18,2.42.13.78.28,1.56.51,2.35.19-.1.21-.25.26-.39ZM230.03,108.48c.58,0,1.17,0,1.75,0,1.44,0,2.88-.02,4.32.11,1.78.16,3.56.1,5.34-.01.6-.04,1.19-.11,1.78-.2,1.58-.26,3.15-.58,4.74-.75.28-.03.53-.13.72-.37-.08-.58-.34-1.03-.9-1.31-.22.05-.44.08-.65.15-.29.1-.57.22-.86.34-.55.23-1.11.44-1.69.58-.8.2-1.59.23-2.39-.04-.21-.07-.44-.1-.67-.11-.79-.03-1.59-.05-2.38-.06-.88,0-1.74.06-2.6.27-.44.11-.88.2-1.32.31-.76.18-1.5.16-2.25-.08-1.04-.33-2.04-.14-3.03.25-.09.04-.17.09-.25.14-.04.25-.06.48-.02.78.15,0,.26.02.37.02ZM252.51,35c0,.58-.25,1.14-.31,1.72-.07.63-.03,1.27,0,1.91.03.5.11,1.03.07,1.53-.03.43-.22.8-.08,1.24.11.33.38.6.42.95.03.31-.05.81-.21,1.07-.15.25-.51.36-.54.69-.06.64.38.87,0,1.61-.06.11-.13.22-.16.34-.03.13-.02.26-.03.39-.01.32-.13.62-.18.93s-.04.66.17.9c.19.21.51.31.63.56.05.1.06.21.12.3.12.2.41.27.62.16s.33-.35.32-.59c0-.09-.02-.19-.03-.28,0-.13.03-.25.06-.37.1-.4.2-.79.3-1.19.02-.09.05-.19.04-.29-.03-.34-.38-.51-.46-.82-.08-.26,0-.82.04-1.08.02-.12.07-.24.09-.36.11-.49-.12-.97-.07-1.46.04-.45.16-.83.12-1.31-.06-.63-.08-1.26.15-1.86-.23-.46-.27-.92-.17-1.39.05-.24.07-.48.05-.72-.03-.55-.08-1.1-.08-1.65-.01-1.73,0-3.46,0-5.19,0-.57.05-1.13.27-1.64-.2-.92-.29-1.09-.7-1.25-.02.04-.06.08-.07.12-.06.17-.11.34-.16.51-.31,1.22-.41,2.45-.39,3.7,0,.66.07,1.32-.19,1.95.13.11.24.21.35.31,0,.19.02.36.02.54ZM109.57,9.82c-1.13.01-2.27.02-3.4.04-1.18.02-2.36.04-3.54.06-1.38.02-2.75.03-4.13.05-1.1.02-2.2.04-3.3.06-.08,0-.16,0-.24,0-.02,0-.05-.03-.07-.05.04-.1.07-.2.11-.29-.47-.18-1.72-.25-1.99-.13-.09.1-.19.21-.28.31-.84.23-1.67.27-2.51.09-.34-.08-.7-.14-1.06-.12-.7.03-1.39.06-2.09.05-.63,0-1.26-.06-1.89-.11-.19-.01-.38-.06-.53-.24.11-.07.21-.12.3-.18.1-.07.2-.14.31-.21-.12-.17-.28-.14-.42-.15-.86-.06-1.72-.02-2.56.18-.58.14-1.15.17-1.73.1-.42-.05-.82-.16-1.23-.26-.52-.12-1.05-.18-1.59-.19-.15,0-.28.03-.37.16.02.1.04.19.06.28-.04.03-.06.06-.09.07-.08.02-.15.05-.23.06-.94.14-1.87.1-2.81-.02-.3-.04-.62-.05-.92,0-.53.08-1.04.22-1.57.33-.09.13-.19.26-.29.41-.14-.04-.28-.08-.41-.13-.44-.15-.89-.3-1.33-.45-.03,0-.06,0-.1,0-.08.08-.17.17-.25.25-.33.03-.49-.29-.81-.29-.06.03-.15.08-.24.13.01.17.02.33.03.5-.18.13-.35.27-.52.39-.02.22-.03.41-.05.61-.19-.01-.35-.03-.51-.03-.14,0-.25.05-.26.25.21.12.43.25.57.34.36,0,.63,0,.91.02,1.23.08,2.46-.02,3.68-.19.43-.06.86-.12,1.3,0,.33.08.64.21.94.37.46.25.95.33,1.46.25.66-.1,1.33-.07,1.98.01.77.1,1.53.26,2.3.37.56.08,1.12.16,1.69.11.81-.06,1.6-.21,2.4-.31.43-.06.81-.22,1.17-.44.29-.18.58-.36.92-.44.13-.03.23-.11.28-.28-.12-.03-.25-.07-.37-.07-.32,0-.65,0-.97,0-.19,0-.39,0-.58,0-.05,0-.09-.05-.15-.09.98-.64,3.47-.83,4.85-.39.37.39.55.49.94.53.75.09,1.51.19,2.26.29.14.02.29.05.43.07.14.02.29.03.53.06-.36.1-.63.17-.91.12-.68-.13-1.37-.25-2.05-.38-.89-.17-1.78-.31-2.7-.29-.07,0-.17-.03-.2.1.21.19.49.23.76.24.24.01.44.08.64.2.15.09.32.15.5.19.81.17,1.61.36,2.41.54.14.03.28.08.43.09.16,0,.32-.03.5-.05.08.11.16.22.25.34.38.04.75.08,1.13.12.48-.23,1-.41,1.45-.7-.02-.06-.02-.11-.04-.12-.44-.22-.92-.3-1.48-.34.33-.14.59-.25.85-.36.04-.02.09-.04.14-.05.31-.07.61-.06.89.11.14.08.27.18.42.28.27-.04.52.08.75.23.16.1.33.21.51.28.18.07.37.14.56.15.88.05,1.75.01,2.59-.28.49-.17,1-.26,1.52-.32,1.29-.14,2.57-.27,3.86-.39.29-.03.57-.11.83-.25.08-.04.17-.08.24-.11.13.11.24.2.35.29l.82.02c.16-.1.31-.19.46-.29.14.11.27.21.39.3.38.05.75.11,1.12.13,1,.06,2,.08,3.01,0,.74-.06,1.49-.06,2.23-.09.22,0,.45-.04.65-.06.07-.09.13-.15.17-.21.03-.04.03-.09.04-.13-.06-.19-.09-.38-.27-.53-1.83.27-3.59-.16-5.33-.52-.11-.15-.19-.26-.28-.38-.22.12-.42.23-.69.38-.16,0-.36-.01-.55-.01ZM71.81,11.04c.34-.27.36-.27.79-.02-.32,0-.54.05-.79.02ZM54.56,30.52c-.02.48-.04.97-.05,1.46-.04,1.39-.09,2.78-.11,4.17-.01.7.04,1.39.05,2.09.02.95.06,1.91.06,2.86,0,.53-.02,1.07-.12,1.59-.14.76-.28,1.53-.4,2.29-.14.86-.28,1.72-.39,2.59-.04.28-.01.58,0,.87.03.5.09,1,.13,1.5.02.29.03.58.04.87.02.39.07.77.07,1.16-.02,1.86.03,3.72.11,5.58.03.74.05,1.49.2,2.22.1.52.06,1.03-.11,1.53-.12.37-.16.76-.14,1.15.07,1.24.17,2.49.34,3.72.1.68.28,1.33.63,1.9.14.12.27.22.37.3.17.14.21.43.39.58.69-1.62.75-3.59.55-5.32-.07-.62-.21-1.25-.06-1.85.1-.4.32-.77.44-1.16.53-1.66-.62-3.29-.54-4.95.09-2.02-.48-4.02-.27-6.07.39-3.82-.31-7.68-.25-11.59.03-2.04.07-4.08.1-6.12,0-.06,0-.13,0-.19.04-.56.1-1.13.13-1.69.03-.47.04-.94.04-1.41,0-.14,0-.29-.18-.39-.24.16-.48.33-.71.49-.28.61-.33,1.21-.36,1.81ZM233.07,10.25c-.48-.02-.97-.04-1.46-.05-1.39-.04-2.78-.09-4.17-.11-.7-.01-1.39.04-2.09.05-.95.02-1.91.06-2.86.06-.53,0-1.07-.02-1.59-.12-.76-.14-1.53-.28-2.29-.4-.86-.14-1.72-.28-2.59-.39-.28-.04-.58-.01-.87,0-.5.03-1,.09-1.5.13-.29.02-.58.03-.87.04-.39.02-.77.07-1.16.07-1.86-.02-3.72.03-5.58.11-.74.03-1.49.05-2.22.2-.52.1-1.03.06-1.53-.11-.37-.12-.76-.16-1.15-.14-1.24.07-2.49.17-3.72.34-.68.1-1.33.28-1.9.63-.12.14-.22.27-.3.37-.21.13-.45.18-.61.4.31.1.6.19.87.28.03.12.05.21.07.31.77-.12,1.53-.14,2.29-.16,1.07-.03,2.29.07,3.33-.12.93-.17,1.85-.84,2.77-.16.11.08.21.19.34.25.14.07.31.08.47.08.66.03,1.32.06,1.98.09.31.01.62.03.92-.06.22-.06.42-.17.64-.25.64-.23,1.35-.13,2.02-.02.87.13,1.74.27,2.61.4,1.1-.69,2.5-.89,3.75-.53,2.19.63,4.18-.04,6.5-.04.19,0,.39-.01.58-.04.61-.11,1.22-.17,1.83-.16,2.04.03,4.08.07,6.12.1.06,0,.13,0,.19,0,.56.04,1.13.1,1.69.13.47.03.94.04,1.41.04.14,0,.29,0,.39-.18-.16-.24-.33-.48-.49-.71-.61-.28-1.21-.33-1.81-.36ZM64.56,10.13c.15-.3.45-.46.59-.81-.41.11-.78.17-1.13.3-.86.31-1.74.34-2.63.23-.62-.08-1.23-.02-1.83.1-1.06.2-1.98.7-2.75,1.45-.33.33-.66.67-.98,1.01-.65.69-.67.72-.87,1.63-.08.38-.15.76-.09,1.16.04.24-.01.48-.09.72-.11.36-.15.73-.08,1.1.07.41.14.83.19,1.25.03.29.06.57.15.85.15.46.08.89-.19,1.3-.11.16-.2.33-.29.5-.28.56-.43,1.15-.38,1.78.04.56.1,1.13.16,1.69.05.47.26.86.63,1.17.4-.12.75-.31,1.09-.49.27-.56.35-1.12.29-1.72-.04-.35-.07-.71-.06-1.07.02-.9-.07-1.78-.32-2.64-.13-.44-.09-.87.12-1.27.17-.32.27-.65.29-1.02,0-.11.03-.22.06-.33.24-1.14.79-2.11,1.54-2.99.46-.54,1.03-.92,1.75-1.07,1.51-.3,2.95-.83,4.36-1.44.25-.11.51-.21.76-.31.13-.06.26-.12.39-.19.02-.01.03-.05.05-.08-.04-.08-.09-.16-.13-.24.06-.07.11-.13.18-.22-.28-.19-.58-.17-.79-.36ZM119.76,11.36c.12,0,.27.01.41,0,.14,0,.29.04.45-.09,0-.2.12-.41.07-.66-.65-.13-1.31-.36-1.95-.02-.71-.29-1.17-.3-1.79-.01-.05.2-.03.4.02.63.78.04,1.55.15,2.28-.22.17.12.33.22.51.35ZM121.77,10.78c-.06,0-.12,0-.19.01.2.19.29.26.45.27.24.03.48.06.78-.15-.4-.05-.72-.1-1.03-.14ZM101.84,69.03c-.4-.55-.8-1.1-1.19-1.66-.16-.23-.33-.44-.58-.58-.14-.08-.24-.21-.33-.35-.36-.56-.72-1.12-1.12-1.65-.57-.75-1.17-1.48-1.64-2.29-.4-.42-.7-.93-1.04-1.4-.43-.61-.92-1.17-1.37-1.76-.66-.86-1.38-1.68-2.07-2.52-.23-.28-.45-.55-.64-.86-.32-.53-.71-1.01-1.1-1.49-.78-.97-1.56-1.95-2.33-2.93-.17-.22-.33-.44-.48-.67-.22-.34-.44-.68-.73-.97-.05-.05-.08-.13-.12-.2.06-.17.11-.32.16-.49.24-.21.5-.41.72-.64.44-.46.94-.84,1.43-1.25.21-.18.41-.37.61-.56.21-.2.42-.4.63-.6.18-.17.36-.33.54-.49.27-.24.53-.48.8-.71.37-.31.76-.61,1.12-.93.82-.74,1.63-1.48,2.43-2.24.32-.3.6-.64.91-.94.35-.34.71-.67,1.07-.99.24-.22.51-.4.74-.63.29-.28.55-.6.76-.84.31-.23.57-.4.8-.6.43-.39.84-.81,1.26-1.21.15-.15.3-.29.47-.42.27-.23.56-.44.83-.68.68-.6,1.35-1.21,2.02-1.82.27-.24.46-.54.63-.87-.17-.44-.32-.88-.5-1.31-.22-.55-.37-1.1-.31-1.7.02-.27.02-.55.05-.82.06-.53,0-1.03-.29-1.51-.21-.17-.42-.39-.67-.54-.24-.15-.53-.24-.8-.36-.35-.76-1.04-1.12-1.74-1.45-.45-.75-1.17-1.16-1.82-1.66-.39.28-.68.6-.91.97,0,.12-.01.23-.02.34-.09.04-.18.08-.29.12,0,.16-.02.32-.01.48.01.25-.07.48-.17.7-.03.06-.08.1-.15.04q0-.51-.2-.75c-.37.34-.69.73-.95,1.16-.23.38-.47.73-.83.98-.18.47-.46.84-.8,1.17-.19.19-.37.41-.54.63-.44.6-.93,1.17-1.47,1.69-.39.37-.7.81-.95,1.29,0,.38.05.77-.11,1.18-.25.02-.5.03-.77.05-.19.37-.37.74-.56,1.11,0,.13,0,.24,0,.36,0,.12-.02.24-.03.42-.26-.21-.13-.54-.36-.71-.08.09-.16.17-.23.25-.25.3-.47.62-.74.9-.57.61-1.04,1.29-1.52,1.96-.14.2-.3.38-.45.57-.61.76-1.22,1.51-1.83,2.27-.2.25-.39.52-.6.76-.66.75-1.37,1.47-1.94,2.3-.08.12-.19.22-.28.33-.66.8-1.33,1.59-1.96,2.36v.37c-.19.12-.37.24-.54.35-.18.28-.36.55-.54.82-.19.28-.34.58-.63.82-.03-.1-.06-.15-.07-.21-.02-.18-.03-.35-.04-.53-.04-1.26-.07-2.53-.11-3.79-.02-.58-.07-1.16-.11-1.75,0-.13-.02-.26-.04-.39-.08-.63-.18-1.25-.22-1.88-.07-.94-.12-1.88-.16-2.82-.03-.83-.06-1.65-.12-2.48-.06-.87-.08-1.75-.1-2.62-.03-1.18-.1-2.36-.16-3.54-.01-.28-.02-.55-.04-.82-.04-.5-.1-1-.13-1.5-.04-.73,0-1.46-.09-2.18-.08-.62-.07-1.26-.08-1.89-.02-1.27-.12-2.53-.23-3.78-.02-.19-.05-.38-.08-.58-.2-.14-.39-.26-.53-.36h-.83c-.06.1-.1.19-.16.29-.05-.12-.09-.2-.15-.32-.27.04-.54.07-.79.11-.11.12-.19.22-.28.32.02.23.06.46.05.68-.01.22-.08.44-.12.66.09.12.17.24.26.37-.07.17-.14.33-.2.46-.17.1-.32.19-.48.3.22.22.44-.06.62.07q-.11.29-.29.42c-.07.05-.13.12-.2.18.12.13.22.23.35.36-.13.08-.24.14-.36.22-.15-.15-.28-.28-.42-.42,0-.47-.03-.93,0-1.38.02-.28.14-.56.23-.87-.03-.13-.06-.29-.09-.45.14-.07.27-.13.41-.2-.05-.08-.09-.15-.14-.23v-.27c-.19-.1-.37-.16-.58-.09-.04.12-.09.24-.13.36-.04.12-.08.25-.1.37-.03.14-.03.29-.05.43-.02.1.08.23-.07.33-.04-.46.04-.94-.22-1.39-.14.22-.11.43-.1.64.02.73.02,1.46.02,2.18,0,.01-.02.02-.05.05-.08-.07-.16-.14-.24-.21-.03-.91.08-1.79.14-2.67-.35.04-.4.06-.76.41-.04-.08-.08-.16-.12-.23-.49-.06-1.12-.05-1.51.05-.17.04-.37,0-.5.19.41,1.27.67,2.57.61,3.92-.09.02-.15.04-.2.06q-.15.34-.07.39c.08-.04.16-.08.26-.13.02.07.05.11.05.15,0,.28,0,.55-.01.83,0,.32-.05.65,0,.97.04.29.05.58.06.87.02.7.03,1.39.07,2.09.06.89,0,1.78-.08,2.67-.01.14-.06.28-.08.42-.1,0-.17.01-.26.02v.46c.08.19.17.38.24.55,0,.23.01.42,0,.62-.02.18-.07.35-.1.52-.03.19-.06.38-.08.58-.03.24-.04.47-.06.72-.08-.01-.13-.02-.19-.03-.14-1.12-.36-2.23-.23-3.36.09-.16.16-.3.24-.44.02-.18-.14-.34-.09-.52.15-.03.28-.06.4-.09.02,0,.04-.05.07-.08-.06-.07-.12-.14-.17-.21-.07,0-.12,0-.17-.01-.06,0-.12-.01-.16-.02-.14-.16-.14-.33-.09-.48.1-.32.07-.64.02-.96-.04-.24-.06-.48-.06-.73,0-.24-.03-.48.03-.7.08-.07.13-.13.18-.17-.03-.28-.06-.54-.09-.79.09-.12.17-.22.26-.33-.12-.19-.23-.36-.3-.48-.13-1.84-.08-3.62,0-5.44-.27-.21-.27-.57-.36-.91-.25-.01-.49-.02-.72-.03-.22-.16-.43-.31-.63-.46-.16.27-.17.27-.16.42,0,.26.02.52.03.78.03.42,0,.84-.08,1.26-.05.25-.09.5-.13.75.09.07.17.12.23.17.06.37,0,.73-.09,1.07-.06.21-.06.41-.02.62.05.25.06.51.02.79-.12.05-.22.09-.33.13-.06-.3-.07-.58-.16-.84-.16-.46-.18-.91-.1-1.39.05-.25.1-.51.11-.77.02-.6.02-1.2.01-1.8,0-.28,0-.55.08-.82.02-.06,0-.13.01-.18-.05-.1-.1-.18-.15-.27.12-.09.23-.18.35-.27-.57-.6-1.2-1.08-1.86-1.52-.18-.12-.36-.27-.63-.28-.11.2-.21.39-.3.56,0,.22-.01.4,0,.57.01.14.03.29.08.42.12.28.14.56.14.85,0,1.18,0,2.37,0,3.55,0,.29-.06.58-.08.87-.01.13-.04.26-.02.38.13.59.1,1.19.11,1.79,0,.21.02.42.04.63.04.34.09.67.14,1.01.05.35.09.7.14,1.04-.07.21-.25.35-.27.59.15.08.29.15.42.21h.49c.03.26-.07,1.75-.14,2.15-.09,0-.19-.02-.3-.03-.11.1-.23.21-.36.32.1.17.18.32.24.42-.06.56-.15,1.06-.17,1.55-.02.74.02,1.49.03,2.24.02.7.04,1.39.05,2.09,0,.11,0,.23,0,.34,0,.11,0,.23.08.41.06-.28.1-.49.15-.69.05-.19.08-.41.34-.52.05.38.1.72.04,1.07-.09.11-.17.21-.26.32.09.06.16.12.25.18-.02.09-.03.19-.07.28-.04.09-.12.17-.18.26.08.17.16.33.22.45,0,.19,0,.34,0,.48-.05.74-.09,1.49-.04,2.23.02.35-.01.71-.1,1.06-.05.2-.03.42-.03.63,0,.27.02.55.04.79-.14.19-.25.35-.38.51.15.13.29.24.41.34.05.76.03.97-.14,1.41-.1-.34-.02-.65-.08-.93-.13-.25-.26-.5-.39-.73.01-.19.02-.37.03-.55-.05-.08-.11-.16-.18-.26-.02-.63.21-1.24.37-1.88-.04-.15-.12-.28-.28-.39-.31.44-.5.92-.69,1.4-.01.03-.01.06-.01.1.02.55-.11,1.1,0,1.61-.07.11-.12.18-.16.25.1.19.18.34.27.5v.73c-.07.12-.13.23-.17.29.03.34.06.62.09.91-.05.15-.1.3-.15.46.08.15.15.3.22.44-.07.14-.13.27-.19.38,0,.65-.03,1.29.08,1.91.03.17.02.36.03.53,0,.15.01.29.03.44.06.71.13,1.42.19,2.13,0,.06,0,.13,0,.19-.08,1.29-.11,2.59-.04,3.89.05.89.05,1.78.17,2.67.06.42.07.84.03,1.26-.06.65-.09,1.29-.11,1.94-.02.78-.02,1.56-.02,2.34,0,.96.05,1.91.18,2.86,0,.06.02.13.01.19-.1.41-.03.8.02,1.21.02.16,0,.32,0,.49,0,.57-.04,1.13.07,1.7.02.11.02.23.02.34,0,.86,0,1.72,0,2.58,0,.1-.01.2,0,.29.05.37.1.75.35,1.04.71.83,1.34,1.71,1.97,2.6.28.39.68.6,1.12.7.47.11.96.15,1.44.22.8.12,1.6.24,2.4.35.63.09,1.25.16,1.88.24.32.04.61-.02.89-.23.1-.76.2-1.53.47-2.28,1.03-.46,1.99-1.08,3.09-1.43.12-.19.25-.37.38-.57,0-.41,0-.81,0-1.22-.01-.42-.06-.84-.06-1.26,0-.53.05-1.07.06-1.6.01-.97,0-1.94,0-2.91,0-.13-.03-.26-.04-.39-.01-.13-.04-.26-.04-.39,0-.6,0-1.2,0-1.8.01-1.07.03-2.14.05-3.21,0-.4.03-.81.04-1.21.28-.4.55-.78.82-1.17.14-.21.34-.34.62-.41.14.17.28.34.41.52.97,1.34,1.94,2.68,2.91,4.01.09.12.18.23.27.35.28.36.57.7.84,1.07.31.42.58.86.94,1.24.11.12.19.26.28.39.66.96,1.25,1.97,1.98,2.89.4.51.8,1.02,1.2,1.53.07.08.12.2.29.18.07-.18.14-.36.21-.55.18.05.15.18.18.29-.05.1-.1.2-.14.29.11.16.34.11.46.27-.15.13-.32.21-.35.45.44.57.91,1.17,1.36,1.76.14.03.25.05.33.06.12-.05.21-.09.33-.14.13.48.25.94.38,1.4.23.13.44.25.64.37.19-.09.37-.11.49-.29-.02-.15-.05-.31-.07-.48.1-.05.19-.08.27-.13.08-.04.15-.09.27-.15-.19-.2-.36-.37-.54-.57.03-.18-.02-.42.22-.59.16.06.29.18.37.28.06.25.1.46.15.66,0,.02.05.03.07.04.15,0,.17-.24.38-.2.03.2,0,.41,0,.62,0,.17-.06.35.07.52.23-.02.45-.04.65-.05.24-.25.15-.68.54-.82v.51c.19.07.37.13.53.18.24-.09.46-.17.63-.24.63.05,1.15.45,1.78.36.07-.33.13-.64.19-.94-.08-.27-.19-.51-.23-.76-.11-.61-.08-1.23.04-1.84.02-.08.09-.15.18-.29.36,1.4.18,2.76.19,4.12.46.23.88.49,1.38.63.22-.19.43-.36.63-.53.2-.86.16-1.7.16-2.54,0-.52,0-1.04,0-1.54.11-.18.21-.35.31-.51-.03-.18-.05-.35-.08-.55.09,0,.17,0,.26-.01v.67c-.06.14-.12.28-.18.43.06.24.12.48.17.68-.08.18-.14.32-.21.47.08.23.18.44.22.66.04.22,0,.45,0,.67.07.08.13.15.21.24.26-.27.46-.53.51-.88.05-.31.16-.59.32-.86.03-.05.04-.12.06-.18-.04-.08-.08-.15-.11-.22-.04-.07-.07-.14-.12-.23.1-.06.17-.11.26-.16.07.11.13.2.2.31.1-.01.19-.02.3-.03.27-.52.54-1.03.74-1.55-.16-.43-.39-.78-.64-1.12-.12-.16-.26-.23-.45-.24-.03,0-.05.02-.08.04-.03.1.17.19-.01.3-.08-.09-.16-.18-.23-.27v-.59c-.16-.43-.38-.8-.64-1.16ZM99.6,25.08c-.07.55-.03,1.09.04,1.64,0,.03,0,.06,0,.12-.05.09-.12.2-.18.32.03.11.06.21.09.3-.06.12-.15.14-.25.11-.21-.37-.23-.62-.15-1.67.07-.12.15-.26.23-.41-.03-.12-.05-.25-.08-.4.06-.19.13-.41.19-.62-.04.02-.09.03-.13.05-.04.02-.08.03-.16.06.04-.15.07-.27.1-.39.05-.02.1-.03.15-.04,0,.12.01.23.02.34.16.17.15.4.13.59ZM76.97,23.6c0,.54,0,1.07,0,1.61,0,.45,0,.91-.06,1.36-.07.48,0,.97-.11,1.45-.02.09,0,.2.02.29.13.5.07,1,.04,1.5-.09.06-.17.11-.29.19-.1-.12-.2-.22-.31-.35.06-.34.12-.69.18-1.04-.19-.35-.17-.72-.17-1.09,0-1.17-.02-2.33-.03-3.5,0-.18,0-.36,0-.54.1-.15.19-.3.29-.47-.09-.11-.18-.23-.3-.37.03-.47.05-.97.09-1.47,0-.02.04-.05.08-.09.11.18.21.35.29.57-.08.12-.17.25-.26.4.16.1.32.2.52.32,0,.44,0,.84,0,1.25ZM71.06,36.92c.06.12.12.23.19.36.06,1.47.05,2.96,0,4.47-.06.05-.12.09-.17.13-.05-.05-.09-.06-.09-.09-.02-.26-.03-.51-.05-.75.09-.19.16-.35.24-.53-.1-.14-.21-.28-.33-.45-.03-.33-.03-.68.06-1.03.05-.19.05-.38-.04-.57-.09-.18-.1-.37-.1-.57,0-.55,0-1.1,0-1.65,0-.16.03-.32.05-.48.04-.34.08-.67.13-1.01.03-.21.09-.41.14-.65-.03-.16-.07-.35-.11-.54-.02-.1-.03-.19-.03-.29,0-.7,0-1.39,0-2.08.05-.12.09-.22.13-.32.04-.1.07-.2.12-.32.14.39.12.81,0,1.18.03.46.06.85.09,1.23.01.15.02.29.05.43.15.58.09,1.16.07,1.74-.02.42-.06.84-.1,1.28-.09.18-.17.34-.26.5ZM65.9,17.19c.03.17.06.31.07.45.02.23,0,.45.02.68.02.42.07.84.07,1.26,0,.6-.02,1.2-.04,1.79,0,.26-.05.52-.05.77,0,.47,0,.94,0,1.41,0,.31,0,.61-.06.92-.04.22-.03.45.01.67.05.28.05.54.02.82-.04.32-.05.65-.08,1-.07.1-.15.21-.25.35-.1-.04-.19-.07-.26-.1,0-.05-.03-.09-.02-.11.16-.52.17-1.05.17-1.59,0-.38.05-.74.11-1.11.04-.27.06-.55.07-.82.02-.55-.04-1.1.08-1.65.02-.1,0-.22-.02-.34-.07-.43-.16-.86-.2-1.29-.04-.47-.05-.94-.05-1.41,0-.5-.04-1,.05-1.55.12-.06.22-.1.35-.16ZM73.97,23.55c0,.37-.04.74-.06,1.11-.12.14-.23.28-.36.42.11.11.19.21.28.29.2.16.31.36.34.62.04.32.11.64.12.96.02.4,0,.81,0,1.22-.05.07-.09.14-.14.2-.05.06-.1.12-.21.21-.01-.82.08-1.57,0-2.31-.22-.37-.54-.67-.65-1.12.02-.11.04-.26.06-.4.01-.14.03-.29,0-.43-.13-.7-.06-1.42-.12-2.12,0-.05.02-.09.03-.13.02-.01.04-.03.05-.03.08.08.15.16.24.26.08-.02.17-.04.3-.07.09.05.21.12.35.2-.08.42-.26.76-.25,1.14ZM72.31,27.52c0-.21-.03-.41-.09-.62-.12-.39-.14-.8.02-1.19.09-.22.11-.43.02-.66-.12-.29-.12-.6-.12-.91,0-.4,0-.81,0-1.21,0-.44,0-.87,0-1.32.1-.06.19-.12.29-.18.06.1.11.18.18.3.12-.49-.03-.96.14-1.46.12.32.06.58.06.84,0,.28,0,.55-.02.83-.03.27,0,.55-.2.8.24.44.19.91.11,1.37-.05.31-.09.61-.01.91.05.19.02.38-.05.57-.1.31-.13.63-.13.96,0,.45-.06.9-.09,1.36,0,.03-.03.05-.05.08-.11-.15-.06-.31-.06-.47ZM67.3,39.26c-.02-.11-.07-.21-.11-.32-.02-.06-.04-.13-.04-.19-.06-.95-.11-1.9-.17-2.89.05-.09.12-.19.21-.34.09.12.16.22.23.3-.07.19-.13.35-.2.53.14.1.26.18.38.26.09.57.04,1.16.06,1.74.01.35-.06.68-.15,1-.03.1-.1.19-.21.38,0-.24.01-.36,0-.48ZM66.68,25.03c0-.23.05-.45.21-.66.11.02.23.04.34.06.02.07.04.12.03.17-.11.76.02,1.51.01,2.27,0,.29,0,.58,0,.94-.1-.1-.14-.16-.19-.19-.06-.04-.14-.05-.22-.07-.27-.83-.21-1.67-.19-2.51ZM70.96,29.75c.12-.19.25-.4.39-.61-.01-.09-.02-.18-.04-.27-.03-.16-.05-.31-.08-.47-.02-.11-.05-.22-.08-.33-.06-.27-.12-.53-.17-.8-.06-.27.08-.5.17-.75-.06-.11-.12-.22-.18-.34.02-.04.04-.07.07-.13.16.09.25.21.29.37.1.44.22.88.3,1.32.11.56.04,1.12-.08,1.68-.02.11-.08.21-.13.31-.07.14-.14.29-.24.48-.09-.17-.15-.3-.23-.45ZM71,25.45c-.17-1.09-.38-2.11,0-3.16.21.21.29.46.29.74,0,.63,0,1.26,0,1.92-.09.16-.17.3-.29.5ZM67.14,32.03c-.01.34.03.67.1,1,.07.33.07.67.04,1.03-.08.07-.16.14-.25.21-.03-.02-.07-.04-.07-.06-.04-.14-.09-.28-.09-.42.01-.72.04-1.45.07-2.17,0-.03.03-.06.06-.14.11.2.15.37.14.54ZM99.46,33.41q-.3,0-.56-.2c.05-.36.32-.56.6-.84.13.54.12.65-.03,1.04ZM101.49,31.6c0,.13.02.24.02.35,0,.11-.01.22-.02.36-.11.03-.21.06-.31.08-.04-.05-.08-.08-.09-.13-.09-.26-.1-.53-.05-.86.19.08.32.13.45.19ZM68.63,46.55c.14.21.18.3.22.7.02.24.07.48-.04.71,0,.02-.05.02-.14.06-.07-.5,0-.96-.04-1.47ZM102.55,29.05c-.07-.16-.13-.33-.19-.47.03-.19.12-.29.27-.35.23.3.2.62.09,1.03-.1-.11-.15-.15-.17-.21ZM67.36,34.83c-.04.14-.08.26-.13.42-.14-.1-.25-.19-.37-.27.01-.13.03-.23.04-.38.17.08.31.15.46.23ZM99.14,34.31s.08-.04.1-.03c.11.07.21.14.32.22.02.12.03.22.05.37-.18-.02-.28-.11-.41-.21-.02-.13-.03-.24-.05-.34ZM68.15,41.9c.08.16.13.22.14.29.03.22.1.43.02.66-.22-.26-.2-.55-.16-.95ZM95.93,28.09c.09.01.16.02.24.03,0,.21,0,.4-.16.61-.18-.23-.13-.42-.08-.64ZM72.34,33.39c-.06.05-.13.11-.19.17q-.08-.08.02-.65c.17.15.16.31.17.49ZM68.68,50.04s-.04-.09-.04-.13c0-.16,0-.31,0-.51.24.38.24.44.04.63ZM99.05,68.8s-.08.06-.13.08c-.03.01-.06,0-.09,0-.02-.02-.05-.05-.04-.07,0-.14-.05-.31.15-.43.04.16.08.29.11.43ZM100.9,27.66c-.11-.16-.06-.33-.08-.49.21.13.12.3.08.49ZM91.69,74.73c-.09.07-.15.13-.26.23-.02-.17-.03-.28-.05-.5.16.14.23.2.31.28ZM92.79,69.31c-.01-.1-.02-.19-.04-.36.13.13.2.2.35.36h-.31ZM72.21,32.01q.13.21.06.46c-.08-.17-.18-.29-.06-.46ZM96.16,29.88c-.13-.04-.2-.05-.25-.07-.06-.12-.04-.2.1-.26.04.09.08.18.15.33ZM95.81,33.52c-.11-.03-.16-.04-.2-.05-.04-.11-.02-.18.11-.22.02.08.05.15.09.27ZM97.63,29.21c.1.15.12.3,0,.45v-.45ZM94.45,31.09c.12.08.21.17.12.32-.14-.07-.17-.17-.12-.32ZM88.78,37.3q.2.1.15.34c-.06-.13-.1-.22-.15-.34ZM76.6,42.79c.16,0,.17.06.14.15-.13,0-.12-.08-.14-.15ZM91.34,72.87c.08.05.14.08.28.16h-.3c0-.06.01-.1.02-.16ZM96.46,32.3s-.04,0-.05.01l-.03-.14s.04,0,.06-.01c0,.05.02.09.03.14ZM76.66,37.49s-.01-.02-.02-.04c.01,0,.03-.01.04,0,.01,0,.02.02.02.03-.01,0-.03.01-.04,0ZM67.45,48.45s.02-.05.05-.09c.02.04.04.08.05.11,0,.02-.02.05-.04.09-.02-.04-.05-.07-.05-.11ZM95.44,74.5s-.03-.06-.05-.1c.02,0,.06-.03.07-.02.02.02.03.05.04.07-.02.01-.04.03-.06.04ZM98.69,72.15s-.04-.02-.08-.04c.03-.03.07-.06.1-.09.02.02.04.03.05.05-.02.03-.04.06-.07.08ZM202.42,27.83c.03.62.06,1.23.1,1.85.08,1.55.15,3.11.23,4.66.03.68.07,1.36.11,2.04.09,1.68.18,3.37.27,5.05.09,1.6.18,3.21.26,4.81.08,1.6.16,3.21.24,4.81.04.71.08,1.42.11,2.14.09,1.73.18,3.46.27,5.2.06,1.12.12,2.23.18,3.35.05,1.02.11,2.04.16,3.06.04.81.08,1.62.13,2.43.01.23-.02.45-.1.67-.1.27-.19.55-.27.81.02.1.04.17.05.23-.09.22-.16.42-.24.62-.03.09-.05.2-.11.26-.19.18-.21.43-.28.64.12.17.23.32.39.42.05-.05.08-.09.12-.13.14.14.28.27.42.39.22-.04.38-.15.53-.26.04-.13.08-.25.12-.4.07.07.11.12.16.18-.17.42-.21.86.02,1.27.22.4.51.75,1.02.78.09.21.16.4.22.55.51.47,1.06.54,1.67.4,1.03.3.99.28,1.76.25.13-.1.25-.19.39-.29.52.4,1.11.54,1.73.5.08-.07.14-.13.22-.19.15.1.28.19.39.27.52.09,1.02.14,1.52.08.05-.09.09-.17.16-.24.06-.07.15-.11.21-.16.01-.17-.16-.26-.11-.42.17-.04.29,0,.38.12.06.23-.06.47.08.7.36.04.73.05,1.12-.01.04-.21.08-.41.12-.62.11-.05.21-.1.3-.15.17.31-.01.57-.08.88.4.03.77,0,1.14.02.3.01.58-.06.85-.18.12-.05.23-.11.35-.16.02-.01.06,0,.1.01.02.09.04.18.06.29.19.09.38.15.6.15.29,0,.58,0,.87.03,1,.07,2,.16,3,.22.58.04,1.16.05,1.77.07.12-.06.26-.14.43-.23.14.09.28.19.47.31.2,0,.45-.03.69,0,.52.08,1.03.09,1.55.07.19,0,.39.02.58.04.42.05.83.1,1.25.15.24.03.48.05.72.07.27.03.55.07.82,0,.03-.04.06-.08.08-.13.11.05.23.11.35.14.32.07.64.12.96.1.41-.02.81,0,1.21.07.35.06.71.08,1.06.08.52,0,1.03-.06,1.64-.1,1.01-.74,2.18-1.35,3.31-2.01.04-.11.07-.18.11-.26.03-.07.08-.13.12-.19.18.05.33.1.5.14.22-.34.23-.74.4-1.09h.19s.03-.06.04-.09c.31-1.39.62-2.78.93-4.17.01-.05.03-.1.02-.14-.08-.23.02-.45.06-.67.04-.25.11-.51.17-.76.02-.08.02-.17.07-.23.14-.17.17-.38.21-.59.16-.71.32-1.42.48-2.13.87-3.95,1.74-7.91,2.62-11.86.11-.5.22-1.01.32-1.52-.43-.72-.85-1.43-1.29-2.15-.11-1.17-.23-2.34-.34-3.52-.11-1.19-.23-2.39-.33-3.58-.11-1.34-.3-3.25-.39-3.52-.09-.04-.17-.07-.28-.12-.3-3.18-.6-6.36-.9-9.53-.24-.12-.4-.31-.65-.39-.13.28-.21.55-.21.85,0,.36,0,.71-.02,1.07,0,.37-.1.73-.27,1.03-.02-.08-.05-.14-.05-.19,0-.79,0-1.59.02-2.38,0-.26.01-.52-.19-.78-.4-.2-.82-.49-1.38-.49-.05,1.53.04,3.03-.07,4.53-.19.03-.32-.07-.48-.13-.03-.34-.07-.66-.03-.99.03-.24.05-.49.03-.73-.04-.86-.09-1.72-.13-2.57-.02-.37-.19-.67-.43-.93-.1,0-.18,0-.26,0-.08.01-.15.04-.25.07,0,.44-.16.83-.36,1.23.23.42.29.88.26,1.36,0,.03,0,.07.01.1.13.39.05.77-.05,1.16-.08.03-.16.05-.28.09,0-.63,0-1.21,0-1.79,0-.16,0-.33-.03-.48-.14-.62-.18-1.25-.16-1.88,0-.13,0-.25-.01-.39-.71-.49-1.43-.92-2.33-.87-.19.01-.39-.02-.58-.01-.11,0-.22.04-.32.06-.09.28-.06.54-.06.79,0,.76.01,1.52.01,2.29,0,.23,0,.46-.03.68-.08.42-.06.84-.01,1.26.03.21.03.42.05.61-.08.08-.12.15-.24.11-.12-.31-.13-.65-.09-.98.06-.52.03-1.03,0-1.55-.04-.76,0-1.52.01-2.28,0-.24.03-.48-.03-.74-.15-.11-.3-.23-.47-.36-.21.12-.4.24-.61.36-.02.5-.05.98-.07,1.47-.2.04-.36.02-.48-.1-.02-.45.2-.8.34-1.17-.09-.16-.2-.26-.37-.32-.05.31-.07.59-.13.87-.11.51-.14.55-.38.73-.08-.26-.05-.52-.04-.78,0-.35-.08-.67-.23-.99-.09,0-.2.01-.24-.03-.19-.21-.44-.18-.67-.19-.57-.04-1.13-.08-1.7-.1-.32-.01-.65,0-.99,0-.08.1-.17.21-.26.32.08.24.19.44.23.66.04.22.02.45.01.68,0,.22.03.44-.03.68-.21-.08-.33-.21-.46-.34v-1.55c-.12-.18-.14-.41-.33-.55-.41,0-.84-.06-1.22.26v1.4c-.11.15-.19.27-.26.38.07.09.13.17.19.25-.07.22-.14.44-.21.65,0,.03-.04.04-.08.07-.16-.21-.16-.45-.16-.7,0-.57,0-1.14,0-1.7,0-.13-.02-.26-.02-.4-.18-.11-.36-.22-.52-.32-.46-.03-.9-.06-1.33,0-.11.16-.07.32-.08.48,0,.68,0,1.36,0,2.04,0,.14-.02.29-.02.42-.15.04-.25.16-.4.06.04-.12.08-.24.11-.36-.07-.12-.14-.24-.21-.36.03-.7-.08-1.41.11-2.13-.14-.11-.26-.21-.38-.31-.25.06-.49.06-.67.22-.05-.09-.1-.19-.16-.31-.15.21-.2.41-.24.57.04.28.08.52.12.78-.16.17-.32.35-.49.53.18.11.33.19.49.29.07.14.15.29.22.43-.06.22-.11.44-.15.6.1.5.19.94.28,1.38-.08.13-.14.23-.22.38-.08-.14-.13-.24-.18-.33.03-.19.06-.36.09-.51-.11-.16-.2-.29-.29-.42.04-.12.07-.23.11-.34-.22-.38-.44-.75-.66-1.13-.07-.74,0-1.48-.05-2.23-.25-.11-.48-.13-.74-.08-.07.11-.14.22-.2.3-.02.76-.04,1.48-.06,2.17-.13.16-.24.28-.35.41.05.18.09.35.14.53-.06.05-.11.1-.18.17-.2-.3-.31-.59-.26-.94.09-.62.16-1.25.23-1.79.15-.23.26-.39.35-.54-.46-.51-.73-.56-1.4-.28-.08.1-.15.2-.23.32-.23-.13-.24-.4-.43-.54-.54-.04-1.09-.08-1.64-.12-1.39-.08-2.78-.15-4.18-.24-.29-.02-.54.04-.79.17-2.8,1.39-5.6,2.78-8.4,4.16-.13.06-.26.14-.39.21-.08.14-.15.29-.23.43,0,.12,0,.23,0,.34ZM220.94,69.58c-.24-.08-.52-.02-.79-.03-.23.12-.46.24-.69.36-.09-.12-.16-.22-.24-.34-.33.08-.69-.01-1,.29.18.06.32.11.48.16-.02.21-.11.35-.22.5-.25-.02-.45-.12-.66-.23v-.4c-.09-.07-.18-.14-.27-.22-.12-.01-.25-.03-.42-.04-1.7-1.29-3.43-2.61-5.15-3.91-.1-.19-.05-.37-.05-.54.07-2.29.15-4.57.22-6.86.08-2.32.15-4.64.22-6.95.06-1.9.12-3.79.19-5.69.08-2.32.17-4.64.25-6.95.05-1.56.09-3.11.14-4.67.01-.36.04-.71.06-1.08,1.29-1,2.57-1.99,3.85-2.97.33-.02.62.09.92.16,3,.7,5.99,1.4,8.98,2.1,1.83.43,3.66.85,5.49,1.28.08.02.15.05.24.09.04,1.11-.07,2.21-.08,3.31-.02,1.09-.06,2.17-.09,3.26-.03,1.1-.07,2.2-.1,3.31-.03,1.09-.06,2.17-.1,3.26-.03,1.1-.07,2.2-.1,3.34.64,1.06,1.29,2.14,1.96,3.26-.27,1.36-.59,2.73-.89,4.1-.3,1.36-.59,2.72-.89,4.08-.3,1.38-.61,2.75-.92,4.19-1.02,1.12-2.1,2.27-3.16,3.41-.5.11-1.01.07-1.5.11-.06.14-.11.28-.16.41-.05.13-.1.26-.16.42-.04-.08-.1-.16-.11-.24-.02-.17-.02-.35-.02-.56h-.34c-.1.23.05.42.06.68-.05.18-.1.42-.16.66-.13.04-.25.08-.4.13-.03-.18-.05-.33-.07-.47.06-.16.11-.3.15-.44-.05-.17-.11-.33-.17-.52-.11,0-.22-.02-.33-.01-.37,0-.75-.03-1.12.03-.72.12-1.45.06-2.21.14-.14.13-.3.27-.45.41.1.07.21.13.3.19,0,.13-.08.17-.2.21-.15-.1-.14-.25-.09-.41-.17-.04-.09-.22-.19-.34ZM237.09,27.4c0-.16,0-.33.19-.45.05.01.13.03.22.05.09.13.18.26.23.34.14.39-.1.62-.2.9.03.14.06.3.1.46-.03.1-.06.21-.09.34.07.09.13.17.21.28-.08.21-.16.44-.25.69.06.16.13.34.2.5-.18.2-.19.2-.39.26-.27-1.11-.27-2.24-.22-3.38ZM242.36,58.33c-.22-.17-.25-.41-.33-.66.06-.12.13-.24.2-.35.04-.26-.21-.46-.08-.73.2-.01.26.17.4.26.05.26.13.53.14.8.02.57.05,1.13-.1,1.69-.07.24-.08.5-.13.78-.21-.07-.31-.24-.46-.37v-1.11c.12-.11.23-.21.35-.32ZM228.28,26.28c-.07.16-.13.3-.21.46.1.15.21.3.33.47.03.21.05.43.08.67-.07.03-.13.05-.22.08-.12-.17-.23-.35-.33-.49v-1.31c.15.06.24.09.35.13ZM237.3,26.61c-.01-.07-.03-.13-.03-.19,0-.53,0-1.06,0-1.62.23.11.28.29.3.47.04.43.04.86.06,1.35h-.33ZM225.11,28.03c-.1-.39-.12-.73-.06-1.09.18-.02.33.04.45.14,0,.37-.09.67-.39.95ZM239.52,32.79c.12-.31.15-.68.55-.87,0,.43-.05.81-.26,1.15-.19-.01-.22-.14-.29-.28ZM230.32,73.31c-.14-.16-.24-.27-.33-.38.04-.24.08-.44.12-.67.19.15.27.36.39.57-.05.13-.11.28-.18.47ZM241.76,63.49s.08.09.14.15c-.09.12-.17.24-.27.38.04.11.09.24.14.38-.04.02-.08.04-.12.06-.03-.02-.07-.04-.08-.06-.09-.33-.23-.67.02-1.02.07.04.12.07.17.11ZM218.66,25.27c-.06.14-.12.28-.16.4-.04.21.28.42-.03.6-.1-.32-.13-.85,0-1.48.06.16.12.32.18.48ZM239.96,65.63v.4c-.34-.02-.38-.31-.49-.57.16.05.32.11.49.16ZM240.62,71.89c-.05.06-.1.12-.16.19-.05-.05-.1-.08-.1-.11-.01-.17-.05-.35.03-.49.04-.02.06-.03.06-.03.09.08.18.17.29.27-.07.09-.09.13-.12.17ZM212.56,23.77q.17.19.25.66c-.32-.19-.29-.41-.25-.66ZM210.96,72.19c-.1-.17-.17-.29-.25-.43.07-.05.12-.09.19-.13.13.17.14.32.06.56ZM237.57,52.97c.16,0,.26.05.32.2-.07.04-.15.09-.29.18-.02-.18-.02-.28-.03-.38ZM238.38,31.63c.05.07.08.12.13.19-.07.09-.14.18-.25.34,0-.23-.01-.38.12-.53ZM239.8,56.3c-.05.06-.09.11-.16.21-.08-.18-.04-.3.02-.47.06.1.09.17.14.26ZM240.62,55.59c.06.04.11.05.13.09.04.04.07.1.13.2-.12-.01-.18-.02-.29-.04.01-.12.02-.18.03-.25ZM239.47,62.81c-.08.1-.13.17-.24.29v-.51c.11.1.16.15.24.22ZM236.65,65.16c-.08-.04-.13-.07-.22-.12.07-.07.12-.12.17-.16l.08.03c0,.07-.02.14-.03.25ZM230.48,70.76c.03-.06.06-.12.15-.27v.31c-.05-.02-.08-.02-.15-.04ZM240.43,59.9s-.03-.08-.05-.13c.05-.02.09-.04.12-.05.1.11.06.17-.08.18ZM232.12,26.95c-.12-.17-.13-.25,0-.35v.35ZM241.65,65.3q.14.13.04.24c-.01-.07-.02-.14-.04-.24ZM219.03,70.78s0-.03,0-.04c.02,0,.04.02.06.02,0,.01-.02.02-.02.03-.01,0-.03,0-.03-.02ZM242,31.87s-.08-.07-.16-.14c.2-.05.19.03.16.14ZM224.76,70.88h-.25c.02-.07.03-.11.05-.16.06.05.1.08.2.16ZM239.27,52.52c-.13-.01-.19,0-.23-.03-.03-.02-.01-.09-.02-.21.1.1.15.14.25.24ZM173,74.95c1.17-.02,2.33-.04,3.5-.04,2.5,0,4.99.01,7.49-.12.28-.01.55-.02.83-.03.77-.04,1.51-.15,2.2-.52.2-.11.42-.18.63-.25.31-.11.6-.25.88-.41.38-.22.76-.46,1.17-.59.65-.2,1.27-.48,1.89-.76.94-.43,1.92-.76,2.82-1.29.14-.08.3-.13.45-.19.12-.05.25-.09.36-.15.55-.31,1.1-.63,1.65-.94.43-.25.8-.55.99-1.07.02-.26.04-.55.06-.84.02-.34.07-.68.06-1.02-.01-.58-.09-1.17-.08-1.75.02-.86-.13-1.71-.17-2.57-.04-.86-.07-1.72.01-2.57.02-.17,0-.36-.04-.53-.07-.4-.12-.8-.11-1.21,0-.63-.02-1.26-.03-1.89-.09-.13-.17-.25-.26-.38.07-.21.13-.43.2-.64-.09-.13-.17-.25-.25-.38.08-.17.16-.33.23-.46-.07-.36-.26-.66-.21-1.01.08-.25.18-.49.2-.75.03-.3-.01-.61-.03-.92-.02-.34-.05-.68-.07-1.02-.03-.52-.07-1.03-.1-1.55-.02-.29-.06-.58-.08-.87-.04-.61-.18-1.18-.59-1.65-.21-.04-.39.03-.56.12-.08.2-.16.39-.23.55-.17.09-.31.12-.48.06v-.66c-.12-.15-.21-.28-.31-.4-.24.02-.47.04-.68.06-.19-.12-.37-.23-.54-.33-.18.04-.34.06-.49.11-.16.05-.32.13-.47.19-.17-.17-.15-.43-.37-.55-.22-.02-.46-.07-.72-.03-.02.25-.04.47-.05.69,0,.41,0,.81,0,1.22,0,.27-.05.53-.17.82-.18-.21-.26-.42-.37-.63v-1.78c-.12-.17-.13-.41-.35-.55-.15.09-.29.18-.4.25-.2.39-.12.74-.08,1.13-.1,0-.17-.01-.25-.02-.02-.51-.04-.99-.06-1.49-.24-.04-.45-.12-.66-.08-.19.24-.13.59-.43.78-.01-.18-.03-.34-.04-.49-.2-.39-.39-.76-.57-1.12.43-.48.55-.58.85-.71.04.03.07.06.11.1.22-.17.44-.34.65-.51.05-.2.13-.39.14-.58.02-.39.02-.77.06-1.16.03-.22-.04-.45-.07-.7.21-.33.04-.76.23-1.2.09.15.18.23.19.33.02.22.05.46,0,.67-.18.73-.05,1.44.04,2.15.05,0,.09.02.11,0,.72-.43,1.42-.9,2.1-1.38.06-.15.12-.28.17-.41.24-.04.46-.09.68-.13.21-.19.41-.38.6-.56-.04-.46-.13-.87-.24-1.27-.26-.89-.48-1.78-.67-2.69-.14-.65-.32-1.29-.64-1.87,0-.42-.11-.81-.23-1.2-.17-.54-.35-1.08-.5-1.62-.44-1.52-.87-3.05-1.31-4.58-.08-.26-.16-.52-.23-.74-.33-.36-.67-.63-1.1-.77-.26-.09-.5-.22-.76-.33-.09-.04-.18-.06-.26-.08-.09.09-.16.16-.26.26-.07-.18-.12-.31-.18-.46-.51-.23-1.02-.46-1.52-.69-.19.03-.36.06-.54.08-.09-.17-.16-.31-.24-.46-.42-.21-.84-.43-1.26-.63-.13-.06-.27-.09-.41-.12-.42-.1-.84-.04-1.23.08-.23-.05-.45-.1-.68-.15-.13.08-.25.15-.38.24-.01.54-.03,1.07-.04,1.61,0,.19-.01.39-.03.58,0,.02-.04.05-.08.09-.06-.03-.13-.06-.2-.09-.01-.53-.1-1.05.16-1.52-.1-.38-.28-.68-.53-.92-.33,0-.65.04-.94,0-.55-.09-1.1-.08-1.64-.08-.06.05-.1.09-.12.11-.53-.19-1.05-.22-1.57-.19-.04.07-.08.12-.11.18-.07-.02-.13-.03-.19-.05-.5-.17-1-.26-1.53-.25-.11,0-.23,0-.34-.01-.37-.07-.7.02-1.04.19-.03.11-.06.23-.1.44-.08-.28-.14-.48-.2-.69-.27-.02-.53-.04-.76-.05-.09.13-.16.24-.23.35-.12-.15-.22-.27-.32-.38-.21.04-.4.07-.55.1-.2.09-.25.3-.42.34-.22-.15.03-.36-.13-.53-.47-.04-.97-.08-1.46-.12-.18.09-.35.18-.52.26-.04.25-.08.47-.11.69-.03.22-.04.44-.05.66-.09.04-.15.06-.22.09-.22-.55-.04-1.13-.17-1.69-.08-.02-.15-.04-.21-.04-.63-.04-1.26-.07-1.89-.1-.49-.02-.97-.02-1.46-.03-.04,0-.09.03-.13.05-.07.13-.14.26-.21.38h-.26c-.08-.17-.16-.32-.25-.5-.45.05-.89.04-1.31-.08-.06-.02-.13,0-.19-.01-.31-.02-.61-.05-.92-.06-.65-.02-1.29-.05-1.96.05-.09.12-.18.25-.27.37.07.05.11.07.17.12.01.12.03.26.04.4-.16.12-.3.23-.47.37.13.39-.13.76-.09,1.16.11-.02.18-.03.28-.04,0,.16.01.3.02.41-.07.16-.13.29-.19.41.12.18.4.13.44.38-.07.05-.14.11-.25.18.71.42,1.15,1.06,1.6,1.66.04.35.04.67-.09.98-.04.1-.05.22-.05.33.03.45.07.9.12,1.35.02.21.04.42-.01.63-.05.22-.05.45.03.67.04.12.06.25.1.4-.19.34-.16.73-.17,1.12,0,.24,0,.49-.04.73-.04.21-.04.41,0,.63.07.48.1.96-.02,1.45-.05.18-.03.39,0,.58.1.81.1,1.62,0,2.42-.04.27-.07.55,0,.82.16.57.09,1.16.08,1.74,0,.35-.05.7-.01,1.06.02.19-.01.39,0,.58,0,.18,0,.36.05.53.09.3.09.61.09.91,0,.63,0,1.26.01,1.89,0,.11.02.23.06.33.11.3.07.6.05.91-.03.34-.03.68-.02,1.02,0,.26.05.52.06.78.02.5.03,1,.04,1.51.03,1.34.06,2.69.1,4.03,0,.16.01.32.02.49.04.48.1.97.11,1.45.03,1.13.15,2.27.12,3.4,0,.05,0,.1.01.14.07.09.09.22.24.2.03-.06.05-.12.09-.2.09.14.17.26.23.36,0,.19.02.34-.05.5-.18-.05-.15-.3-.37-.32-.05.22-.17.42-.02.66.11-.03.22-.05.34-.08v1.15c-.12.18-.23.34-.33.5.1.2.19.37.29.55,0,.14,0,.28,0,.43.01.7.04,1.39.03,2.09,0,.6-.02,1.2-.17,1.79,0,.02-.03.04-.05.07-.09-.06-.17-.11-.27-.17-.06.08-.11.13-.15.2-.02.04-.02.09-.05.18.08.14.17.31.26.48-.04.04-.09.08-.14.12,0,.31,0,.62.08.92.06.21.09.44,0,.69-.13-.07-.22-.15-.26-.28.04-.17.08-.34.12-.52-.08-.2-.16-.39-.24-.59,0-.16-.02-.32-.02-.48,0-.16,0-.32,0-.49,0-.16.02-.31-.04-.5-.3.09-.52.24-.72.37-.24.4-.35.8-.32,1.23.02.24.02.49.02.73,0,.16,0,.32-.03.48,0,.06-.07.11-.15.23,0-.27-.01-.47,0-.66.01-.19.06-.38.08-.55-.12-.24-.22-.46-.33-.68-.02-.03-.07-.05-.13-.08-.11.1-.22.2-.32.29-.15,1.01-.44,1.97-.48,2.98,0,.06-.01.13-.04.19-.2.49-.19,1.01-.22,1.53-.02.3.04.58.25.85.17,0,.34,0,.52,0,.42,0,.84,0,1.26,0,.62.02,1.23.05,1.85.07.26,0,.51-.04.77-.21-.15-.67-.09-1.35-.09-2.01.14-.16.27-.3.4-.45-.12-.05-.21-.08-.28-.11-.02-.04-.03-.06-.03-.07.02-.71.04-1.42.05-2.14,0-.23.07-.44.18-.63h.29c.01.07.03.12.03.16,0,.76,0,1.52-.02,2.29-.01.31-.03.61.12.9.04.08.04.19.05.28.02.53.03,1.07.05,1.6,0,.14.02.28.03.41.43.09,1.28.13,1.57.09.11-.23.16-.48.15-.75,0-.26,0-.52,0-.78-.01-.46.02-.91.11-1.35.02-.09.05-.18.09-.3.14.18.25.33.36.47q.03.69.27,1.25c.12.52-.07.98-.03,1.44.21.07.37,0,.54-.05.02-.35-.03-.69.2-1.01.21.34-.1.66.07.99.14.06.3.13.44.2.36-.06.6-.27.84-.5.08.18.14.32.21.48.34-.12.53-.38.77-.65.03.22.05.39.08.56.23.08.46.08.68.09.16-.16.24-.36.32-.53-.02-.09-.03-.16-.05-.28.14.05.25.1.35.13.02.24.03.45.04.69.28.02.53.04.75.06.22-.1.4-.19.61-.29.34.24.7.26,1.08.26ZM170.53,71.53c.01.6,0,1.2,0,1.8,0,.16-.02.33-.14.46-.18-.06-.26-.23-.39-.38.02-.21.04-.43.06-.66.03-.52.05-1.03.08-1.55,0-.23-.03-.45-.14-.69-.45,0-.88.25-1.36.24-.11-.33-.16-.64-.11-.97.03-.19.04-.39,0-.58-.11-.61-.07-1.23-.04-1.84.04-.74.09-1.49.13-2.23.04-.65.09-1.29.09-1.94,0-.52.01-1.03.07-1.55.01-.13-.01-.26-.02-.39,0-.29,0-.58-.01-.87,0-.29-.02-.58-.04-.97.26-.58.13-1.28.16-1.97-.07-.1-.13-.19-.2-.28,0-.03,0-.07,0-.09.12-.17.14-.35.14-.55,0-.36.04-.71.02-1.07-.02-.44-.07-.87-.11-1.31-.01-.14-.04-.29-.04-.43,0-.42,0-.84-.01-1.26-.02-.45-.06-.9,0-1.36.03-.22,0-.45-.01-.68-.02-.47.04-.93.24-1.37.11,0,.21-.02.3,0,.3.08.61.07.92.08.31.02.61.05.92.07.18.01.36.03.53.03.55,0,1.1,0,1.65,0,.13,0,.26,0,.39.03.26.06.51.04.77.02.26-.02.51,0,.81,0,.06-.07.15-.18.26-.32.19.24.46.26.74.27.14,0,.29.05.43.07.11.02.22.02.34.03.05-.15.1-.28.14-.41.02,0,.04,0,.06,0v.28c.42.17.85.35,1.3.29.59-.09,1.14-.03,1.72.12.45.12.93.13,1.39.19.19.03.38.05.57.09.5.13,1.01.22,1.53.21.39-.01.72.13,1.03.37.49.38.88.86,1.32,1.29.37.36.63.78.83,1.26-.09.65-.1,1.32-.09,1.98,0,.27-.06.55-.13.81-.08.3-.13.6-.07.92-.25.33-.25.69-.06,1.08-.07.05-.13.09-.22.16-.06.28-.12.6-.18.9.09.32.17.61.27.93-.13.07-.25.13-.39.21.01.14.02.28.03.45-.31.56-.16,1.22-.33,1.82.09.13.17.25.25.38-.31.29-.35.67-.4,1.06-.07.48-.13.96-.22,1.44-.06.33-.17.66-.33,1-.56.21-1.13.43-1.71.63-.93.32-1.87.63-2.83.86-.16.04-.3.12-.45.17-.26.08-.53.15-.79.22-.08.02-.16.02-.24.05-.51.15-1.02.32-1.53.46-.37.1-.76.18-1.13.26-.08.02-.16.03-.23.06-1.26.46-2.57.75-3.89,1.04-.46.1-.9.26-1.32.38-.31.44-.31.86-.3,1.29ZM169.78,27.6c.08.02.16.03.23.05.2.08.41.08.62.04.25-.04.51-.08.77-.09.55-.02,1.08-.16,1.62-.32.02-.21.04-.42.07-.64.09.02.15.03.23.05v.43c.12.15.24.18.38.18.36,0,.71,0,1.07-.02.6-.03,1.2-.07,1.83-.11.07-.06.17-.14.27-.23.1.06.2.12.28.16.63,0,1.65-.12,2.1-.23,0-.07.02-.15.02-.23,0-.18-.03-.36-.04-.53-.03-.33-.03-.65.17-.91,0-.29-.16-.55-.01-.85.19.16.18.37.27.53-.05.33-.1.65-.15.93.12.36.22.68.34,1.03.2.09.42.18.6.26.45.84.88,1.63,1.3,2.43.06.11.11.24.29.27.15-.28.02-.69.35-.91.11.05.05.16.07.24.02.09.03.19.04.29.02.11.05.22.05.33,0,.09-.02.19-.05.28-.03.09-.07.18-.11.27-.03.09-.06.18-.1.28.26.62.53,1.25.81,1.92.28.2.38.53.45.89.06.32.15.63.31.92.1,0,.19-.01.33-.02-.09-.12-.16-.21-.23-.31.03-.06.07-.13.11-.22.12.11.21.2.3.28.04.22.08.43.11.63-.06.22-.12.44-.17.64.15.5.7,1.61,1.02,2.05.15-.05.2-.16.19-.3-.01-.18-.05-.35-.07-.53-.03-.27-.05-.55-.07-.82.15-.18.28-.34.41-.49.22.05.27.25.4.34v.67c-.16.09-.32.17-.49.27v.4c.11.1.23.21.36.33-.04.14-.08.28-.13.44.11.09.22.17.33.26q.11.58-.03,1.24c-.16.22-.47.29-.54.59-.62-.03-1,.38-1.38.77-.49.09-.94.26-1.37.5-.37.2-.76.37-1.14.55-.16.08-.33.11-.52.1-.29-.02-.58-.01-.87-.03-.24-.01-.48-.04-.72-.06-.16-.01-.32-.03-.48-.03-.8,0-1.59-.04-2.37-.2-.48.11-.97.13-1.43,0-.19.06-.36.12-.54.18-.17-.09-.34-.17-.51-.26-.25-.04-.51-.08-.76-.11-.29-.04-.38,0-.61.19-.21-.12-.42-.24-.66-.22-.52.04-1.03-.11-1.54-.13-.15,0-.3-.03-.44,0-.38.06-.74,0-1.13-.07-.09-.1-.18-.21-.28-.32,0-.14.02-.26.02-.39,0-.19.02-.39-.02-.58-.07-.42-.05-.84.03-1.26.06-.29.06-.58.05-.87,0-.23,0-.45,0-.68,0-.19.02-.39.02-.58-.04-.89-.03-1.78.03-2.67.03-.42.02-.84,0-1.26-.04-.83-.07-1.65,0-2.48.03-.31.03-.62,0-.92-.04-.33,0-.64.14-1.02.17-.09.36-.18.55-.28ZM162.83,64.82c.09-.1.2-.21.32-.35-.12-.09-.22-.17-.33-.25v-.76c.15-.29.3-.57.46-.88.09.07.2.15.34.26-.08.09-.14.16-.21.24v.71c.12.15.23.28.35.43.04.97.1,1.96-.1,2.96-.12.02-.24.04-.41.07.11.08.19.13.26.18-.02.25-.03.48-.05.7-.2.14-.34.32-.6.38-.09-.29-.07-.56-.07-.83,0-.26,0-.51.06-.77.07-.27.22-.5.39-.75-.15-.09-.28-.17-.43-.26v-1.09ZM165.54,64.63c.2.24.31.5.31.8,0,.18-.01.35-.05.53-.05.25-.12.5-.18.77-.3-.34-.25-.75-.34-1.13.1-.19.2-.37.31-.57-.15-.18-.29-.36-.46-.57-.01-.46-.06-.96-.03-1.46.02-.28.14-.56.23-.83.07-.2.17-.38.25-.57.01,0,.02-.01.03-.02.05.08.09.17.14.25-.05.23-.1.45-.15.67.05.2.1.4.16.59-.13.24-.26.46-.39.68-.01.02,0,.06,0,.12.13.03.17-.12.28-.13.12.04.08.16.12.24.03.07.05.15.08.27-.11.12-.21.23-.32.35ZM165.89,67.52c.08.62.07,1.27.38,1.82-.03.11-.06.18-.08.26-.02.06-.04.12-.07.2.19.43.05.85-.02,1.28-.16.03-.09-.16-.18-.17-.16-.12-.31-.24-.46-.35.01-.11.02-.19.03-.27.07-.35.05-.71,0-1.06-.1-.61-.07-1.23-.02-1.84,0-.01.02-.02.07-.09.12.08.23.15.35.23ZM189.39,38.77c0,.15,0,.29,0,.44,0,.18-.01.35-.09.52-.13.27-.13.56-.08.85.03.19,0,.38,0,.58-.18.02-.24-.11-.32-.23v-1.52c.08-.17.16-.33.22-.47-.05-.79-.15-1.57.2-2.3.03,0,.05,0,.06.01.06.07.12.14.18.21v1.53c-.06.12-.12.25-.18.38ZM168.93,72.66c-.02-.28-.34-.48-.23-.83.16.12.29.22.45.34.03.42.03.85-.04,1.29-.17-.04-.22-.16-.29-.32.04-.16.07-.32.1-.48ZM163.01,62.48c-.28-.38-.19-.78-.19-1.18.11-.04.21-.07.34-.12.11.49.16.9-.16,1.3ZM187.79,40.79c-.06-.05-.13-.09-.15-.14-.04-.1-.07-.21-.07-.32,0-.26,0-.51,0-.77,0-.26,0-.51,0-.77,0-.09.04-.17.08-.34.07.12.12.17.12.21,0,.34-.03.67-.05,1.17.02.19.23.54.07.95ZM182.39,24.52c-.09-.34-.18-.65.02-1.02.11.17.19.3.26.42.03.23.03.43-.05.66-.08-.02-.15-.04-.23-.06ZM191.41,38.18c0,.1-.07.19-.13.35-.05-.35-.09-.62-.12-.89-.03-.22-.02-.22.21-.54.13.41.07.74.04,1.08ZM193.83,61.41c.05.11.09.17.1.24.04.26,0,.51-.07.75,0,.03-.07.06-.12.1-.17-.19-.14-.42-.17-.65.09-.15.16-.27.26-.43ZM191.28,42.15c-.2-.05-.22-.25-.33-.38.14-.14.22-.32.44-.4.06.29.1.54-.11.79ZM192.47,35.03c.1.03.21.07.37.13-.16.22-.29.41-.41.58-.12,0-.14-.06-.14-.13,0-.14.02-.28.03-.45.06-.06.1-.09.15-.14ZM161.77,23.88c-.07,0-.14.02-.23.03-.12-.26-.05-.52-.03-.79.18.21.32.44.25.76ZM163.11,26.23c-.08.29-.15.59-.38.94.04-.44.08-.76.12-1.18.12.11.19.17.27.23ZM186.83,51.63s-.08.04-.12.06c-.16-.08-.16-.23-.2-.36.15-.09.29-.18.44-.28v.48s-.08.08-.11.1ZM167.9,71.85c.04-.18.07-.33.18-.46.18.38.18.4-.05.86-.05-.16-.09-.29-.13-.4ZM188.88,42.78c.05-.08.09-.15.15-.24.12.15.22.27.34.41-.08.1-.14.18-.23.29-.1-.18-.18-.31-.26-.46ZM187,43.21c-.12.04-.21-.03-.32-.09-.08-.19-.08-.38,0-.59q.25.29.32.69ZM194.25,51.5c.1-.06.21-.12.31-.18.04.03.07.05.07.07.02.18.09.38-.13.51-.14-.09-.24-.2-.25-.39ZM190.95,35.62s.07-.08.12-.14c.12.07.24.14.37.21-.02.16-.07.28-.23.35-.09-.15-.17-.29-.26-.42ZM190.48,38.89c-.09.07-.17.14-.29.22-.03-.29-.05-.53.25-.72.01.2.02.34.03.5ZM185.33,34.41c.04-.13.07-.24.1-.35.04,0,.08,0,.09.02.09.18.18.37.27.55-.02.02-.05.04-.07.06-.13-.09-.25-.18-.39-.28ZM160.28,71.25q.22.29.08.6-.15-.35-.08-.6ZM167.83,66.15c-.06-.24-.13-.44.11-.64.06.24.16.45-.11.64ZM163.16,30.54c-.07.06-.13.1-.21.16-.17-.14-.11-.3-.06-.49.07.09.15.19.26.33ZM188.96,42.11c-.08-.13-.04-.23.04-.31.09-.04.15.03.23.29-.1,0-.19.01-.28.02ZM190.96,31.09c-.08-.06-.06-.13.12-.47.07.18.08.18.03.46-.07,0-.12,0-.15.01ZM166.41,64.29c.16.24.16.24.06.79-.13-.31-.1-.53-.06-.79ZM163.01,31.96c.05-.11.08-.21.14-.35.1.15.14.27.13.45-.1-.04-.17-.06-.27-.1ZM164.02,39.99v-.36c.09.07.16.12.25.19-.09.06-.15.1-.25.16ZM192.4,64.24c-.09.05-.17.09-.29.16.01-.15.02-.24.03-.41.11.1.17.16.26.25ZM161.48,32.23c.19-.06.25.06.35.15,0,.04,0,.1-.01.22-.13-.14-.22-.23-.34-.36ZM189.47,36.08c-.09-.06-.14-.1-.21-.14.07-.09.12-.16.21-.27v.41ZM194.29,46.7s.04,0,.07,0c0,.12-.01.23-.02.35-.03,0-.06-.01-.09-.02.01-.11.02-.22.04-.33ZM169.65,24.28c.11.1.18.17.3.28-.13.02-.2.04-.32.06.01-.14.02-.21.03-.34ZM176.11,24.84c.11,0,.14.08.13.21-.17-.01-.18-.08-.13-.21ZM161.56,56.74q-.2.02-.15-.2c.05.07.1.13.15.2ZM186.88,41.71v-.31q.13.19,0,.31ZM163.05,29.48c-.01-.07-.02-.13-.04-.21.12.03.17.07.15.16-.03.01-.06.02-.12.04ZM183.32,29.49c0,.06.01.11.02.17q-.14-.08-.02-.17ZM185.52,31.14c.07-.04.12-.07.17-.1q-.04.14-.17.1ZM187.45,36.4s0,.09-.02.13c-.17-.07-.04-.17-.03-.25.02.04.04.08.05.12ZM185.46,42.91h-.02v-.12s.02,0,.03,0v.12ZM176.59,23.95s.04-.02,0,0c.05,0,.02,0,0,0ZM123.71,68.67c-.01-.45-.05-.91-.09-1.36-.07-.68-.17-1.35-.25-2.03-.07-.61-.11-1.22-.23-1.83-.04-.23-.04-.49,0-.73.03-.25.01-.48-.03-.72-.04-.22-.05-.45-.07-.67-.01-.15,0-.3-.03-.44-.1-.4-.08-.8-.09-1.21,0-.13,0-.26-.02-.39-.11-.55-.09-1.1-.09-1.65,0-.19,0-.39-.02-.58-.1-.69-.07-1.39-.1-2.09-.03-.68.01-1.36.02-2.04,0-.11-.01-.23-.02-.34-.07-.58-.17-1.15-.16-1.74,0-.26-.03-.52-.06-.78-.04-.4-.1-.8-.13-1.21-.08-.89-.09-1.78-.18-2.66-.09-.98-.15-1.97-.19-2.96-.05-1.36-.26-2.7-.4-4.08-.18-.13-.37-.28-.53-.4-.1,0-.14,0-.19,0-.04,0-.09,0-.13,0q-.03-.37.16-.76c.11-.02.23-.05.37-.08-.05-.09-.08-.16-.12-.22.08-.28.24-.54.11-.84-.32-.07-.39.21-.5.39-.04-.01-.06-.02-.07-.03-.02-.03-.04-.05-.05-.08-.15-.64-.37-1.28-.32-1.96.01-.14-.03-.29-.05-.43-.09-.76-.18-1.51-.08-2.28.03-.22.04-.45.04-.68-.01-.35.05-.67.15-1,.06-.21.08-.44.1-.67.02-.14.02-.29.02-.44,0-.47.03-.94.02-1.41,0-.27-.05-.54-.2-.79-.13.07-.24.13-.33.18-.16-.09-.28-.16-.43-.24-.51.13-1.02.27-1.55.4-.1.37-.18.73-.19,1.11-.01.36-.06.71-.09,1.06-.02.21-.13.36-.29.51-.09-.11-.17-.2-.22-.26,0-.36.01-.67,0-.98-.02-.32.07-.64-.01-.95-.5-.17-.92-.02-1.37.15-.12.15-.25.32-.38.48.14.4.11.79.11,1.18,0,.66-.02,1.33-.02,1.99,0,1.22,0,2.43.02,3.65,0,.29-.03.58-.1.86-.05.19-.07.38-.08.57,0,.29.03.58.05.91-.08-.07-.15-.1-.18-.16-.14-.3-.23-.6-.23-.94.01-.75,0-1.49,0-2.24,0-.29.02-.58.1-.87.1-.35.11-.7.09-1.06-.01-.31-.03-.62-.03-.92,0-.63.02-1.26.03-1.9,0-.19-.02-.39-.03-.58-.01-.19.02-.38-.04-.58-.25-.05-.47,0-.68,0-.22.13-.43.25-.61.36-.12.45-.17.87-.08,1.29.02.09.01.19.01.29.01,1.52.03,3.05.03,4.57,0,.68.11,1.32.34,1.95.13.36.17.72.07,1.1-.05.2-.05.38.04.57.12.26.15.53.13.81-.01.21-.05.42-.06.63-.04.61-.14,1.19-.49,1.65v.65c-.37.4-.45.9-.42,1.44.01.15.02.29,0,.44-.01.29.08.53.24.78.13-.06.25-.1.39-.16.05.23.09.43.13.6-.04.15-.08.28-.11.4-.03.13.03.28-.05.41-.2-.01-.3-.21-.53-.19.05.17.1.31.15.46.17.02.31.04.47.06-.11.33-.24.63-.12.95.14.11.26.22.37.31.01.18,0,.34-.08.47q-.21-.02-.37-.12c.02-.07.03-.15.05-.23-.15-.05-.28-.05-.44.07-.04.18-.08.39-.12.58.07.15.13.28.18.39-.03.11-.06.21-.08.3.13.16.25.32.37.46v.49c-.11.08-.24.18-.36.27,0,.31.03.59,0,.86-.07.57,0,1.13.05,1.7.02.29.03.58.02.87-.03.78-.11,1.55,0,2.33.03.2,0,.42-.02.63,0,.16-.03.32-.05.47.1.17.19.32.26.44-.1.27-.18.51-.25.73.05.26.09.48.13.68-.17.47-.17.48-.11,1.02.36.37.6.78.5.89-.06,0-.13-.02-.19-.03-.06-.13-.11-.24-.17-.38-.11.14-.19.24-.24.3v1.87c.03.06.08.14.13.23-.05.09-.1.18-.16.29.03.14.06.32.09.47.1.05.17.09.26.13-.15.13-.35.2-.38.41-.12.99.04,2-.17,2.98-.57.35-1.13.66-1.75.88-.31.11-.58.29-.84.48-.03.15-.09.3-.07.44.06.49.08.99.27,1.46.12.3.24.6.33.92.19.65.39,1.3.53,1.97.09.42.23.8.48,1.15.39.2.76.44,1.22.46.12,0,.26.12.36.23.21.23.47.4.76.52.72.29,1.45.57,2.16.88.65.28,1.3.34,2,.25.77-.1,1.54-.2,2.32-.22,1.01-.03,2-.16,3-.23.66-.05,1.32-.11,1.99-.15.4-.02.81-.03,1.23-.17.14-.1.31-.22.47-.34.16.11.29.2.42.3.18-.04.35-.08.53-.11.38-.06.77-.1,1.15-.19.99-.22,1.98-.32,2.99-.31.16,0,.32-.01.48-.03.56-.07,1.12-.16,1.68-.23.26-.04.5-.11.72-.23.08-.16.15-.3.24-.46.08,0,.16.01.24.02-.03.16-.06.29-.09.44.16.04.28.08.3.09.53-.08.96-.14,1.44-.22.09-.21.2-.46.31-.72.16-.36.22-.74.21-1.14-.02-.45,0-.91.02-1.34.14-.22.3-.33.56-.19-.06.24-.14.47-.18.7-.04.25-.03.52-.06.77-.02.14-.05.29-.09.43-.1.37-.08.73-.04,1.11.18.06.33.18.54.09.07-.14.14-.3.23-.48v-.68c.08-.07.14-.12.21-.19-.19-.37-.14-.73-.04-1.08.11-.11.21-.22.4-.22-.09.69.03,1.39-.18,2.05.13.28.26.51.56.62.14-.13.27-.25.39-.37,0-.72,0-1.41,0-2.11,0-.27-.08-.54-.2-.77-.1-.03-.18-.05-.26-.08-.03-.19-.05-.36-.07-.52.05-.09.09-.16.12-.21-.06-.12-.1-.2-.13-.28,0-.47.07-.89.37-1.26.06-.01.14-.03.23-.04.11.33.18.64.13.97-.03.24-.04.49-.01.73.05.53.13,1.05.06,1.59,0,.03,0,.06.02.11.08.08.18.16.25.23-.12,1.12-.12,1.17.05,1.74.13.08.28.17.45.26.18-.11.34-.21.5-.31,0-.11,0-.19,0-.27-.05-.42-.09-.84-.15-1.25-.06-.38-.04-.74.05-1.11.04-.17.14-.32.21-.49-.1-.18-.2-.34-.28-.48v-.56c.09-.08.17-.16.24-.22.07-.22.02-.4-.03-.59-.08-.26-.17-.53-.09-.81.06-.11.12-.22.26-.28.18.34.17.68.17,1.01,0,.4-.03.81-.03,1.21-.01,1.13-.02,2.27-.03,3.4,0,.18,0,.35.01.52.4.21.76.23,1.14,0,.03-.14.07-.27.1-.41-.14-.21-.26-.4-.4-.61,0-.23,0-.47,0-.71,0-.99,0-1.98,0-2.97,0-.31.05-.6.21-.93.19.16.29.34.41.54.09.87.12,1.75,0,2.64-.05.42-.07.84-.1,1.26-.03.35.03.68.16,1,.03.08.09.16.14.24.41-.1.82-.09,1.23-.27,0-.54-.02-1.07,0-1.6.04-.93-.09-1.84-.24-2.77-.16-.08-.34-.16-.51-.24-.34-.54-.57-1.09-.56-1.74,0-.44-.03-.87-.26-1.27-.02-.04-.01-.09-.02-.16.06-.1.12-.21.2-.33.24-.04.48-.08.7-.12.11-.18.11-.32.01-.49-.12-.04-.24-.08-.35-.12-.22.12-.41.23-.61.34-.08-.04-.15-.07-.23-.11.01-.19.02-.37.03-.51.07-.1.12-.17.19-.26h-.2c-.16-.28-.21-.58-.2-.89,0-1.74,0-3.47,0-5.21,0-.13,0-.26.01-.39,0-.03.03-.05.06-.1.09.03.19.06.28.08.11.45.13.86.06,1.28-.09.58-.07,1.16,0,1.74.03.32.08.64.08.97,0,.47.02.94.12,1.4.05.25.05.51.2.8.07-.14.12-.23.17-.33.1-.22.19-.45.3-.67.04-.08.05-.19.17-.18.11.2.22.4.34.61-.03.08-.07.19-.1.27-.11.07-.21.13-.31.2.11.08.2.15.29.21,0,.14.01.28.02.41.08,0,.12,0,.18-.01.03.15.06.29.07.44.04.55.18,1.09.35,1.61.02.05.06.09.1.16.2-.39.29-.76.27-1.16-.02-.34,0-.68,0-1.02,0-.34-.02-.68-.03-1.02,0-.06-.04-.13.07-.16.26.2.33.5.33.81,0,.55-.01,1.1-.04,1.65,0,.19-.06.37-.1.6.16.32.18.71.16,1.1-.01.19-.03.39-.03.58,0,.18-.02.36,0,.53.07.48-.02.94-.19,1.38-.14.35-.21.71-.28,1.08-.13.69-.1,1.39-.1,2.09,0,.11.02.22.03.33.11.06.19.11.28.15.06.03.12.04.17.06.19-.06.33-.16.44-.31,0-.25,0-.49,0-.73-.02-.6-.17-1.19-.11-1.79,0-.02.03-.05.06-.09.07.03.14.06.21.09.13.31.21.61.21.94,0,.32.02.65.04.97.02.28.11.53.24.77.06,0,.11.02.16,0,.23-.07.46-.14.71-.22.43-.6,1-1.04,1.62-1.4.11-.39.16-.76.16-1.13-.01-.7,0-1.39.11-2.17.06-.04.18-.11.24-.15.08-.37-.04-.63-.12-.92.11-.32.2-.66.02-1.01.12-.21.23-.4.37-.63.01.09.03.13.02.18-.11.55-.07,1.1-.07,1.65,0,.29,0,.59.04.87.07.52.06,1.03.06,1.55-.1.09-.19.17-.3.26.1.04.17.07.24.11-.02.13-.04.25-.06.4.12.06.23.11.35.17.13-.1.24-.19.35-.29.11-.1.21-.2.32-.3.03-.21.05-.4.08-.59.06-.08.07-.22.24-.22,0,.07-.02.13-.02.19,0,.08,0,.15,0,.24.66-.26,1.23-.81,1.63-1.58-.01-.12-.03-.27-.04-.41-.02-.29-.07-.58-.05-.87.06-.83-.02-1.65-.05-2.48-.04-1.21-.11-2.43-.15-3.64-.02-.6,0-1.2-.05-1.8-.05-.53-.06-1.07-.07-1.6,0-.23-.01-.45-.02-.68-.02-.45-.04-.91-.06-1.36,0-.24-.01-.49-.02-.73,0-.76-.09-1.52-.02-2.28.01-.14,0-.29,0-.44,0-.49,0-.97,0-1.39-.1-.33-.22-.59-.25-.85-.05-.6-.05-1.2.01-1.8.03-.29.04-.58.03-.87-.02-.58-.06-1.16-.09-1.75-.07-1.47-.1-2.95-.11-4.42,0-1.05-.06-2.11-.1-3.16-.01-.36-.05-.71-.06-1.07-.01-.53.05-1.07-.14-1.58.16-.36.13-.71.14-1.07,0-1.46-.12-2.91-.1-4.37.01-.92-.03-1.85-.06-2.77-.01-.45-.04-.91-.07-1.36-.01-.21-.07-.41-.2-.59-.59-.81-1.17-1.63-1.75-2.45-.09-.13-.2-.25-.31-.4-2.38-.11-4.75-.22-7.13-.33-.15.36-.21.71-.2,1.06.01,1.51.02,3.02.03,4.52,0,.1,0,.19.02.29.05.36.02.71-.1,1.05-.09.24-.08.47-.03.72.04.17.05.35.06.53.02.16.03.32.04.48.01.29.05.58.02.87-.04.39-.1.77-.05,1.16,0,.08,0,.17-.02.24-.14.35-.07.7,0,1.06-.11.34-.12.69-.03,1.05.02.09.04.2.02.29-.09.56-.1,1.13-.07,1.63-.16.54-.53.84-.86,1.16-.12.44-.24.86-.35,1.29-.03.12-.05.25-.06.38,0,.31-.01.62,0,.92.04.65.05,1.29-.01,1.94-.02.16-.03.33.01.48.11.36.06.7,0,1.05-.04.19-.06.38-.07.58-.04.65-.1,1.29-.11,1.94-.02.96,0,1.91,0,2.87,0,.03,0,.07,0,.1.09.73,0,1.46-.06,2.18-.02.25-.03.48.04.72.06.18.08.37.12.54-.08.06-.13.09-.13.1.07.44.16.82.19,1.2.03.41-.13.79-.28,1.15.1.15.19.28.27.4-.04.25-.08.47-.11.69.16.34.16.69.15,1.05,0,.66,0,1.33,0,1.99,0,.48-.04.97-.07,1.4-.12.2-.22.34-.32.51.17.11.32.2.44.28.19,1.11.19,1.33.03,2.05-.09.06-.19.12-.28.18,0,.06,0,.11,0,.17.12.1.24.2.37.31.08,1.02-.13,1.99-.38,3-.13-.04-.23-.07-.33-.1-.05-.2-.03-.37.01-.54.14-.6-.02-1.12-.4-1.57-.88-.07-1.54,0-2.03.25-.02.43-.04.86-.05,1.3-.01.44-.01.88-.02,1.31,0,.45,0,.91,0,1.36,0,.43.04.86-.03,1.29-.16-.05-.18-.16-.18-.28,0-.53,0-1.07,0-1.6.01-1,.03-2.01.04-3.01,0-.03-.02-.06-.04-.13-.1-.08-.22-.18-.33-.27-.51.03-1,.01-1.46.23-.02.14-.04.28-.06.42h-.35c-.05-.15-.1-.28-.15-.43-.25.03-.48-.03-.71.12-.05.13-.11.28-.18.44-.1.04-.2.08-.32.12-.08-.17-.14-.31-.21-.48-.61.02-1.21.04-1.8.13-.29.04-.58.06-.87.08-.61.04-1.23.05-1.84.15-.5.08-.99.14-1.49.15-.29,0-.58.04-.87.09-.2.04-.42.09-.6.19-.48.26-.96.54-1.4.87-.34.25-.7.47-1.05.7-.08.05-.17.08-.3.14,0-.35-.09-.64-.1-.95ZM145.82,60.05c-.21-.07-.37-.12-.53-.18-.02-.23.1-.41.14-.6.13-.15.25-.28.37-.41-.04-.18-.17-.28-.29-.39h-.3c-.03-.13-.08-.25-.1-.37-.03-.27-.03-.55-.05-.82-.04-.52.1-.99.41-1.42-.27-.63-.37-1.3-.41-1.98,0-.19.04-.38.09-.55.17-.06.22.09.31.12.09.03.18.04.31.07.03.11.07.25.12.4-.11.04-.19.07-.31.12.08.19.17.37.25.57-.05.12-.09.24-.15.38.06.13.13.27.21.46,0,.13,0,.31,0,.48.03.48.05.97.11,1.45.09.71.17,1.41.16,2.13,0,.4.04.81.05,1.21.02.52.03,1.04.03,1.55,0,.26-.06.51-.09.79-.14.07-.28.15-.43.22.04.18.23.08.33.19,0,.1.02.22.03.38-.14.03-.26.05-.36.07-.32-.19-.57-.42-.78-.63.06-.92.12-1.79.18-2.73.04-.08.12-.22.19-.37.14-.05.28-.09.48-.16ZM151.44,55.74c-.08.27-.13.55.09.8.01.16.01.32.05.48.13.52.06.99-.25,1.43-.02.03-.03.06-.07.14,0,.11-.01.28.03.43.18.62.13,1.25.12,1.89-.08.1-.16.2-.25.31.06.46.11.92.18,1.48-.02.05-.07.21-.13.38.16.33.17.7.19,1.07.02.45.09.9.15,1.4-.14-.06-.24-.09-.34-.13-.07-.34-.14-.68-.21-1.01-.08-.08-.15-.16-.21-.23-.14-.55-.11-1.09-.11-1.62,0-.08,0-.16.03-.24.2-.68.15-1.38.2-2.07.02-.28.02-.55.11-.82.07-.22.05-.44,0-.67-.04-.15-.08-.32-.05-.48.09-.58,0-1.16,0-1.75,0-.42,0-.83.04-1.32.17.2.3.36.44.53ZM117.81,38.4c.01.19.03.36.05.64-.1-.14-.16-.18-.16-.22-.04-.45-.08-.9.06-1.35.08-.28.14-.57.1-.88-.13-.12-.27-.25-.44-.41-.09-.23-.2-.48-.3-.74-.05-.14-.07-.28-.09-.43-.1-.89-.07-1.78-.04-2.67.01-.44.05-.87.08-1.31,0-.06.03-.12.05-.2.1,0,.19-.01.27-.02.03.05.06.07.07.1.15.61.31,1.23.29,1.87,0,.1,0,.2.03.29.2.64.19,1.31.22,1.97.04.91.05,1.81.07,2.72,0,.16,0,.32,0,.47-.11.07-.19.11-.26.16ZM141.97,56.38c.11.16.21.31.28.42.08.41.08.77-.04,1.14-.1.29-.06.61.01.91.14.6.11,1.18-.19,1.78-.06-.07-.12-.12-.13-.18-.04-.14-.08-.28-.08-.42,0-.66,0-1.32,0-1.99,0-.1,0-.2.03-.29.1-.34.09-.67,0-1-.02-.06-.02-.12-.03-.19.04-.05.08-.1.15-.18ZM134.65,68.15c.14.66.21,1.3-.03,1.9.02.25.15.46.14.69-.19.1-.37.2-.55.3-.13-.3-.16-.4-.08-.7.08-.31.04-.6,0-.91-.1-.69-.06-1.03.23-1.49.12.09.21.16.29.22ZM134.14,74.68c-.11-.74-.06-1.47.12-1.91.2.07.35.21.52.34.07.66-.05,1.29-.18,1.92-.03.15-.09.31-.27.38-.11-.23.05-.42.05-.66-.09-.02-.16-.05-.24-.07ZM152.23,61.86c.05-.05.08-.13.13-.21.23.38.13.76.15,1.12-.1.13-.19.26-.29.4.1.12.19.22.27.32-.06.72-.23,1.42-.08,2.12-.07.03-.11.06-.16.07-.05.01-.09.01-.17.02-.07-.27-.06-.54-.02-.81.04-.27.11-.54,0-.81-.02-.04,0-.1,0-.14,0-.64,0-1.29,0-1.94.06-.05.13-.08.17-.14ZM142.34,63.34c-.24-.02-.14-.28-.3-.36-.08.18.04.41-.16.59-.03-.05-.06-.09-.06-.12,0-.57-.02-1.13,0-1.7,0-.27.02-.55.22-.83.29.82.4,1.61.29,2.42ZM135.94,73.09s-.02-.09-.05-.13c-.1-.15-.2-.29-.3-.43.07-.3.14-.58.29-.86.2.48.25.94.21,1.84-.09.18-.18.38-.37.55-.11-.27-.15-.51-.11-.78.11-.06.22-.13.34-.2ZM147.15,58.92c.03-.27.09-.54.09-.81,0-.27-.06-.54-.1-.89.1.1.15.13.17.17.07.13.13.26.19.39.03.39.06.77.08,1.15,0,.15-.01.29-.18.45-.1-.18-.17-.31-.25-.46ZM134.78,71.77v.75c-.06.03-.12.06-.21.1-.16-.26-.31-.51-.46-.76.03-.2.16-.34.29-.56.16.2.27.33.39.48ZM119.37,34.31c-.11-.22-.11-.22-.11-.63,0-.24,0-.48.01-.72.01-.21.04-.43.07-.64.01,0,.02,0,.03,0v1.99ZM152.02,67.65c.05-.3-.12-.62.14-.93.2.21.23.47.33.69-.04.17-.13.29-.28.4-.07-.06-.13-.11-.2-.16ZM126.1,69.11c-.05-.12-.1-.24-.15-.37.1-.18.25-.33.41-.48.07.03.14.05.2.07.03.13-.05.17-.1.23-.05.06-.1.12-.18.21.11.06.19.1.28.15-.08.17-.21.27-.38.33-.03-.05-.06-.09-.08-.14ZM152.1,59.75c.09-.23.12-.47.27-.67.16.43.17.57.08,1.04-.18-.08-.26-.22-.36-.37ZM138.3,70.85c.18-.01.24.13.36.26.02.12.04.28.06.45-.18.06-.29-.05-.42-.13v-.58ZM128.45,69.82c0-.21.05-.38.18-.57.2.24.22.49.21.76-.19.02-.27-.11-.39-.19ZM131.24,74.25c-.15-.04-.11-.17-.15-.28.1-.07.18-.13.27-.2q.08.33-.13.48ZM113.9,49.06c.16-.09.27,0,.38.08,0,.14-.03.25-.18.31-.07-.13-.13-.26-.2-.39ZM116.93,36.87c-.01-.13-.02-.23-.03-.34.16,0,.25.06.34.2-.1.04-.19.08-.32.13ZM147.5,60c.01.27-.04.48-.1.76-.12-.3-.13-.53.1-.76ZM116.54,39.85v-.29c.17,0,.24.1.33.29h-.33ZM149.05,63.84c.08.18.15.36,0,.58-.07-.21-.05-.4,0-.58ZM135.64,74.74c-.09-.13,0-.19.03-.33.08.07.12.1.21.18-.12.07-.18.11-.24.15ZM117,40.9c-.1.01-.16.02-.24.03-.01-.1-.03-.18-.05-.35.13.15.2.22.29.33ZM117.49,47.89c.04-.08.07-.13.12-.21.07.08.11.14.16.19-.01.03-.03.05-.04.08-.07-.02-.13-.04-.23-.06ZM143.31,51.67q-.12-.09.05-.28c-.03.16-.04.21-.05.28ZM115.04,43.13c.11.14.12.23,0,.35v-.35ZM146.63,47.7c-.07.01-.11.02-.22.05.05-.09.07-.14.1-.2.04.06.07.09.11.15ZM132.14,73.4c0,.08.01.14.02.22-.15-.06-.15-.12-.02-.22ZM142.26,54.02h-.04v-.15s.02,0,.04,0v.15ZM121.3,35.13c-.03-.11-.04-.22-.04-.34.01-.41-.05-.8-.1-1.2-.03-.22-.04-.44-.05-.65-.13.87-.14,1.75-.05,2.61-.09.03-.16.06-.25.09.14.17.05.34.01.51,0,.02.02.05.05.1.1-.05.19-.1.29-.14.17-.35.24-.66.14-.99ZM113.73,40.87c-.17.18-.26.37-.35.56.05.1.1.2.15.31q.27-.35.2-.87ZM115.23,36.52c.12-.23.12-.27,0-.57-.12.32-.12.33,0,.57ZM64.85,29.67c-.01.19-.02.36.09.54.09-.07.16-.13.25-.21-.1-.16-.14-.31-.34-.33ZM140.65,66.21c.09-.02.19-.03.31-.05-.04-.19-.02-.35-.19-.51-.08.19-.17.34-.12.56ZM227.56,53.61c.03-.58.02-1.17.16-1.74.12-.46.14-.93.13-1.4,0-.28-.01-.55,0-.83.06-1.16.1-2.33.2-3.49.08-.82.02-1.62-.09-2.42-.02-.17-.05-.35-.07-.53h-.31c-.13.32-.25.63-.38.94-.07-.05-.06-.16-.19-.2-.22-.07-.38-.23-.53-.41-.23-.27-.48-.53-.72-.79-.02-.02-.06-.01-.1-.02-.06.11-.11.22-.16.32-.16.03-.3.05-.45.07-.09.29-.18.56-.27.85-.17-.28-.04-.57-.18-.89-.1.23-.16.4-.27.64-.03-.22-.06-.35-.08-.49-.1.03-.17.05-.26.08-.04-.13-.07-.25-.11-.37-.03-.11-.08-.21-.11-.32-.04-.12-.1-.24-.13-.37-.03-.13-.04-.26-.05-.38-.01-.11-.02-.23-.03-.34-.01-.11,0-.24-.08-.4-.08.23-.13.39-.19.55-.32-.08-.63-.17-.93-.25-.2.05-.38.1-.58.15-.06.18-.12.35-.17.52-.21.7-.35,1.41-.48,2.13-.08.46-.18.92-.37,1.44-.04-.7-.08-1.31-.12-1.92,0-.05,0-.1-.02-.14-.12-.31-.09-.64-.09-.96,0-.31-.07-.6-.22-.91-.08.06-.14.11-.2.16-.06.06-.1.12-.14.17-.01.25-.02.48-.03.71-.06.13-.12.26-.19.39-.01.02-.05.03-.07.05-.12-.06-.25-.12-.4-.19-.09.22-.18.41-.26.6-.02.04-.06.07-.1.12-.09,0-.19,0-.26-.01-.15-.13-.28-.25-.43-.38-.15.31-.21.61-.22.91-.02.32-.02.65-.02.97-.01.7-.07,1.29-.33,1.94-.02.06-.03.17-.17.14-.02-.07-.04-.14-.06-.22-.01-.06,0-.13-.02-.19-.02-.07-.07-.07-.21-.12,0,.92.05,1.81.04,2.71,0,.89-.02,1.78-.05,2.67-.03.7-.02,2.38.05,2.73.24.05.49.09.73-.01.04.05.08.09.11.13.23-.02.38-.22.61-.2.12.22.17.46.19.7.04.32.09.64.13.96.04.35.22.64.43.91.11.14.25.29.45.35.08-.16.14-.31.2-.44.21-.14.42-.11.61-.1.22.17.42.33.59.46.3-.04.5-.26.79-.21.19.23.18.55.37.8h.68c.18-.56.54-1,.87-1.42.02-.28.04-.52.06-.69.24-.5.45-.93.68-1.4.08.08.14.13.21.19,0,.5.02,1,.02,1.5.19.13.35.25.58.27.26-.41.33-.89.5-1.31.19-.08.41-.05.56-.22.02-.22.05-.44.08-.7.37.03.6-.21.88-.45,0-.15,0-.28,0-.41ZM227.1,44.51s0-.05.01-.07c0,.02,0,.05-.01.07ZM185.67,37.97c0,.22.07.41.18.6.09,0,.18.02.29.02-.15-.4-.21-.48-.47-.63ZM145.65,59.27c.14.13.21.29.43.29,0-.23.01-.43-.14-.64-.1.12-.19.22-.29.34ZM145.67,61.6c-.18.12-.34.22-.46.41.12.05.21.09.33.14.06-.19.17-.34.13-.56ZM129.37,94.71c.06-.05.11-.09.17-.14-.04-.1-.09-.2-.14-.31.07-.03.12-.05.17-.07.13.22.13.22-.05.37,0,.05,0,.1,0,.15v-.02c.12.08.24.15.37.23-.04-.05-.08-.1-.12-.15.01-.06,0-.15.08-.13.06.01.05.1.03.15,0,.02-.02.04-.02.06,0,.02,0,.04.01.06-.02.03-.07.07-.07.1.1.36.21.72.62.97.37.13.81.26,1.23.46.08.04.16.07.25.09.34.08.69.16,1.04.23.33.06.66.06.99-.02.06-.02.11-.07.15-.09-.02-.19-.04-.37-.06-.53.04-.1.08-.18.11-.25-.03-.04-.05-.08-.09-.11-.05-.04-.11-.08-.17-.1-.49-.1-.82-.41-1.1-.8-.25-.34-.51-.67-.77-.99-.1-.12-.26-.2-.32-.33-.16-.34-.43-.62-.6-.95-.37-.7-.55-1.44-.49-2.24.03-.33.09-.66.17-.98.16-.69.34-1.37.52-2.06.05-.21.1-.43.14-.63-.05-.08-.08-.13-.12-.21.03-.06.07-.14.11-.22.14.05.25.1.39.15.22-.11.43-.22.65-.34.37-.2.73-.41,1.11-.6.66-.34,1.36-.51,2.11-.49.33,0,.66.06.99.11,1.06.17,1.97.64,2.73,1.4.27.27.52.54.76.87.1.66.2,1.34.31,2.01,0,.04.04.07.06.11.1.09.27-.06.36.09.03.13.04.26,0,.39-.07-.01-.15-.02-.23-.04-.13.36-.01.71,0,1.07-.07.21-.13.42-.2.62.02.08.03.16.05.24-.07.04-.13.06-.2.1-.37.74-.74,1.49-1.08,2.18-.23.25-.41.45-.6.65-.6.34-1.17.77-1.92,1.01-.6-.01-1.26-.02-1.93-.04-.05.09-.09.16-.13.24-.05.09-.11.17-.15.25.1.16.2.31.3.46.24.05.48.04.72.01.09,0,.18-.02.26-.01.53.09,1.06-.02,1.59-.02.4,0,.78-.11,1.13-.32.05-.13.1-.25.15-.37.1-.07.2-.12.27-.2.06-.08.15-.17.1-.29-.07.08-.13.16-.21.25-.06-.02-.11-.04-.16-.06-.02-.13,0-.22.09-.29.13-.04.18.09.27.12-.02.14.04.25.12.35.04.01.08.03.14.05.07-.03.16-.04.24-.08.1-.05.19-.12.28-.18.44-.3.81-.68,1.19-1.04.32-.31.58-.67.74-1.09.14-.37.31-.73.48-1.09.09-.2.16-.41.23-.62.12-.32.1-.65.15-.98.11-.7.11-1.41.09-2.11-.02-.53-.09-1.05-.25-1.56-.02-.05-.04-.08-.09-.07-.13.12-.25.24-.38.35l-.02-.02s.03.01.03.01c-.04-.07-.09-.14-.13-.21.05-.16.11-.3.08-.46-.03-.14.05-.29.08-.44-.24-.39-.53-.72-.82-.99-.2-.08-.37-.15-.52-.22-.1-.15-.2-.3-.3-.45-.53-.34-1.1-.55-1.73-.61-.48-.05-.97-.08-1.45-.15-.83-.13-1.67-.13-2.51-.11-.67.01-1.31.15-1.95.32-.17.05-.33.12-.48.18-.12.26-.19.51-.18.78,0,.13,0,.26-.02.4-.01.13.04.27-.07.38-.13.05-.22-.03-.25-.13-.03-.1-.08-.15-.17-.18v-.02c.05.09.02.17-.03.24-.02.03-.08.05-.1.04-.03-.01-.06-.06-.06-.1,0-.06.03-.12.05-.19l.02.03c-.2-.02-.38-.09-.54-.19-.05-.09.01-.23-.11-.29-.04.01-.09.01-.12.04-.96.64-1.69,1.47-2.09,2.57-.2.56-.38,1.13-.56,1.69-.07.21-.09.43-.08.65.03.77.14,1.53.33,2.28.2.77.5,1.5.94,2.17.06.09.12.19.23.22v.02ZM138.83,94.89c.12-.07.08-.2.14-.29q.18-.11.28.05s-.07.06-.1.09c0,.11.1.12.15.19.06.17.04.34,0,.53-.06,0-.12.01-.19.02v-.31c-.15-.11-.36.05-.48-.13.02-.11.14-.09.2-.14ZM140.93,85.66c0,.06,0,.12,0,.19,0,.04,0,.09,0,.13,0,.06-.02.13-.03.19-.01.04-.04.07-.07.1-.02,0-.05,0-.06-.01-.11-.22-.11-.44,0-.66.02-.03.06-.05.14-.11.02.1.03.14.03.18ZM140.55,93.25c-.04.12-.1.18-.19.19-.02-.02-.04-.03-.04-.05-.02-.24.22-.42.17-.68.02.19.04.38.06.53ZM135.93,96.27c-.02.07-.07.12-.13.1-.06-.02-.1-.09-.09-.14,0-.02.02-.04.03-.06.04-.07.12-.11.15-.07.02.03.03.07.04.11,0,.02,0,.04,0,.06ZM140.8,86.49c.06.03.1.04.11.07.01.04,0,.08-.01.12-.03.07-.05.07-.26-.01.08-.09.12-.13.16-.17ZM130.93,86.12s-.04,0-.04,0c0-.04-.02-.07-.02-.11,0,0,.03-.02.04-.03.01.03.03.07.04.1,0,.02-.01.04-.03.05ZM140.56,93.91s.02.07.01.1c0,0-.04.03-.05.02-.04-.01-.09-.03-.1-.06-.01-.03.02-.08.03-.12.04.02.08.02.11.05ZM140.9,92.17c-.02.06-.04.06-.06.01,0-.01,0-.04,0-.05,0,0,.03,0,.04-.01,0,.02.02.04.01.05ZM136.76,96.21s-.03-.03-.04-.04c0-.02-.01-.04,0-.06,0-.02.03-.04.04-.03.01,0,.03.03.04.04-.01.03-.03.06-.04.09ZM140.35,94.9h-.03s.02-.04.02-.04v.04ZM191.4,95.35c0,.06,0,.11,0,.17h.01c.05.09.12.19.14.29.03.12-.03.26.05.38,0,0-.02.03-.04.05-.16,0-.22-.11-.26-.24-.02-.08-.04-.17-.05-.22-.08-.12-.2-.18-.2-.33.05-.09.11-.2.17-.31-.22-.33-.31-.69-.35-1.05-1.01-1.09-2.04-2.12-3.3-2.89-.09-.06-.19-.12-.27-.19-.18-.16-.36-.32-.54-.49-.04-.04-.04-.12-.06-.18.31-.1.62-.16.92-.17.4,0,.79-.1,1.19-.15.07-.09.13-.18.18-.26,0-.15,0-.28,0-.4.01-.15.04-.3.06-.44.09-.11.18-.14.3-.08.07.07.08.16.08.25,0,.2-.02.4-.03.6,0,.09.02.17.12.23.1,0,.21.02.32,0,.3-.06.61-.13.85-.34.25-.22.46-.48.57-.8.14-.44.3-.88.35-1.31-.02-.38-.15-.68-.34-.95-.14-.2-.29-.39-.44-.58-.06-.09-.13-.18-.18-.28-.59-1.2-1.59-1.81-2.88-1.95-.77-.09-1.54-.09-2.32-.13-.55-.03-1.1-.06-1.66-.09-.15,0-.31-.05-.47.03-.08.18-.3.25-.37.48.1.14.22.3.33.46.19,0,.36.02.54.02.95,0,1.9.02,2.85,0,.78-.02,1.47.24,2.14.55.03.06.06.1.06.14.11.72.22,1.44.32,2.16.02.11,0,.22-.02.33-.03.23-.13.42-.32.56-.43.31-.89.57-1.42.69-.82.19-1.65.31-2.49.36-.77.05-1.55.02-2.32.02-.08,0-.17-.04-.25-.05-.08-.25-.09-.49-.11-.73-.07-1.15.04-2.3.11-3.45,0-.13.05-.26.09-.39.01-.04.04-.07.06-.11.07-.05.14-.1.2-.14.06-.6.06-.61-.07-.94-.25-.05-.51-.04-.77-.02-.06,0-.11.05-.17.08-.07.38,0,.76-.04,1.11-.06.17-.14.32-.15.47,0,.26-.1.47-.26.68-.11.01-.24.03-.33.04-.09.06-.08.19-.2.18-.02-.03-.07-.06-.07-.09.01-.22.03-.44.05-.66.03-.28.02-.57.13-.84.05-.14.03-.31.03-.46,0-.15.03-.31-.06-.46-.16-.07-.32-.08-.49.05-.06.25-.05.51-.05.78-.02,1.5-.03,3.01-.04,4.51-.01,1.28-.01,2.57-.03,3.85-.02,1.19-.05,2.39-.07,3.58,0,.18,0,.35,0,.51.14.12.28.17.44.16.15-.1.29-.2.48-.15.07.06.14.12.2.17.08-.02.14-.03.22-.05.17-.31.27-.64.4-.98.28-.76.4-1.53.31-2.34-.09-.86.01-1.72.03-2.58,0-.07.02-.13.03-.2.02-.09.06-.16.15-.2.23-.04.43.08.64.12.39.08.78.17,1.16.28.65.19,1.22.5,1.7.98.29.3.62.56.95.83.97.81,1.94,1.6,2.91,2.42.44.37.81.81,1.11,1.3.13.21.26.41.45.58.09-.03.17-.06.25-.09.06.03.12.05.21.09.49-.09,1.02-.13,1.52-.31,0-.04.01-.07,0-.08-.11-.28-.34-.46-.54-.66-.34-.34-.65-.72-1.06-.97-.11.03-.19.05-.28.07,0,.07-.01.14-.02.2h-.02ZM181.28,95.56v.53c-.06.11-.13.22-.19.32-.12,0-.18-.06-.18-.16,0-.06,0-.14.02-.19.1-.16.12-.32.12-.5,0-.03.04-.07.06-.11.05.04.11.07.17.12ZM190.79,87.97c.08.03.01.07.02.11,0-.04-.01-.07-.02-.11ZM191.61,96.58s.04.03.04.04c0,.02-.03.05-.04.05-.04,0-.07-.03-.11-.04.04-.02.07-.04.11-.05ZM230.02,88.97c-.45-.22-.7-.59-.84-1.05-.06-.22-.08-.43-.09-.65-.01-.35.12-.65.35-.91.1-.11.22-.22.35-.3.42-.3.87-.52,1.37-.65.71-.18,1.43-.28,2.16-.27,1.84.01,3.67.03,5.51.04.31,0,.62,0,.93,0,.08,0,.17-.04.24-.05.04-.21-.07-.42.07-.6.01-.2.03-.4.04-.59,0-.15.03-.31-.07-.45-.09-.09-.21-.06-.31-.05-.73.05-1.46.02-2.19-.02-.15,0-.31-.02-.46-.02-.06,0-.12.05-.19.08v.52q-.21.14-.41.02c-.08-.2.02-.44-.12-.64-.1-.07-.21-.07-.32-.07-.2,0-.4-.01-.59-.05-1.06-.17-2.12-.13-3.17.09-1.02.21-2,.57-2.93,1.03-.26.13-.51.27-.73.46-.22.19-.41.41-.51.68-.27.74-.42,1.49-.19,2.27.33,1.13,1,1.9,2.17,2.18.26.06.52.12.78.16.63.1,1.27.2,1.91.2.95,0,1.9,0,2.85,0,.55,0,1.11,0,1.66,0,.27,0,.52.04.78.11.98.25,1.53.92,1.85,1.82.08.22.07.44-.01.65-.06.14-.11.29-.19.42-.18.28-.36.55-.61.8-.1.02-.21.05-.31.06-.59.08-1.18.17-1.77.24-.68.08-1.36.2-2.05.2-.77,0-1.55,0-2.32,0-.91,0-1.81-.09-2.72.04-.06,0-.13,0-.19-.01-.2-.03-.4-.03-.59,0-.22.03-.44.05-.66.08-.06,0-.11.06-.16.09,0,.49.05.94.18,1.59q.37.14.69.04c.04-.12.08-.24.11-.36.06,0,.1,0,.14,0,.09.1,0,.27.18.36h.45c.2-.09.3-.23.45-.32.08.13.16.26.22.37.27.08.51.08.75.09.24,0,.48.01.72.09.23.07.48.07.71.05.19-.13.19-.14.26-.3-.02-.04-.04-.08-.07-.11-.05-.06-.05-.12-.01-.18.04-.07.11-.05.19-.02.04.11.08.24.11.33.12.13.22.24.33.36q.87.17,1.63.11s.09-.02.13-.02c.51-.01,1.01-.09,1.51-.17.65-.1,1.31-.21,1.96-.31.13-.02.26-.05.39-.09.35-.1.64-.29.84-.61.08-.13.15-.27.23-.41.31-.59.55-1.21.78-1.83.23-.62.16-1.22-.18-1.78-.11-.19-.26-.36-.4-.52-.72-.79-1.6-1.32-2.62-1.61-.55-.16-1.12-.27-1.7-.28-.6-.01-1.19-.08-1.79-.06-1.24.03-2.48-.05-3.72-.08-.2,0-.4-.04-.57-.06-.08-.04-.14-.06-.2-.09ZM229.53,95.36l-.03.03s-.02.07-.03.1c-.01,0-.02-.02-.03-.02.03-.02.05-.04.08-.06v-.05ZM230.42,95.75c.03.08-.05.16-.15.14-.03,0-.07-.07-.06-.08.03-.05.07-.09.11-.14.04.04.09.05.1.08ZM235.85,83.52s-.02.05-.03.05c-.05.02-.08,0-.1-.05-.01-.05.01-.08.06-.08.05,0,.07.03.06.08ZM231.85,95.89h-.03s.02-.04.02-.04v.04ZM237.79,84.15h-.04s0-.02,0-.02l.03.02ZM235.15,96.58s-.04-.03-.04-.04c0-.03.02-.06.04-.09.01.01.03.02.04.04-.01.03-.03.06-.04.09ZM235.22,95.81c.05.01.06.04.01.06-.01,0-.04,0-.05,0,0,0,0-.03-.01-.04.02,0,.03-.02.05-.01ZM201.07,85.92h.02s-.04.01-.04.01c0,.08-.02.16-.03.24.04,0,.09,0,.14,0,1.27,1.34,2.55,2.69,3.83,4.04,1.25,1.31,2.55,2.58,3.87,3.82.87.82,1.78,1.59,2.73,2.32.12.09.23.21.45.22.26-.13.56-.26.81-.51.06-.46.05-.93.08-1.39.06-.95.09-1.9.07-2.85,0-.33-.05-.66-.02-.99.03-.42.02-.84.01-1.26-.02-1.08-.07-2.17-.08-3.25-.01-.69-.09-1.37-.15-2.05,0-.06-.03-.13-.06-.19-.02-.03-.06-.07-.1-.08-.03,0-.07.03-.11.04,0,.4,0,.79,0,1.19,0,.13-.02.27-.09.38-.05.08-.11.14-.21.13-.19-.22.03-.41.05-.63-.02-.39.02-.81-.08-1.27-.26-.12-.52-.28-.84-.3-.04,0-.08.03-.12.05-.12.15-.11.32-.1.5.07,1.3.17,2.6.22,3.91,0,.2.02.4.03.6.07,1.19.14,2.38.22,3.58.03.42.05.84.08,1.26.02.26.05.53.03.79-.05.02-.08.04-.12.06-.2-.06-.33-.22-.48-.35-1.62-1.41-3.24-2.82-4.85-4.24-.76-.67-1.52-1.36-2.27-2.04-.48-.43-.89-.93-1.24-1.47-.24-.37-.48-.74-.72-1.11-.14-.23-.31-.43-.51-.61-.03-.03-.06-.07-.09-.1-.08-.16-.17-.31-.25-.46,0-.02-.04-.02-.06-.04h-.2c.01.13.03.3-.02.43,0,.03-.02.05-.04.08-.04.09-.07.18-.08.27-.01.1-.11.08-.17.01-.07-.08-.06-.22-.06-.32,0-.04.01-.08,0-.13,0-.07-.02-.14-.03-.21,0-.04-.04-.07-.07-.12-.16-.09-.33-.06-.49-.03-.09.06-.11.15-.12.24,0,.46-.01.93-.02,1.39,0,.06,0,.13-.03.19-.03.07-.09.07-.15.03-.16-.6.04-1.23-.11-1.83-.17-.07-.32-.1-.45.06-.01.09-.04.2-.04.31-.01.24-.02.49-.02.73,0,.84.01,1.68,0,2.52-.02,1.55-.05,3.1-.08,4.64,0,.13-.01.27,0,.4.02.13.06.25.07.33-.04.14-.06.22-.07.28.03.12.05.2.07.27-.04.08-.09.14-.09.2-.01.53-.07,1.06-.02,1.53.16.34.47.39.7.57.01.17.03.34.04.52-.08.12-.12.28-.27.35-.17-.05-.31-.02-.38.16.03.03.06.06.12.11.3,0,.63,0,.97,0,.22,0,.44,0,.66-.01.06,0,.12-.04.18-.07.05-.13.05-.26.05-.4.02-.8.04-1.59.04-2.39,0-.68.04-1.37-.06-2.05,0-.06,0-.13,0-.2,0-.27.01-.53.01-.8,0-.24-.04-.49-.01-.73.03-.26-.06-.52-.01-.78.05-.24.04-.48.06-.72,0-.07,0-.13,0-.2,0-.24.04-.49,0-.72-.04-.25.06-.48.03-.72,0-.06-.03-.13-.05-.2-.08-.06-.16-.12-.25-.19,0-.02-.01-.05,0-.07.03-.08.06-.17.11-.24.04-.07.17-.07.16-.19.01-.08.03-.17.04-.25ZM212.22,86.5s-.08.02-.09,0c-.05-.04-.06-.11-.01-.16.02-.03.06-.04.1-.06.02.03.03.07.05.1-.01.04-.02.08-.04.11ZM199.86,92.05s-.02.03-.02.05c-.02-.02-.06-.04-.06-.06,0-.05.02-.11.05-.25.02.15.03.2.03.26ZM158.24,96.51s.01.03,0,.03c-.01.01-.03.02-.04.03.11.11.15.27.31.35.06,0,.12.02.19.01.46-.06.92-.12,1.38-.19.7-.1,1.39-.27,2.09-.34.15-.02.3-.06.45-.09.44-.09.77-.33.99-.72.43-.75.75-1.55,1.02-2.37.11-.34.09-.7-.02-1.04-.1-.3-.23-.57-.43-.82-.25-.31-.54-.58-.85-.83-.13-.1-.27-.14-.43-.15-.06-.09-.13-.17-.21-.28-.47-.25-.95-.51-1.52-.57-.54-.22-1.11-.27-1.68-.28-.22,0-.44-.01-.66-.03-.23-.02-.44.03-.63.16-.03.02-.08,0-.12,0-.07-.05-.14-.11-.21-.16-.07,0-.14-.02-.2-.02-.29,0-.57,0-.86,0-.29,0-.57.02-.86,0-.28,0-.57-.04-.85-.06-.31-.02-.62-.02-.93-.04-.38-.02-.74-.1-1.05-.27-.51-.48-.69-1.05-.66-1.7.01-.25.09-.48.24-.67.12-.16.26-.3.39-.43.19-.1.36-.19.54-.28.37-.19.76-.36,1.18-.43.63-.11,1.26-.2,1.91-.2,1.11.01,2.21,0,3.32,0,.18,0,.35,0,.51-.01.15-.15.21-.3.18-.49-.05-.1-.1-.2-.15-.3.06-.12.06-.24.04-.37-.01-.14.04-.3.07-.46-.09-.04-.16-.09-.24-.1-.22-.03-.44-.05-.66-.06-.04,0-.08.03-.11.05-.04.08-.07.16-.11.24-.04,0-.08,0-.12-.01-.04-.08-.07-.16-.11-.24,0-.02-.03-.03-.07-.05-.19-.05-.41-.07-.63-.05-.04,0-.07.04-.12.07-.03.14-.06.29-.08.41-.14.08-.23.08-.31-.03-.1-.16.01-.41-.25-.54-.58,0-1.2-.06-1.8.13-.08.03-.18,0-.26.02-.13.02-.26.06-.38.09-.04.01-.07.05-.11.08-.03.12-.06.25-.09.37-.05.03-.08.05-.12.07-.04-.12-.09-.24-.12-.35-.16-.05-.28-.02-.42.08-.05.11-.12.24-.19.38-.09-.02-.18-.03-.26-.04.12.09.23.19.34.28.06.15-.02.26-.08.39-.07-.03-.13-.06-.18-.09.03-.07.05-.13.07-.19-.04-.05-.08-.09-.13-.15,0-.07,0-.16,0-.24-.04-.1-.1-.14-.21-.15-.26.09-.54.18-.76.37-.06.05-.15.1-.24.11-.34.05-.61.25-.87.45-.31.23-.53.53-.63.91-.06.21-.12.43-.16.64-.2.94.03,1.79.58,2.57.29.4.67.7,1.13.89.37.15.75.27,1.15.28.17,0,.35.03.52,0,.2-.03.32.14.49.16.11,0,.22.04.33.05.82.05,1.63.04,2.42.04.06-.05.1-.08.13-.11.04-.05.08-.11.09-.13.1,0,.14,0,.18,0-.04-.05-.09-.1-.12-.15-.01-.02.02-.07.03-.1.03.02.1.04.1.06,0,.06-.02.12-.03.19.08.08.15.15.21.21.45.08.84-.15,1.24-.11.09.04.17.09.25.1.28.02.56.05.84-.02.04,0,.06-.06.09-.09,0-.12.02-.25.03-.34.09-.14.17-.18.3-.13.02.12.08.25-.02.37v-.03c.22.03.23.26.37.38.44.17.86.41,1.17.8.32.41.59.83.61,1.37-.08.63-.48,1.07-.87,1.52-.1.02-.19.04-.28.05-.61.08-1.22.17-1.84.25-.44.06-.88.13-1.32.16-.97.06-1.94.07-2.92.05-.66-.02-1.33-.02-1.99-.03-.75,0-1.5,0-2.25.12-.06,0-.12.05-.17.07-.03.52.04,1.17.18,1.63.18.1.38.11.58.08.6-.08,1.19-.06,1.78.02.11.01.22.03.32-.03q.09-.3.2-.38c.14.09.15.26.26.37.1.04.2.08.31.11.1.03.21.07.32.08.42.04.84.07,1.25.1,0-.05,0-.1,0-.04,0-.07,0-.02,0,.02.31.05.61.1.91.15.04,0,.08-.02.13-.04.09-.1.18-.19.26-.29,0-.03,0-.05.01-.08ZM159.51,84.57s-.02-.04-.04,0c.06-.1.04-.2.01-.3-.06-.11-.03-.2.08-.26.12.05.05.13.04.2-.04.02-.08.03-.11.05,0,.1,0,.21,0,.31.01,0,.02,0,.04,0ZM159.61,89.98s-.02.03-.03.03c-.04,0-.07-.02-.11-.03,0-.02.01-.03.02-.05l-.02.05s.09-.06.14,0ZM156.17,84.03c-.05.2-.03.45-.23.62-.04-.02-.1-.03-.11-.06-.02-.08-.03-.17-.03-.26.02-.21.04-.43.08-.64,0-.06.07-.1.12-.18.06.18.1.33.16.51ZM153.63,95.67c-.09-.06-.1-.13-.04-.22.1.06.09.13.04.22ZM154.74,95.74s.02.04.02.06c0,.06-.04.08-.08.05-.01,0-.01-.04-.01-.06,0-.06.04-.08.08-.05ZM153.51,95.15s-.06-.02-.05-.07c0-.01.03-.02.04-.03,0,.02.02.03.03.05,0,.02-.01.05-.02.05ZM155.25,96.3s-.03.03-.05.04c-.01-.04-.03-.08-.04-.12,0,0,.03-.02.05-.04.05.02.06.06.04.11ZM153.61,96.21s-.03-.08-.04-.11c0,0,.03-.03.05-.04.02.03.04.06.06.08-.02.02-.05.05-.07.07ZM154.7,95.19h-.04s.03-.04.03-.04l.02.04ZM171.38,96.39s.03,0,.04-.01c.04.09.04.16-.08.19,0,.13-.01.26,0,.4,0,.09.03.17.14.22.2,0,.41-.06.62-.16.08-.41.02-.81.07-1.16-.06-.16-.1-.29-.14-.41-.03-.23.16-.36.22-.55.1-.89.19-1.77.2-2.65,0-.11,0-.22.02-.33.08-1.1.06-2.21.04-3.32-.01-.71.03-1.41.05-2.12,0-.08.05-.16.08-.25.55-.06,1.07-.15,1.6-.17,1.19-.04,2.39-.09,3.58-.14.35-.01.7-.07,1.02-.15.03-.04.05-.06.05-.08.1-.53.1-1.05-.09-1.56-.01-.04-.05-.07-.08-.1-.17-.07-.34-.06-.51-.02-.09.05-.08.24-.24.16-.04-.05-.07-.11-.12-.18-.29,0-.6-.05-.88.04-.16.07.03.28-.17.33-.05-.11-.1-.23-.16-.34-.16-.02-.31-.04-.46-.05-.09,0-.18.01-.25.11v.55c-.08.1-.15.19-.28.08-.01-.21-.02-.43-.04-.66-.07-.02-.13-.03-.18-.04-.18.21-.03.49-.2.68-.14-.01-.2-.09-.25-.2.02-.11.03-.21.05-.32-.05-.06-.09-.11-.13-.16-.01-.01-.04-.02-.09-.05-.14,0-.32-.01-.5,0-.22,0-.44.03-.66.03-.53,0-1.06-.04-1.59-.04-2.19-.02-4.38-.04-6.57-.06-.11,0-.22,0-.33,0-.08.01-.16.06-.22.09-.08.36.09.68.09,1.01-.06.39-.18.78-.09,1.17.04.04.07.07.1.11.34.04.69.09,1.04.14.48.06.96.13,1.45.15.64.04,1.27.17,1.91.21.33.02.66.07.99.11.11.01.22.04.3.2,0,.11.01.26,0,.41,0,.55-.03,1.11-.02,1.66.02,2.01.06,4.03.09,6.04,0,.46.01.93.03,1.39,0,.17.04.35.08.52.01.06.08.08.17.02.04-.32-.03-.68.09-1.03.03.12.05.23.1.33.02.06.08.1.12.15,0-.06.01-.13.02-.19ZM177.93,84.51s.04.06.04.09c0,0-.02.03-.03.04-.03-.02-.05-.04-.08-.07.02-.02.04-.04.06-.06ZM176.67,84.88s.06-.06.1-.04c.03.02.06.05.07.08.02.06-.06.11-.12.09-.06-.01-.08-.08-.05-.14ZM93.45,84.41c-.06.19-.11.42-.04.66.06.09.13.17.2.27-.02.05-.05.11-.07.15-.14.04-.22-.06-.31-.1,0-.04-.03-.08-.03-.12.07-.28.06-.56.03-.84-.02-.16.03-.3.12-.43-.19,0-.38-.15-.58-.03-.02.04-.05.08-.06.12-.03.32.01,1.68.06,2.11.04.02.07.05.11.07.2-.06.08-.28.19-.38.04-.01.08-.02.12-.04.07.16.14.31.22.47.23.05.45.11.66.13.53.03,1.05.1,1.58.17.61.08,1.23.15,1.84.22.15.02.31,0,.51,0,.15.12.45.01.62.22.01.04.04.08.04.13,0,.27,0,.53-.02.8-.05.68-.04,1.37-.02,2.05.02.66.04,1.33.04,1.99.02,1.37.03,2.74.04,4.11,0,.29.03.57.06.86,0,.08.06.16.09.25.39.03.76-.04,1.09-.16.09-.11.09-.22.1-.33.05-.68.1-1.37.15-2.05.11-1.3.22-2.6.22-3.9,0-.69,0-1.37,0-2.06,0-.57,0-1.15.01-1.72,0-.18.01-.35.03-.53,0-.09.04-.17.16-.24.55-.07,1.14-.15,1.74-.17,1.15-.03,2.3-.09,3.45-.14.26-.01.53-.06.79-.1.06,0,.12-.04.18-.07.14-.59.14-.68.03-1.32-.03-.16-.06-.3-.19-.42-.21-.07-.43-.04-.65-.04-2.01,0-4.02,0-6.04-.01-.51,0-1.02-.01-1.53,0-.19,0-.39.05-.6.08-.28-.12.03-.07-1.88-.09-.22,0-.44-.06-.67.09-.05.19-.11.4-.16.59.16.21.08.43.13.63-.08.06-.15.13-.23.16-.1.04-.08.22-.25.19,0-.13,0-.26,0-.39,0-.35,0-.71-.02-1.06,0-.06-.04-.12-.08-.22-.39-.02-.78-.04-1.18-.02-.04,0-.07.04-.11.06.03.13.05.25.09.42ZM99.44,86.25s.01.03.02.04c0-.01-.01-.04-.02-.04-.04,0-.05.03-.03.06,0,0,.03,0,.04-.01,0-.02,0-.03-.01-.05ZM99.41,85.28s-.03.04.02.03c-.06.01-.12.04-.18.04-.06,0-.12,0-.07-.09.08.03.16.05.24.08,0-.02,0-.03,0-.05ZM95.02,85.95q.08.06.09.19c-.08.08-.17.12-.33,0,.11-.08.17-.14.24-.19ZM97.87,86.35s0-.04,0-.05c.01-.02.03-.04.05-.04.11.01.21.04.25.17-.15.09-.22.07-.3-.08ZM99.46,84.43s.03.09.01.11c-.02.04-.07.02-.09-.03-.02-.04-.02-.08-.03-.11.04,0,.09,0,.11.03ZM97.85,84.88c-.06,0-.09-.06-.06-.13.02-.04.06-.06.1-.03.03.02.03.07.05.1-.03.02-.06.06-.09.06ZM98.1,85.48s-.01-.04-.01-.05c0,0,.03-.01.04-.02,0,.02.01.04.02.05l-.05.02ZM93.56,85.92c-.06-.02-.06-.05-.01-.08.01,0,.04,0,.06.01,0,0,0,.03,0,.05-.02,0-.04.02-.05.01ZM99.31,89.97v.03s-.04-.02-.04-.02h.04ZM115.55,93.1c.04.08,0,.16-.11.2-.03-.04-.09-.09-.1-.14,0-.13.01-.25.02-.38-.16.15-.29.33-.4.52-.2.37-.41.74-.62,1.1-.03.05-.1.07-.14.09-.16-.02-.14-.25-.33-.21-.01.24-.03.47-.04.7-.05.09-.09.17-.14.28.01.28.02.58.04.85.05.08.09.14.12.17.05.16-.04.34.12.46.12.04.25-.02.38-.03.13-.02.27-.01.41-.15.17-.36.36-.76.54-1.16.07-.19-.04-.4.08-.57.06-.02.13-.04.21-.06.34-.73.69-1.47,1.03-2.19.02-.17.04-.33.06-.46.08-.06.13-.1.18-.13-.01-.04-.02-.09-.03-.14.1-.11.2-.22.3-.34.08-.16.16-.31.23-.47.43-.92.86-1.84,1.3-2.76.16-.34.34-.67.56-.96.12.02.17.08.2.17.47,1.14.94,2.29,1.41,3.43.7,1.72,1.39,3.44,2.09,5.16.05.12.11.24.16.32.26.18.53.22.79.27.24.05.48,0,.68-.17.02-.07.05-.13.06-.19.19-.86.37-1.73.56-2.59.48-2.2.97-4.4,1.45-6.61.09-.43.21-.86.26-1.3.06-.55.19-1.09.19-1.65,0,0,.02-.02.04-.03.04,0,.08.02.12.02.12-.24.19-.49.2-.76,0-.06-.03-.12-.05-.2-.22-.05-.44-.09-.65-.14-.02,0-.04,0-.07,0-.02,0-.04.01-.08.03-.01.05-.03.12-.04.18-.02.42-.03.84-.04,1.26,0,.09-.03.17-.14.22-.04-.04-.11-.07-.12-.13-.03-.1-.04-.22-.05-.32,0-.18,0-.35,0-.55-.08.04-.13.07-.19.1-.35,1.56-.7,3.11-1.05,4.66-.16.73-.29,1.48-.46,2.21-.17.76-.3,1.52-.39,2.29-.03.26-.09.52-.19.77-.04-.01-.09-.01-.1-.04-.18-.4-.38-.8-.52-1.21-.09-.27-.19-.54-.3-.8-.12-.28-.2-.58-.31-.87-.37-.99-.75-1.98-1.13-2.98-.4-1.05-.81-2.1-1.22-3.16-.01-.04-.06-.06-.1-.1-.17-.08-.33-.02-.53.1-.07.11-.17.26-.25.41-.55,1.01-1.1,2.02-1.65,3.03-.39.72-.78,1.44-1.17,2.16-.4.74-.8,1.48-1.2,2.22-.04.08-.07.16-.05.25.07.1.14.2.19.32ZM126.44,85.28c-.03.16-.15.29-.13.48-.04-.04-.06-.06-.07-.07,0-.17,0-.34,0-.5.05-.03.09-.05.14-.08.02.06.06.12.05.17ZM116.72,91.48c-.07-.12-.05-.21,0-.3v.3ZM224.37,95.27s0,0,0,0c0,.06,0,.11,0,.17-.01.31-.2.58-.15.92.05.01.12.06.17.04.34-.14.6-.38.77-.7.16-.31.32-.63.45-.96.08-.2.12-.42.09-.65.07-.04.14-.09.24-.15.16-.32.34-.64.5-.99.19-.43.29-.88.29-1.35,0-.48-.1-1.72-.19-2.34-.07-.03-.14-.08-.22-.09-.17-.02-.35-.03-.53-.04-1.26-.06-2.52-.11-3.78-.17-.24-.01-.48-.05-.73-.06-.15,0-.31,0-.47,0-.03.06-.09.11-.1.17-.03.42-.07.83.04,1.25.07.03.13.06.2.07.2.01.4.01.6.01.84,0,1.68,0,2.52,0,.13,0,.27-.02.39.08.15.2.18.44.22.61-.04.55-.06,1.03-.11,1.52-.05.5-.19.99-.25,1.52-.13.24-.26.49-.4.75-.11.1-.21.21-.34.31-.28.22-.61.37-.97.4-.37.03-.75.06-1.12,0-.59-.08-1.19-.09-1.79-.09-.15,0-.31,0-.46,0-.45,0-.87-.13-1.27-.35-.41-.22-.77-.52-1.08-.89-.04-.12-.09-.24-.12-.37-.12-.49-.25-.98-.36-1.48-.23-1.06-.36-2.14-.3-3.23.05-.73.13-1.45.35-2.15.06-.19.1-.38.13-.58.04-.26.02-1.54-.02-1.92-.04-.01-.08-.03-.12-.04q-.53.22-.89.57c0,.14-.02.29-.02.44,0,.18,0,.35,0,.53,0,.15,0,.31,0,.46-.12.15.02.34-.07.52-.13-.09-.25-.17-.38-.25-.06-.29.08-.58-.07-.87-.05.03-.12.06-.15.1-.11.19-.19.4-.24.61-.04.19-.07.39-.14.57-.16.37-.21.76-.24,1.16-.1,1.2-.07,2.39.14,3.57.09.5.16,1,.25,1.5.1.57.38,1.03.8,1.42.26.24.54.46.86.62.35.18.71.37,1.07.53.6.27,1.19.57,1.84.81.69,0,1.4,0,2.1-.09.26-.03.52-.07.79-.06.22.01.44,0,.66-.03.33-.03.66-.05.97-.13.04-.15.07-.27.1-.39.07-.03.13-.05.19-.07.01-.11.03-.22.04-.32.07-.1.13-.19.2-.28.02-.02.08-.02.12-.03v-.18ZM224.54,94.43s.03.03.04.05c.03.18-.03.23-.21.17-.02-.13.05-.2.17-.22ZM226.04,92.13s-.03,0-.04-.01c0-.01,0-.03.01-.03.02,0,.03,0,.05.01,0,.01,0,.03-.01.03ZM225.75,93.36s-.05-.04-.07-.06c0,0,.02-.05.03-.05.03,0,.07.03.1.04-.02.02-.04.05-.06.07ZM196.67,95.56c.05.08.09.15.15.24v.68c-.05.1-.2.21-.15.38.14.11.27.13.42-.02,0-.16.01-.34.02-.51.01-.86.05-1.72.1-2.58.05-.88.11-1.76.07-2.65,0-.09.02-.17.03-.26.02-.15.06-.3.06-.46.03-1.44.06-2.87.09-4.31,0-.15.02-.32-.02-.46-.08-.28-.04-.57-.05-.85,0-.29,0-.57,0-.86,0-.05-.04-.06-.11-.04-.03.21-.07.42-.09.64-.02.21-.02.43-.03.62-.08.1-.15.14-.26.06-.02-.16-.04-.33-.05-.51-.01-.18,0-.35-.02-.53-.01-.17.05-.35-.06-.51-.5-.16-.77-.16-1.71-.02-.03.05-.08.1-.09.16-.02.11-.03.22-.03.33,0,.84,0,1.68,0,2.52,0,.09,0,.18.03.26.11.39.1.79,0,1.17-.07.26-.09.52-.09.79,0,.62-.01,1.24-.02,1.86-.02,1.19-.05,2.39-.08,3.58-.01.53.02,1.06,0,1.59,0,.31.02.61.11.9.69.18.9.2,1.24.08.05-.12.09-.24.13-.34.11-.07.2-.13.28-.19-.02-.29-.05-.55-.07-.81,0-.02.02-.04.02-.06.04-.02.07-.06.11-.07.08-.03.16,0,.16.06,0,.03-.02.07-.04.11-.01.02-.04.02-.05.04h.01ZM196.43,94.69v.03s.1,0,.15,0c0-.1,0-.2,0-.3-.04-.04-.13,0-.12-.1,0,0,.05,0,.05,0,.02.04.03.08.05.12.02,0,.05,0,.06,0,.05.06.1.11.15.17-.05.1-.13.1-.21.09,0,.08-.03.15-.09.21.04,0,.08,0,.12-.01.18,0,.22.03.22.23,0,.02-.02.04-.03.06-.09.07-.19.1-.3.04-.01-.04-.03-.08-.03-.12,0-.06,0-.13.01-.19-.01-.07-.03-.14-.04-.21,0,0-.01-.02-.01-.02ZM196.58,93.92c0-.17,0-.33-.04-.5,0-.02.05-.06.08-.09.04.02.08.02.1.05.11.17.12.36.11.6-.17.01-.24-.01-.24-.07ZM196.39,92.22s-.01-.09,0-.11c.02-.02.08-.04.11-.03.04.02.03.07,0,.11-.02.01-.04.02-.05.03h-.06ZM196.38,93.86s-.03-.03-.02-.05c0-.01.03-.02.04-.04,0,.02.02.03.03.05-.01.01-.03.02-.04.03ZM111.63,91.86s-.03.01-.04.02c.04.03.04.02.02-.03.08.12.12.24.08.39.04.05.12.1.12.15,0,.2,0,.39-.01.56.02.2.1.36.17.52.07.17.04.37.16.56.12.18.14.41.2.63.01.04.03.09.03.13.04.47.23.9.35,1.34.06.21.17.41.26.61.04.08.11.14.2.16.12,0,.25-.03.27-.15.07-.52-.02-1.06.05-1.58.02-.12-.03-.27-.09-.38-.12-.22-.15-.45-.14-.7.02-.31.02-.62,0-.92-.01-.17-.1-.34-.13-.51-.03-.15-.03-.31-.04-.46-.01-.2-.03-.4-.04-.58-.15-.43-.3-.85-.45-1.27-.4-1.1-.81-2.2-1.21-3.29-.37-.99-.73-1.99-1.09-2.99-.05-.14-.13-.28-.19-.42-.15-.02-.28-.05-.41-.05-.4.02-.79.05-1.19.09-.06,0-.12.04-.2.06-.06.24,0,.48.07.71.22.67.43,1.35.66,2.02.16.48.32.96.52,1.43.59,1.43,1.2,2.85,1.81,4.27.02.06.08.1.11.14.12.02.19-.04.26-.09-.1-.11-.11-.23-.07-.36ZM111.43,91.16c.09-.15.15-.2.23-.16.03.02.05.06.07.1,0,.02,0,.04,0,.06q-.18.11-.31,0ZM111.62,91.57s-.09,0-.09-.06c0-.02,0-.05.01-.06.06-.09.15-.1.21-.03.01.01.01.04.02.07-.05.03-.1.06-.16.08ZM73.93,86.47s-.03.05.03.03c-.04.07-.02.13.03.18.51.52,1.02,1.04,1.54,1.55.44.43.91.84,1.41,1.21.07.05.15.08.23.12.09-.04.17-.06.25-.11.07-.04.14-.11.21-.16.09-.29.09-.58.09-.87,0-1.04,0-2.08-.01-3.12,0-.33-.05-.66-.08-.99,0-.11-.03-.22-.14-.33-.21-.05-.43-.26-.73-.14-.02.08-.06.17-.06.25,0,.18,0,.35.01.53.07,1.04.13,2.08.2,3.11,0,.11,0,.22,0,.33-.05,0-.09.02-.15.03-.32-.2-.55-.57-.96-.63-.06-.19-.15-.33-.29-.45-.37-.32-.73-.64-1.1-.96-.13-.11-.28-.21-.38-.28-.42-.44-.72-.91-1.03-1.37-.11-.16-.24-.31-.36-.47-.35-.02-.68-.06-1,.03-.02.08-.05.14-.06.2-.01.15-.02.31-.02.46,0,.35,0,.71,0,1.06-.01,1-.03,1.99-.04,2.99,0,.22,0,.44.01.66,0,.08.04.17.06.26.34.07.67.07.99,0,.03-.07.06-.14.06-.2.01-.2.02-.4.02-.6,0-.69,0-1.37,0-2.06,0-.42,0-.84.04-1.25.06-.01.1-.02.15-.03.18.18.37.37.56.55.18.17.37.32.55.48,0-.02-.01-.03-.02-.05ZM81.93,94.81s.03-.02-.02-.03c.16.14.34.2.55.2.29,0,.57,0,.86,0,.08,0,.16.04.25.06.01.13.03.24.04.35.03.46.06.93.1,1.39,0,.06.05.11.08.17.28.01.54-.01.78-.17,0-.11.02-.22.03-.33.02-1.1.04-2.21.05-3.32,0-.26-.02-.53-.04-.8.13-.39.15-.81.12-1.23,0-.06-.05-.12-.07-.17-.46-.11-.51-.12-.93-.06-.02.05-.06.11-.07.17-.03.24-.06.48-.09.72-.06.68-.12,1.37-.17,2.05,0,.09-.02.18-.04.26-.02.09-.03.18-.16.25-.19.05-.43.07-.67.08-.35,0-.71.02-1.06.03-.37,0-.75,0-1.12,0-.06,0-.12-.04-.19-.06-.02-.07-.05-.13-.05-.19,0-.2,0-.4,0-.6,0-.84,0-1.68,0-2.52,0-.11,0-.22-.11-.3-.21-.06-.43-.03-.64.02-.11.02-.22.05-.31.17-.01.06-.04.14-.04.23-.02.22-.03.44-.04.66,0,.26,0,.53,0,.79,0,.64-.01,1.28-.02,1.92-.01.66.05,1.32.03,1.98,0,.12.05.21.19.28.23,0,.49.08.77.01.1-.23.11-.47.11-.72,0-.27,0-.53.01-.8,0-.09.04-.17.16-.24.51-.04,1.05-.08,1.6-.12.05-.07.08-.13.12-.18,0,.01,0,.03,0,.04ZM81.9,85.11s-.03.02-.04.02c-.02,0-.04-.02-.06-.03.2.46.39.93.58,1.39.02.66-.13,1.29-.2,1.92-.01.11-.07.21-.18.29-.43.12-.87.25-1.32.37-.3.09-.61.11-.92.09-.06,0-.12-.05-.19-.08-.01-.09-.04-.17-.04-.26,0-.31,0-.62,0-.93.02-1.15.04-2.3.06-3.45,0-.06.04-.12.06-.17.22-.06.41.04.6.04.23,0,.43.09.64.15.18.05.33.2.54.2.02-.05.05-.09.04-.13,0-.2-.02-.39-.03-.6-.26-.17-.53-.25-.82-.26-.62-.02-1.24-.01-1.86-.01-.09,0-.17.03-.25.15,0,.14-.03.31-.03.49.02,1.31-.11,2.6-.18,3.91-.02.4-.02.79.03,1.19,0,.08.04.16.06.23.32.14.63.12.94.09.31-.03.62-.04.93-.03.62.02,1.23-.07,1.83-.23.53-.14.9-.46,1.06-.99.06-.21.13-.42.17-.64.08-.44.12-.88.05-1.32-.07-.48-.2-.95-.41-1.39-.08-.18-.21-.34-.32-.5-.06-.09-.15-.16-.28-.17-.16.12-.35.15-.55.17-.07.11-.14.21-.21.33.06.06.11.1.16.14.05-.03.08-.03.09,0ZM70,89.74c.36-.05.71-.06,1-.13.12-.11.12-.2.09-.28-.07-.21-.14-.42-.25-.61-.25-.44-.51-.88-.78-1.3-.62-.96-1.29-1.9-1.82-2.91-.03-.06-.08-.1-.14-.16-.16-.04-.33-.08-.47-.11-.12.08-.21.13-.29.2-.02.02-.02.08-.02.1.04.06.07.11.11.17-.16.08-.3.14-.44.22-.07.1-.16.2-.23.31-.48.77-1.05,1.47-1.68,2.12-.15.16-.31.32-.44.49-.19.24-.37.49-.54.75-.05.07-.06.16-.08.22-.13.06-.23.1-.34.15-.07.1-.16.2-.22.31-.03.05-.03.12-.05.2.19.16.41.14.61.14.45-.2.73-.59,1.1-.86.23,0,.45-.02.67-.02.24-.01.49,0,.72-.04.22-.03.43.04.65-.05.2-.08.42.07.65.03.24-.04.48-.03.72-.04.22,0,.44,0,.66,0,.34.33.49.78.83,1.12ZM67.11,85.33c.02-.08.04-.17.05-.25.17.08.26.2.32.34.14.32.29.64.44.96.19.4.39.8.57,1.2.03.05.03.12.05.19-.21.11-.44.1-.65.14-.19.04-.38.12-.58.08-.03.06-.07.11-.11.18-.07-.07-.13-.13-.18-.18-.04,0-.09-.03-.13-.02-.37.08-.74.11-1.12.09-.04,0-.08-.02-.12-.04-.03-.09-.01-.18.04-.25.26-.36.53-.71.79-1.06.23-.32.51-.61.68-.97.04-.09.19-.11.16-.25-.07-.05-.14-.1-.23-.15ZM67.82,88.26h.04s-.02.04-.02.04v-.04ZM77.64,91.61s.04-.03.06-.04c0,.03.01.07.02.1q.16-.01.21.12h0c-.04-.15.06-.29.03-.49-.06-.08-.13-.18-.2-.28-.35-.06-.68-.05-.98-.03-.14.06-.22.2-.4.17-.09-.05-.2-.11-.33-.18-1.23-.02-2.46-.04-3.69-.06-.05.07-.09.12-.13.19.02.28.03.56.05.85,0,.06.05.11.08.18.29.05.57.09.85.13.09.01.18.01.26.02.35.04.7.09,1.05.13.09.01.17.05.21.12.02,1.07.04,2.13.06,3.19,0,.24,0,.49.02.73,0,.11.04.21.06.32.27.05.5.04.71-.15.02-.34.04-.7.08-1.05.09-.75.11-1.5.08-2.25,0-.26-.02-.53-.02-.79,0-.13,0-.27.15-.38.52-.2,1.11-.04,1.66-.17.08-.13.15-.24.22-.35-.03-.02-.06-.03-.09-.05ZM86.44,93.58c.21-.09.35-.26.5-.42.02-.02.08,0,.12.01.02.06.03.12.05.19.07.04.14.09.21.13.47.05.92.04,1.34-.14.06-.19.07-.36,0-.54-.15,0-.3,0-.45,0-.17,0-.35-.04-.52-.04-.26,0-.53.01-.79.01-.08,0-.16-.04-.26-.06-.06-.25-.04-.5-.03-.74,0-.06.04-.12.05-.17.06-.02.1-.05.14-.05.62,0,1.23,0,1.85.01.46.02.93,0,1.39,0,.05,0,.11-.05.15-.08,0-.1,0-.19,0-.28,0-.11-.05-.21-.17-.27-.73-.04-1.48-.09-2.23-.12-.64-.03-1.28-.04-1.92-.05-.15,0-.31-.01-.45.11-.02.04-.07.1-.07.16-.04.57-.1,1.14-.07,1.72.02.46.03.93.04,1.39,0,.66,0,1.32,0,1.99,0,.11,0,.22.11.33.05.01.13.05.22.05.29,0,.57-.02.86-.04.03,0,.07-.05.1-.08v-.49c-.06-.11-.1-.19-.16-.31.01-.75-.02-1.48.02-2.22ZM217.5,85.73c.07.05.16.08.25.06.09-.02.17-.05.25-.07.79-.26,1.59-.51,2.38-.79.83-.29,1.68-.41,2.54-.28.64.09,1.28.08,1.92.09.06,0,.12-.03.18-.05.05-.39.05-.44-.1-.85-.4-.05-.81-.12-1.23-.16-.62-.05-1.23-.1-1.84-.19-1.16-.17-2.29-.06-3.38.35-.16.06-.33.12-.49.2-.11.06-.2.17-.3.25-.03.03-.08.04-.12.05v-.02c.03.06.05.12.08.2-.03.04-.07.09-.1.13-.11.05-.18,0-.25-.05h.02c.03.12.05.24.07.31.09.18.27.22.3.39,0,.17-.02.33-.19.43v-.02ZM161.05,84.39c-.07.08-.14.16-.2.23-.02.27-.03.27.09.48.09.02.19.05.3.05.48,0,.97.01,1.46.01.04,0,.07-.04.1-.06,0-.13-.02-.26-.02-.39,0-.15.03-.31,0-.45-.03-.17-.09-.33-.14-.5,0-.02,0-.04.02-.06.05-.1.02-.17-.09-.22-.44-.05-.9-.05-1.38-.05-.2.35-.03.67-.14.96ZM161.05,84.8h.02s-.02.05-.02.05v-.05ZM87.32,96.7c.83,0,1.67.05,2.5,0,.04,0,.08-.04.13-.06.12-.21.15-.44.12-.67-.06-.03-.1-.07-.13-.07-.54.05-1.1-.09-1.6.13-.44-.15-.84-.14-1.23-.01-.14.21-.05.41-.03.62.08.02.16.07.24.07ZM88.53,96.26c-.05.04-.11.04-.16,0-.01,0-.03-.04-.03-.04.04-.06.1-.06.16-.04.02,0,.03.02.04.04,0,.01,0,.03-.01.04ZM163.43,85.07s.03-.04.03-.06c0-.48,0-.97,0-1.45,0-.04-.05-.07-.07-.1q-.19-.03-.38.06c0,.23-.03.46-.03.7,0,.26.02.52.02.78.17.2.19.21.43.07ZM77.92,91.79s.09,0,.12.01c.07.05.08.16.19.17.1,0,.18-.04.2-.13.03-.13.05-.26.04-.39-.01-.15-.03-.31-.16-.42-.04.02-.08.03-.13.05-.02.14-.04.29-.07.45-.06.08-.12.17-.19.26,0,0,0,0,0-.01ZM217.28,84.62c0-.09,0-.19,0-.28h.01c-.08,0-.15,0-.21.08.07.06.14.13.21.19h-.02ZM81.93,84.32h-.03s.01.03.01.03l.02-.03ZM217.28,84.34c.09,0,.19,0,.28,0v.02c-.13-.16-.17-.16-.27,0h-.01ZM199.35,96.36s-.02-.03-.03-.04c-.01.02-.03.04-.04.06.01,0,.03.01.04.02.01-.01.03-.03.03-.04ZM196.66,95.58s.03.03.03.03l-.02-.05s-.01.01,0,.01ZM191.41,95.52c0-.05,0-.11,0-.16,0,0-.02,0-.02,0,0,.06,0,.11,0,.17h.01ZM129.53,94.71c-.05,0-.1,0-.15,0,0,0,.01-.02.01-.02q.07.11.13,0v.02ZM217.5,85.73s0,.03,0,.04c.04-.01.03-.02-.02-.03,0,0,.01-.02.01-.02ZM131.39,85.4c0,.05,0,.1,0,.16l-.02-.03s.1,0,.15,0c0,0,0,.02,0,.02-.05-.05-.09-.09-.14-.14l.02-.02ZM181.11,85.37v-.04s-.03.01-.03.01l.03.02ZM131.37,85.42c-.02-.07-.05-.14-.07-.21h.01s-.02.07-.03.1c0,.07.04.09.1.09l-.02.02ZM131.3,85.21s.04.02.04.02l-.03-.03s-.01,0,0,0ZM161.2,90.05s.02.03.02.04c.02-.04.01-.05-.03-.01,0,0,0-.03,0-.03Z
                            "
                            class="cls-1" />
                    </svg>