<svg xmlns="http://www.w3.org/2000/svg" viewBox="0 0 100 100">
                        <path d="
                            M231.07,79.99c.07.32.04.8.04,1.19,0,1.28-.08,2.38-.37,3.33-.16.54-.26,1.01-.67,1.3-.36.26-.99.07-1.52.19-1.36.14-2.72.27-4.08.41-1,.22-2.21.1-3.22.33-1.64.38-3.51.36-5.19.74-.57.13-1.16.07-1.7.19-.49.02-.99.05-1.48.07-1.14.25-2.31.24-3.41.48-.93.21-1.97.06-2.89.26h-.74c-.4.08-1.88.11-2.22.04h-.63c-.71-.16-1.63-.12-1.63-1,2.02-1.2,1.93-4.32,1.93-7.56-.04-1.2-.07-2.4-.11-3.59.08-.37-.05-.91.04-1.33.11-.5.11-1.46,0-1.96-.08-.35.03-.81-.04-1.11v-1c-.04-.17.01-.49-.04-.7-.15-.68-.11-1.48-.26-2.11-.12-.52-.03-1.1-.15-1.63v-.78c-.05-.15-.24-.28-.33-.41-.27-.38-.69-.85-.78-1.37.23-.16.35-.37.52-.59.12-.12.25-.25.37-.37.74-1.02,1.16-2.23,1.48-3.67.06-.85.12-1.7.19-2.56v-1.11c.14-.67-.12-1.55.04-2.26.11-.53-.09-1.24.04-1.82.07-.31-.04-.79.04-1.15.16-.72.04-1.72.04-2.52,0-2.47.02-4.87.07-7.26.02-.82.26-2.05.11-2.82.01-.63.02-1.26.04-1.89-.09-.4-.01-.89-.11-1.33-.14-.64-.21-1.29-.44-1.85-.29-.69-1.38-1.9-1.96-2.33-.23-.17-.97-.67-1.45-.52-.08.02-.15.06-.23.1-.47-.18-.96-.33-1.39-.5-.05-.02-.11-.05-.18-.07-.4-.29-.35-.53-.12-.81.45-.23.92-.42,1.39-.57.52-.17.97-.2,1.56-.33.67-.16,1.85-.28,2.63-.11h.89c.65.14,1.37,0,2.04.15.72.16,1.47.13,2.22.3.44.1,1.15.18,1.63.07.52-.11,1.04.03,1.45-.15.32-.14.64-.35.93-.52.29-.17.6-.23.89-.41.81-.5,1.74-1.12,2.45-1.74.42-.38.97-1.32,1.67-1.04-.02.06,0,.04-.04.07-.08.27-.28.51-.41.74-.47.87-.89,1.66-1.45,2.45-.27.39-.64.74-.89,1.15-.97,1.55-1.73,3.52-2.26,5.45-.01.93-.02,1.85-.04,2.78-.07.32.05.82-.04,1.19-.1.45-.04,1.11-.04,1.63.01,1.15.02,2.3.04,3.45,0,5.61-.29,10.95-.3,16.53.14.1.2.24.3.37.32.43.71.82,1.04,1.26.19.25.55.46.67.78-.23.31-.29.77-.44,1.15-.31.74-.59,1.59-1,2.26-.34.56-.8,1.03-1.19,1.56-.18.25-.45.49-.56.82-.01.32-.02.64-.04.96-.05.23-.05.66,0,.89v.7c0,.47.02,1,.11,1.41.04.47.07.94.11,1.41.43,1.86.24,4.13.48,6.19,1.36.01,2.72.02,4.08.04.37.08,1.11.09,1.48,0h.59c.53-.09,1.06-.17,1.59-.26.89-.25,1.87-.45,2.74-.7.37-.06.74-.12,1.11-.19,1.08-.29,2.2-.45,3.19-.85.4-.16.9-.36,1.22-.63.21-.18.3-.5.44-.74.24-.4.5-.81.78-1.19.09-.13.83-.76.89-.67.28.31.22.84.33,1.33.23,1.04-.08,2.42.15,3.48v.93ZM57.1,84.27c-.17-.6-.14-1.27-.28-1.86-.2-.83.09-1.8-.11-2.65-.14-.6-.06-1.5-.06-2.2v-4.33c-.02-.98-.04-1.95-.06-2.93-.13-1.54-.26-3.08-.39-4.62-.3-1.2-.26-2.64-.56-3.94-.02-.77-.04-1.54-.06-2.31-.26-1.07-.06-2.85-.06-4.05.02-2.83.04-5.67.06-8.5v-4.39c-.02-.77-.04-1.54-.06-2.31-.22-.91-.34-3.11-.11-4.11.02-.49.04-.98.06-1.46.44-1.55,1.39-2.45,2.2-3.6.36-.51.49-1.27.9-1.75v-.06c-2.37.02-4.6.39-6.59.9-.83.21-1.61.17-2.42.39-.97.26-2.13.57-3.21.62-1.66,3.43-2.84,7.23-3.94,11.32-.04.34-.08.68-.11,1.01-.32,1.26-.42,2.54-.79,3.83-.5,1.78-1.13,3.47-1.75,5.12-.53,1.42-1.07,3.43-1.97,4.45-.04.21-.82-1.13-.9-1.29-.73-1.41-1.19-2.87-1.75-4.5-.5-1.47-.83-3.15-1.3-4.67-.11-.53-.23-1.05-.34-1.58-.34-1.02-.54-2.11-.9-3.15-.64-1.89-1.45-3.69-2.2-5.4-.41-.93-.77-1.82-1.3-2.65-.57-.9-1.42-2.08-2.48-2.48-1.25-.47-3.7.07-4.79.39-1.32.4-2.57.63-3.94.96h-1.3c-.87,0-1.81.04-2.59.06.13.91,2.07,1.79,2.76,2.31,1.25.93,1.48,1.98,1.91,3.72.06.88.11,1.76.17,2.65.22.98.11,2.21.34,3.27v1.97c.16.76.06,1.84.06,2.7v5.35c0,1.32.14,2.84-.11,4-.1.46.03,1.08-.06,1.46v1.35c0,1.12.05,2.64-.17,3.66v2.2c0,.84.06,2.12-.11,2.93-.2.92.07,1.92-.11,2.76v1.18c-.37,1.72.03,3.75-.34,5.46v1.35c-.39,1.78-.16,3.85-.56,5.69-.02.58-.04,1.16-.06,1.75-.14.63-.02,1.34-.17,2.03-.2.89-.28,2.26-.28,3.21.94,0,2.06.04,2.93.23h1.52c.38.08,1.09.08,1.46,0h1.01c.88-.13,1.76-.26,2.65-.39.52-.14,1.13-.16,1.69-.34.2-.06.35-.19.62-.23-.08-.78-.75-1.27-.96-1.91-.22-.66.05-1.69-.11-2.42-.15-.68-.09-2.09.06-2.76.02-.53.04-1.05.06-1.58.13-1.11.26-2.21.39-3.32.04-1.78.08-3.57.11-5.35.23-1.05-.18-2.51.06-3.6.24-1.09.11-2.8.11-4.05,0-2.96-.13-6.12.17-8.84h.06c.88,2.11,1.51,4.47,2.25,6.76.19.6.21,1.14.39,1.75.49,1.6.64,3.31,1.07,5.07.15.64.41,1.7.23,2.53-.07.34-.19.64-.23,1.01,1.81,0,3.42.28,5.01.45.32.03.94-.1,1.24-.17.92-.2,2.23-.18,3.15-.11.01-5.71.79-10.63,2.48-14.69.48-1.16.72-2.42,1.35-3.43.21-.33.53-.6.73-.96h.06c.05,5.17.68,9.87.68,15.09.02,1.88.04,3.75.06,5.63-.24,1.1-.02,2.36-.28,3.43-.37,1.52-.33,3.28-.73,4.84-.11.43-.46,1.55-.34,2.08.07.32.28.59.34.96.51.26,1.03.52,1.69.68.58.02,1.16.04,1.75.06.53.1,1.92.08,2.53-.06h1.3c.7-.16,1.62-.07,2.31-.23,1.06-.23,2.39-.07,3.04-.68,0-.25-.94-1.31-1.13-1.75-.4-.91-.67-1.93-.96-2.93ZM96.52,36.05c-.71.14-1.61-.12-2.26,0-.79.16-1.72-.08-2.41.06-.67,0-1.34,0-2.02.01-.98.19-2.05.15-3,.34-.38,0-.75.02-1.13.03-1.46.29-3.19.11-4.57.41-.64.14-1.22.06-1.82.21-2,.52-3.94,1.17-4.62,3.02-.57,1.55-.12,5.01.25,6.5.14.56.08,1.18.2,1.72v.98c.27,1.28-.38,2.99-.98,3.57.21.62.83.99,1.33,1.35.71.51,1.4,1.08,2.12,1.61.64.47,1.2,1.08,1.82,1.56,1.16.89,2.35,1.82,3.59,2.62,1.65,1.07,3.57,1.96,4.72,3.53.37.5.9.97,1.13,1.59.3.81.15,1.84.15,2.86,0,.45.07,1.65-.1,1.92-.45.36-1.32.3-1.97.46-1.31.33-2.74.49-3.94.91-.33.12-.68.14-.93.33-.1-.02-.09-.01-.15-.05-.39-.56-.17-1.42-.34-2.22-.35-1.65.55-4.47,1.43-5.04-.16-.33-.78-.45-1.13-.61-1-.45-4.02-.96-5.51-.69-.59.11-1.06-.04-1.52.17-.33.15-.54.57-.84.77-.11,1.38-.38,3.34-.15,4.92v2.26c.09.43-.06,1.08.05,1.57.09.4.15,1.25.05,1.72-.17.81-.03,1.74-.25,2.5-.17.61-.54,1.06-.54,1.76,1.39.08,3.26.29,4.57.03.63-.13,1.34,0,1.92-.11.72-.15,1.48-.02,2.16-.16,1,0,2,0,3,0,.72-.15,1.6.05,2.36-.11,1.49-.3,3.17-.2,4.57-.51,1.27-.28,2.63-.21,3.89-.47.46-.09,1.2.11,1.52-.12.1-.05.23-.24.25-.34.02-.11-.08-.53-.1-.64-.02-.44-.03-.89-.05-1.33-.2-.94-.03-2.03-.25-3-.15-.69-.03-1.47-.2-2.22-.18-.82-.24-1.82-.25-2.71,0-3.74.53-9.27-1.72-10.95-.83-.62-1.92-1.13-2.95-1.53-.39-.15-.77-.11-1.13-.27-1.89-.8-3.8-1.56-5.41-2.6-1.03-.67-2.3-1.57-2.71-2.8-.33-.99-.12-2.73,0-3.79,1.75-.03,4.87-.8,6.05.35.02.02.03.03.05.05-.02,0-.03,0-.05,0-.15.41-.64.68-.89,1.02-.17.23-.22.51-.44.68v.74c.15.22,1.24.58,1.57.67.38,0,.75.01,1.13.02.44.1,1.1.07,1.62.08.79.01,1.62.07,2.31-.06.44,0,.89-.02,1.33-.03.56-.11,1.15-.17,1.77-.17-.02-1.95-.03-3.9-.05-5.85,0-1-.09-2.22.1-3.1v-.89c.28-1.28.22-2.03,1.48-2.33v-.34c-.67,0-1.49-.01-2.12.11ZM161.15,32.9c-1.28.26-3,.19-4.43.17,0,.94.18,1.42.39,2.17v.79c.05.55-.02,1.43.1,1.97.11.47-.18,1.25.05,1.62v2.9c-.9-.6-1.47-1.59-2.07-2.5-.45-.68-.99-1.34-1.43-2.04-.29-.46-.45-.92-.74-1.39-.26-.43-.57-.9-.84-1.34-.12-.2-.13-.44-.25-.64-.14-.22-.32-.45-.39-.74-.37-.05-.74-.18-1.08-.26-.49-.02-.98-.05-1.48-.07-.58-.13-1.54-.1-2.12.01-.78.15-1.56.01-2.26.16-.66.13-1.84,0-2.31.3-.31.01-.31.12-.49.24.03.1.07.2.1.3.3.03.77.11.98.26.54.43.45,1.07.64,1.88.31,1.33.1,3.04.1,4.53,0,.48-.04,1.08.05,1.48v.89c.19.9-.07,2.85-.25,3.68v1.43c0,1.01-.02,2.12-.05,3.05-.08,2.36.1,4.62.1,7.03,0,.93.13,2.11-.05,2.95v1.18c0,.92.04,2.2-.15,3.05-.02,1.46-.03,2.92-.05,4.38-.12.54-.14,1.15-.34,1.62-.38.89-1.82,2.5-2.61,3,.01.11,0,.14.05.2.15.25.57.13.89.21.74.19,1.7.18,2.56.19,1.44.02,3.41.09,4.67-.16.18,0,.36,0,.54,0,.83-.17,1.72-.15,2.41-.45.47-.2.81-.69,1.23-.96-.15-.4-.61-.58-.84-.9-.2-.27-.4-.7-.49-1.04v-.89c-.11-.47-.08-1.02-.2-1.58-.1-.48-.14-1.16-.15-1.67v-.98c-.13-.59.09-1.42-.05-2.07-.22-1.01-.05-2.39-.05-3.49v-3.64c0-.58-.06-1.32.05-1.82v-1.82c.05-.97.05-2.12.25-3,.12-.54-.03-1.29.34-1.57.05-.04.01-.02.1-.05.23.22.6.3.79.55,1.13,1.48,2.22,2.99,3.3,4.53.69,1,1.66,2.25,2.02,3.53.11.38.07,1.24,0,1.57v.98c-.15.67-.05,1.53-.2,2.21-.11.51-.05,1.43.05,1.87.03.84.07,1.67.1,2.51v.93c-.27,1.19-.31,2.72-.84,3.62-.26.44-.79.79-1.08,1.21-.11.16-.09.42-.2.59.05.26.23.4.34.6,1.65.08,3.37.26,5.16.29.69.01,1.56.11,2.16-.01.31,0,.62.01.93.02.68-.09,1.59-.01,1.97-.41.04-.07-.31-1.68-.39-1.97-.31-1.11-.46-2.33-.74-3.55-.17-.74.01-1.59-.15-2.31v-6.93c0-5.51.25-10.79.25-16.23v-5.36c0-2.17-.21-2.92.84-4.22.18-.22.49-.48.79-.58v-.54c-1.37.08-2.76.21-4.03.47-.51.02-1.02.05-1.52.07ZM240.6,71.56c.83-.2,1.72-.21,2.41-.53.47-.22.81-.72,1.23-1.01-.15-.39-.61-.56-.84-.87-.2-.27-.4-.69-.49-1.02v-.89c-.11-.47-.08-1.02-.2-1.57-.1-.47-.14-1.15-.15-1.67v-.98c-.13-.59.09-1.42-.05-2.06-.22-1-.05-2.39-.05-3.49v-3.64c0-.58-.06-1.32.05-1.82v-1.82c.05-.97.05-2.12.25-3,.12-.55-.03-1.29.34-1.58.05-.04.01-.02.1-.05.23.21.6.28.79.53,1.13,1.44,2.22,2.91,3.3,4.42.69.97,1.66,2.19,2.02,3.46.11.37.07,1.23,0,1.57v.98c-.15.68-.05,1.53-.2,2.22-.11.51-.05,1.44.05,1.87.03.85.07,1.71.1,2.56-.03.38-.07,1-.1,1.38-.19,1.1-.28,2.35-.74,3.15-.26.45-.79.82-1.08,1.25-.11.16-.09.43-.2.59.05.26.23.39.34.58,1.65.02,3.37.14,5.16.11.69-.01,1.56.05,2.16-.09l.93-.02c.68-.11,1.59-.07,1.97-.48.04-.07-.31-1.67-.39-1.96-.31-1.1-.46-2.31-.74-3.53-.17-.73.01-1.59-.15-2.31v-6.93c0-5.47.24-10.72.25-16.12,0-1.77,0-3.54,0-5.31.01-2.3-.24-3.04.84-4.41.18-.23.49-.5.79-.6v-.54c-1.37.13-2.76.3-4.03.61-.51.04-1.02.08-1.52.13-1.28.3-3,.29-4.43.32,0,.94.18,1.42.39,2.16v.79c.05.54-.02,1.43.1,1.97.11.47-.18,1.26.05,1.62v2.9c-.9-.57-1.47-1.54-2.07-2.42-.45-.66-.99-1.31-1.43-1.99-.29-.45-.45-.91-.74-1.36-.26-.42-.57-.88-.84-1.31-.12-.2-.13-.44-.25-.64-.14-.22-.32-.44-.39-.73-.37-.04-.74-.16-1.08-.23-.49,0-.98-.02-1.48-.02-.58-.11-1.54-.05-2.12.09-.78.18-1.56.07-2.26.24-.66.16-1.84.06-2.31.38-.31.02-.31.13-.49.25.03.1.07.2.1.29.3.02.77.08.98.23.54.41.45,1.05.64,1.86.31,1.32.1,3.03.1,4.52,0,.48-.04,1.08.05,1.47v.89c.14.64.04,1.83-.09,2.76-.04.66-.12,1.72-.16,2.38,0,1-.02,2.1-.05,3.03-.08,2.37.1,4.61.1,7.03,0,.93.13,2.11-.05,2.95v1.18c0,.92.04,2.2-.15,3.05-.02,1.46-.03,2.92-.05,4.38-.12.54-.14,1.15-.34,1.63-.38.91-1.82,2.56-2.61,3.09.01.11,0,.14.05.2.15.24.57.11.89.18.74.16,1.7.12,2.56.1,1.44-.03,3.41-.03,4.67-.33h.54ZM63.36,37.9c-.58.12-2.71.03-3-.2-.02,0-.03,0-.05,0,.05.42.09.91.3,1.19.13.17.45.2.59.35.07.07.36.66.39.74.3.72.22,1.68.34,2.56.06.4-.07,1.69-.15,2.06v.74c-.15.68-.11,1.53-.25,2.16v2.11c-.08.37.04.95-.05,1.38-.22,1.01-.05,2.43-.05,3.54v2.66c-.09.41-.09,1.21,0,1.62.15.7-.09,1.58.05,2.21v1.03c0,.73.02,1.39.15,1.97.14.63-.02,1.3.1,1.87.02.48.03.95.05,1.43.09.43-.05,1.08.05,1.57.14.67,0,2.35-.15,3.05v.89c-.09.43-.06,1.05-.15,1.47-.13.58.09,2.07-.15,2.46,0,.59-.21.53-.44.83-.63.82-1.63,1.26-2.36,1.98.02.1.01.09.05.15.14.24.52.13.84.21.71.18,1.6.13,2.41.14,1.21.02,2.56.13,3.64-.08.28,0,.56,0,.84.01.83-.17,1.81-.12,2.56-.3.74-.18,1.79-.17,2.12-.75.19-.33-.08-.57-.2-.74-.36-.55-.77-1.12-1.03-1.74-.63-1.47-.64-3.46-.64-5.52v-2.21c.11-.48.05-1.2.05-1.77v-3.49c0-1.18-.09-2.77.15-3.83v-6.89c.03-2.05.07-4.1.1-6.15.06-.26-.02-.71.05-1.03.32-1.42.03-3.19.49-4.47.19-.53.66-1.07.98-1.51.11-.11.23-.23.34-.34.25-.46.16-1.42.15-2.11-2.78.3-5.55.23-8.12.74ZM130.8,34.11c-.58.12-2.71.03-3-.2-.02,0-.03,0-.05,0,.05.42.09.91.3,1.19.13.17.45.2.59.35.07.07.36.66.39.74.3.72.22,1.68.34,2.56.06.4-.07,1.69-.15,2.06v.74c-.15.68-.11,1.53-.25,2.16v2.11c-.08.37.04.95-.05,1.38-.22,1.01-.05,2.43-.05,3.54v2.66c-.09.41-.09,1.21,0,1.62.15.7-.09,1.58.05,2.21v1.03c0,.73.02,1.39.15,1.97.14.63-.02,1.3.1,1.87.02.48.03.95.05,1.43.09.43-.05,1.08.05,1.57.14.67,0,2.35-.15,3.05v.89c-.09.43-.06,1.05-.15,1.47-.13.58.09,2.07-.15,2.46,0,.59-.21.53-.44.83-.63.82-1.63,1.26-2.36,1.98.02.1.01.09.05.15.14.24.52.13.84.21.71.18,1.6.13,2.41.14,1.21.02,2.56.13,3.64-.08.28,0,.56,0,.84.01.83-.17,1.81-.12,2.56-.3.74-.18,1.79-.17,2.12-.75.19-.33-.08-.57-.2-.74-.36-.55-.77-1.12-1.03-1.74-.63-1.47-.64-3.46-.64-5.52v-2.21c.11-.48.05-1.2.05-1.77v-3.49c0-1.18-.09-2.77.15-3.83v-6.89c.03-2.05.07-4.1.1-6.15.06-.26-.02-.71.05-1.03.32-1.42.03-3.19.49-4.47.19-.53.66-1.07.98-1.51.11-.11.23-.23.34-.34.25-.46.16-1.42.15-2.11-2.78.3-5.55.23-8.12.74ZM219.53,31.88c.07.07.36.64.39.73.3.71.22,1.67.34,2.55.06.39-.07,1.69-.15,2.07v.74c-.15.69-.11,1.54-.25,2.17v2.11c-.08.37.04.95-.05,1.38-.22,1.02-.05,2.43-.05,3.54v2.66c-.09.42-.09,1.21,0,1.62.13.59-.02,1.31,0,1.9.01.33.03.66.04.98,0,.87,0,1.66.15,2.33.14.62-.02,1.3.1,1.87.02.48.03.95.05,1.43.09.43-.05,1.08.05,1.57.14.67,0,2.35-.15,3.05v.89c-.09.44-.06,1.05-.15,1.48-.13.59.09,2.07-.15,2.46,0,.59-.21.54-.44.84-.63.84-1.63,1.32-2.36,2.06.02.1.01.09.05.15.14.24.52.11.84.18.71.15,1.6.07,2.41.06,1.21-.02,2.56.04,3.64-.21h.84c.83-.22,1.81-.19,2.56-.4.74-.21,1.79-.23,2.12-.82.19-.34-.08-.56-.2-.73-.36-.54-.77-1.09-1.03-1.7-.63-1.45-.64-3.43-.64-5.5v-2.21c.11-.48.05-1.2.05-1.77v-3.49c0-1.18-.09-2.77.15-3.84v-6.89c.03-2.05.07-4.1.1-6.15.06-.26-.02-.71.05-1.03.32-1.43.03-3.2.49-4.48.19-.54.66-1.1.98-1.54.11-.12.23-.23.34-.35.25-.47.16-1.43.15-2.12-2.78.39-5.55.42-8.12,1.03-.58.14-2.71.13-3-.1-.02,0-.03,0-.05,0,.05.42.09.9.3,1.18.13.17.45.18.59.33ZM293.82,66.28c-.14.47-.3.96-.49,1.41-.49,1.14-2.87,2.74-3.94,3.31-.23.13-4.38,1.05-5.53,1.11-1.04.24-2.93.13-3.84-.24-1.31-.53-1.84-.71-2.55-1.85-.13-.2-4.81,5.12-5.51,5.57-1.33.86-5.06,3.73-5.85,4.16-2.69,1.47-5.76,3.53-8.59,4.69-1.42.58-3.49,1.11-4.97,1.5-2.99.78-6.4.85-9.39.19-1.25-.28-2.47-.69-3.56-1.35-.82-.49-1.5-.97-1.77-2.02-.23-.91.31-2.17.6-2.71.97-1.84,2.75-2.94,4.96-3.56.24-.07.42-.03.67-.09,1.26-.3,2.69.03,3.43.54.42.3,1.11,1.04,1.3,1.56.09.27.07.75,0,1.01-.23.87-.55,1.33-1.32,1.66-.21.09-.54.06-.8.07-.68.01-1.58.05-1.78-.74-.22-.84.74-1.2.93-1.92-.36-.04-1.18-.17-1.58-.08-1.91.46-4.58,1.85-3.14,4.18.34.54.77.62,1.29.98,2.56,1.8,6.52,1.4,9.42.71,3.57-.85,7.4-3.27,10.66-4.94.41-.21.83-.32,1.24-.53.46-.24.95-.53,1.4-.78,1.89-1.03,2.61-1.94,4.29-3.16.83-.6,1.74-1.21,2.31-1.82.58-.62,1.44-1.28,1.98-1.94.09-.12,2.79-2.83,2.88-2.94-.1-.51-.64-1.62-.88-2.01-.17-.27-.73-1.26-.9-1.53-.4-.63-.6-.97-.98-1.62-.46-.78-.67-1.7-1.04-2.58-.46-1.1-.91-2.26-1.38-3.38-.28-.66-.45-1.38-.73-2.01-.07-.16-.08-.35-.18-.49-.08-.11-.27-.16-.36-.25-.21,0-.37.02-.52.06-.65,1.06-.58,2.76-.57,4.4.1,3.22.19,6.45.29,9.68.12.32.49.53.67.79.13.19.18.43.34.59-.02.05,0,.03-.03.05-.31.49-1.05.45-1.69.63-.81.22-1.74.24-2.57.46l-.83.09c-.43.11-1.34.25-1.84.14h-.36c-.57-.12-1.04-.1-1.48-.33-.19-.1-.39-.19-.39-.41.25-.19.39-.59.52-.89.2-.45.51-.9.65-1.41,0-.89.02-1.78.03-2.67.07-.34.07-1.13.03-1.64,0-.29-.02-.77-.03-1.06,0-.47-.02-.97-.03-1.4,0-.24.02-.55-.03-.75-.02-.59-.03-1.18-.05-1.76-.11-1.79-.22-3.58-.34-5.37-.03-.55-.05-1.11-.08-1.66-.03-.12-.04-.37-.1-.47-.22-.32-.55-.19-.55-.77.19-.21.24-.54.39-.79.43-.72.71-1.52.93-2.46.09-.35.14-1.34.05-1.71-.02-.83-.03-1.66-.05-2.49,0-.39.05-.88-.03-1.22-.06-.28.03-.66-.03-.91-.05-.23.02-.55-.03-.75-.09-.4.03-.83-.05-1.19v-.44c-.08-.37-.02-.85-.1-1.22l-.03-.88c-.14-.62-.05-1.34-.18-1.94-.07-.32-.07-1.11,0-1.43v-.42c.03-.15.07-.49.03-.68-.17-.77-.21-1.54-.21-2.46-.39-.19-.84-.74-.73-1.34.2-.08.4-.16.6-.24.61-.2,1.32-.1,1.97-.27.66-.16,1.45-.13,2.13-.3.2-.01.4-.02.6-.04.39-.09.85-.02,1.27-.13.51-.12,1.11-.15,1.69-.16.02.96-.4,1.49-.65,2.17-.15.4-.18.85-.29,1.28-.05.21,0,.48-.05.68.04,1.4.09,2.8.13,4.2.02,1.18.03,2.37.05,3.55.09.41.05.99.05,1.43v.49c.06,1.05.12,2.09.18,3.14,0,0,.02,0,.03,0,.1-.09.19-.18.29-.26.18-.18.36-.41.49-.63.43-.7.65-1.54.99-2.33.88-2.08,1.51-4.45,2.41-6.5.16-.36.36-.74.52-1.1.35-.81.61-1.6.96-2.4.21-.48.66-1.25.7-1.83-.41-.23-.79-.6-1.06-.97-.11-.16-.18-.36-.31-.49,0,0,0,0,0,0,.15-.12.38-.08.6-.13.42-.11.93-.12,1.38-.23.18-.01.35-.02.53-.04,1.22-.2,2.43-.39,3.65-.59.54-.12,1.15-.02,1.66-.15.14-.01.28-.02.42-.03.38-.1,1.22-.31,1.64-.21.19.04.37.02.44.17v.23c-.12.14-.16.35-.26.5-.2.28-.44.54-.65.82-.42.56-1.09.88-1.45,1.5-.14.24-.15.54-.26.81-.28.7-.51,1.42-.8,2.12-1.02,2.41-1.89,5.01-2.88,7.42-.27.67-.42,1.36-.7,2.01-.32.73-.71,1.46-1.12,2.12-.34.56-.55,1.15-.88,1.7-.37.61-.78,1.25-.96,2.02-.06.26.03.56.08.73.16.58.29,1.1.49,1.6.15.36.24.68.39,1.03.15.33.35.68.49,1,.1.23.16.44.29.64.56.92,1.1,1.88,1.56,2.91.83,1.88,1.87,4.57,2.8,6.33.25.47.59,1.3.86,1.73.08.13.1.33.26.38.04.03.25-.15.32-.15.14-.18.47-.28.65-.43,1.06-.87,4.51-3.2,6.34-3.03,1.69.15,3.91,1.4,4.82,2.66.47.65.65,2.19.34,3.21ZM291.94,64.62c-.06-.97-2.06-2-2.99-2.17-.63-.12-1.82.12-2.43.36-.71.29-3.92,2.82-3.9,2.97.1.11.12.28.21.41.89,1.28,1.19,1.84,2.5,2.78,1.27.91,4.56.87,6.07-2.13.32-.65.58-1.43.53-2.21ZM178.12,39.19c.67-.42,1.58-.21,2.51-.4,1.54-.31,4.44-.26,5.71.3,1.27.56,2.01,1.92,3.79,1.94.01-.95.25-1.81.49-2.55.26-.79.38-1.48.64-2.25.55-1.65,1.13-3.6.84-5.84-1.02.11-2.22.23-3.25.44-.77.16-1.59.01-2.31.16-.48,0-.95.02-1.43.02-2.15.13-4.3.25-6.44.38-2.65.55-4.61,1.01-6.44,2.35-1.02.74-2.06,2.42-2.41,3.84-.02.84-.03,1.67-.05,2.51-.1.45-.1,1.32,0,1.77v1.38c.15.7-.07,1.58.1,2.36.16.76.04,1.81.05,2.66.02,1.34.05,2.86.05,4.28,0,1.82.06,3.51.05,5.21,0,.89.12,2.01-.05,2.8v1.08c-.16.75-.08,1.66-.25,2.41-.02.46-.03.92-.05,1.38-.14.64-.14,1.87,0,2.51.13.61-.03,1.15.1,1.72.28,1.21.51,2.15,1.13,2.97.1.13.26.16.39.25.15.11.29.3.44.4.72.46,3.34,1.06,4.57.82.41,0,.82.01,1.23.02,1.38-.27,3.01.05,4.38-.22.25,0,.49,0,.74.01.98-.19,2.13.01,3.15-.19.62-.12,1.38.03,2.07-.11.94-.19,2.45-.21,3.49-.18.15-.11.3-.22.44-.34,0-1.15-.15-2.24-.39-3.2-.13-.5-.09-1.05-.2-1.53v-6.64c-.15-.7.06-1.58-.1-2.31-.15-.68-.04-1.43-.2-2.17-.17-.79-.19-1.85-.2-2.71-.02-1.3-.03-2.59-.05-3.89,0-.6-.1-1.23,0-1.72.08-.38-.13-.99.05-1.28v-.93c-.97.29-1.93.59-2.9.88-1.21.37-2.51.44-3.79.72-.9.2-2.2-.04-2.46.79-.02,0-.03,0-.05,0,.13.28.53.21.79.36.21.12.51.52.59.75.02.23.03.46.05.69.22.89.18,2.03.39,3.01v.98c.18.85.1,2.05.1,3v1.03c.15.71.05,1.71.05,2.51v4.92c-.96,0-1.99.11-2.85.29-.67.04-1.34.07-2.02.11-.11-.12-.28-.18-.39-.3-.22-.31-.15-.82-.25-1.23-.2-.81-.11-1.88-.3-2.71-.02-.39-.03-.79-.05-1.18-.27-1.22-.16-2.62-.44-3.89v-1.23c-.22-.99-.05-2.36-.05-3.44v-6.93c0-1.7-.05-3.56.3-5.01.17-.71.18-1.28.69-1.61ZM120.91,34.85c-.68.14-1.55-.11-2.16.01-.38,0-.75-.01-1.13-.02-1.17-.02-2.52-.17-3.54.04-.49,0-.98-.02-1.48-.03-1.05.21-2.27.03-3.3.24-.7.04-1.41.07-2.12.11-3.18.7-5.45.76-6.49,3.72-.47,1.33-.37,4.55-.05,6,.05.82.1,1.64.15,2.46.12.53.07,1.13.2,1.72.04.17.13.77.1.94-.09.44-.56,1-.79,1.36-.13.2-.11.53-.25.73v.2c2.19.48,3.55,1.6,5.16,2.65,1.05.68,2.13,1.2,3.2,1.88,1.08.68,2.17,1.43,3.25,2.12.72.47,1.52.96,2.31,1.32.58.26,1.24.48,1.52,1.01.32.58-.04,1.41.1,2.07.18.83-.14,1.92.05,2.8.08.8.16,1.61.25,2.41-.9.02-1.83.16-2.61.35-.78.18-1.6.18-2.31.35-.66.16-1.83.15-2.26.5-.02,0-.03,0-.05,0-.03-1.53-.29-2.85-.59-4.19-.25-1.09.36-2.2,1.13-2.29,0-.59,0-1.05,0-1.62-1.52-.05-3.42-.51-5.02-.19-.61.12-1.15-.06-1.72.07-.58.13-1.24.2-1.77.41-.25.1-.51.27-.79.33.16.57.67.95.84,1.59.03.71.07,1.41.1,2.12.19.88.19,2.31,0,3.2v1.33c-.23,1.07-.07,2.28-.3,3.29-.26,1.16-.38,3.43.39,3.99.31.14,1.15-.18,1.48-.27,1.25-.36,2.61-.44,3.94-.72.46,0,.92-.02,1.38-.03.26-.05.85-.11,1.18-.03.25.06.81.14,1.13.07.84-.17,1.78-.12,2.75-.1.38,0,.75.01,1.13.02.31-.06.75,0,1.08-.08,1.41-.33,2.94-.37,4.33-.66,1.03-.22,2.23-.02,3.25-.24.35-.08.8.03,1.08-.13.34,0,.36-.11.59-.19-.01-.79-.14-1.56-.3-2.27-.14-.62.03-1.3-.1-1.87-.03-1.16-.07-2.33-.1-3.49-.12-.54.08-1.31-.05-1.92-.05-.24-.12-.77-.05-1.08.14-.64-.05-1.44.1-2.11.28-1.3.24-3.98-.05-5.21-.03-.34-.07-.69-.1-1.03-.1-.28-.59-.87-.79-1.14-.55-.75-1.51-1.25-2.31-1.76-2.18-1.4-4.7-2.34-7.23-3.42-1.39-.6-3.76-1.12-4.23-2.53-.11-.33,0-1.07.05-1.33.16-.73.01-1.4.25-2.06.07-.19.24-.35.3-.59,1.63-.36,4.04-.95,5.71-.15.17.99-.83,2.51-1.38,2.93v.54c2.5.53,5.43.09,7.53-.46.54-.07,1.08-.15,1.62-.22.56-.12,1.12.1,1.57.13-.08-.62-.16-1.25-.25-1.87-.1-.41-.09-.87-.2-1.33-.55-2.33-.73-7.17.84-8.35v-.1c-1.41-.02-2.98-.16-4.18.07Z
                            "
                            class="cls-1" />
                    </svg>